<svg width="54" height="54" viewBox="0 0 54 54" fill="none" xmlns="http://www.w3.org/2000/svg">
<rect width="54" height="54" rx="8" fill="#FCC101"/>
<path d="M37.7812 30.75C37.7812 31.0281 37.6988 31.3 37.5443 31.5313C37.3897 31.7625 37.1701 31.9428 36.9131 32.0492C36.6562 32.1556 36.3734 32.1835 36.1007 32.1292C35.8279 32.075 35.5773 31.941 35.3806 31.7444C35.184 31.5477 35.05 31.2971 34.9958 31.0243C34.9415 30.7516 34.9694 30.4688 35.0758 30.2119C35.1822 29.9549 35.3625 29.7353 35.5937 29.5807C35.825 29.4262 36.0969 29.3438 36.375 29.3438C36.748 29.3438 37.1056 29.4919 37.3694 29.7556C37.6331 30.0194 37.7812 30.377 37.7812 30.75ZM37.248 35.3543C37.0421 36.6818 36.3686 37.8921 35.3491 38.7668C34.3295 39.6416 33.0309 40.1233 31.6875 40.125H28.875C27.3836 40.1234 25.9538 39.5303 24.8992 38.4758C23.8447 37.4212 23.2516 35.9914 23.25 34.5V29.7527C21.4377 29.5244 19.7711 28.6426 18.5628 27.2727C17.3545 25.9028 16.6877 24.1391 16.6875 22.3125V16.6875C16.6875 16.4389 16.7863 16.2004 16.9621 16.0246C17.1379 15.8488 17.3764 15.75 17.625 15.75H20.4375C20.6861 15.75 20.9246 15.8488 21.1004 16.0246C21.2762 16.2004 21.375 16.4389 21.375 16.6875C21.375 16.9361 21.2762 17.1746 21.1004 17.3504C20.9246 17.5262 20.6861 17.625 20.4375 17.625H18.5625V22.3125C18.5624 23.0575 18.7104 23.7952 18.9977 24.4826C19.2851 25.17 19.7062 25.7934 20.2365 26.3167C20.7668 26.8401 21.3957 27.2528 22.0869 27.531C22.778 27.8093 23.5175 27.9474 24.2625 27.9375C27.3223 27.8977 29.8125 25.3301 29.8125 22.2152V17.625H27.9375C27.6889 17.625 27.4504 17.5262 27.2746 17.3504C27.0988 17.1746 27 16.9361 27 16.6875C27 16.4389 27.0988 16.2004 27.2746 16.0246C27.4504 15.8488 27.6889 15.75 27.9375 15.75H30.75C30.9986 15.75 31.2371 15.8488 31.4129 16.0246C31.5887 16.2004 31.6875 16.4389 31.6875 16.6875V22.2152C31.6875 26.0637 28.8129 29.2805 25.125 29.7516V34.5C25.125 35.4946 25.5201 36.4484 26.2233 37.1516C26.9266 37.8549 27.8804 38.25 28.875 38.25H31.6875C32.5391 38.2486 33.3649 37.9579 34.0297 37.4256C34.6944 36.8933 35.1586 36.151 35.3461 35.3203C34.2139 35.066 33.2162 34.4007 32.5462 33.4533C31.8762 32.5058 31.5814 31.3435 31.719 30.1912C31.8565 29.039 32.4165 27.9787 33.2907 27.2155C34.1649 26.4524 35.2911 26.0406 36.4514 26.0599C37.6117 26.0792 38.7235 26.5282 39.5719 27.32C40.4202 28.1118 40.9447 29.1902 41.0438 30.3464C41.1429 31.5026 40.8097 32.6544 40.1085 33.5791C39.4073 34.5037 38.3881 35.1354 37.248 35.352V35.3543ZM39.1875 30.75C39.1875 30.1937 39.0226 29.65 38.7135 29.1875C38.4045 28.7249 37.9652 28.3645 37.4513 28.1516C36.9374 27.9387 36.3719 27.883 35.8263 27.9915C35.2807 28.1001 34.7796 28.3679 34.3863 28.7613C33.9929 29.1546 33.7251 29.6557 33.6165 30.2013C33.508 30.7469 33.5637 31.3124 33.7766 31.8263C33.9895 32.3402 34.3499 32.7795 34.8125 33.0885C35.275 33.3976 35.8187 33.5625 36.375 33.5625C37.1209 33.5625 37.8363 33.2662 38.3637 32.7387C38.8912 32.2113 39.1875 31.4959 39.1875 30.75Z" fill="#FFFEEA"/>
</svg>
