<svg width="20" height="21" viewBox="0 0 20 21" fill="none" xmlns="http://www.w3.org/2000/svg">
<g id="icon/doctor">
<path id="Vector" d="M11.383 18.4783C9.93303 18.4783 8.69784 17.9681 7.67747 16.9477C6.6571 15.9274 6.14692 14.6922 6.14692 13.2422V12.779C4.99229 12.591 4.03234 12.0505 3.26706 11.1574C2.50178 10.2643 2.11914 9.21387 2.11914 8.00608V3.17274H4.53581V2.36719H6.14692V5.58941H4.53581V4.78385H3.73025V8.00608C3.73025 8.89219 4.04576 9.65075 4.67678 10.2818C5.3078 10.9128 6.06636 11.2283 6.95247 11.2283C7.83859 11.2283 8.59715 10.9128 9.22817 10.2818C9.85919 9.65075 10.1747 8.89219 10.1747 8.00608V4.78385H9.36914V5.58941H7.75803V2.36719H9.36914V3.17274H11.7858V8.00608C11.7858 9.21441 11.4032 10.2651 10.6379 11.1582C9.87261 12.0513 8.91266 12.5916 7.75803 12.779V13.2422C7.75803 14.2491 8.11059 15.1052 8.81572 15.8103C9.52085 16.5154 10.3766 16.8677 11.383 16.8672C12.3894 16.8667 13.2455 16.5144 13.9511 15.8103C14.6568 15.1062 15.0091 14.2502 15.008 13.2422V11.8929C14.5381 11.7318 14.1523 11.4431 13.8504 11.0269C13.5486 10.6107 13.3975 10.1408 13.3969 9.61719C13.3969 8.94589 13.6319 8.37529 14.1018 7.90538C14.5717 7.43547 15.1423 7.20052 15.8136 7.20052C16.4849 7.20052 17.0555 7.43547 17.5254 7.90538C17.9953 8.37529 18.2303 8.94589 18.2303 9.61719C18.2303 10.1408 18.0793 10.6107 17.7775 11.0269C17.4757 11.4431 17.0896 11.7318 16.6191 11.8929V13.2422C16.6191 14.6922 16.109 15.9274 15.0886 16.9477C14.0682 17.9681 12.833 18.4783 11.383 18.4783Z" fill="#018969"/>
</g>
</svg>
