<svg width="54" height="54" viewBox="0 0 54 54" fill="none" xmlns="http://www.w3.org/2000/svg">
<rect width="54" height="54" rx="8" fill="#00C465"/>
<path d="M22.5 17C21.5729 17.0037 20.6848 17.3736 20.0292 18.0292C19.3736 18.6848 19.0037 19.5729 19 20.5C19 22.422 20.578 24 22.5 24C24.422 24 26 22.422 26 20.5C26 18.578 24.422 17 22.5 17ZM31.5 17C30.5729 17.0037 29.6848 17.3736 29.0292 18.0292C28.3736 18.6848 28.0037 19.5729 28 20.5C28 22.422 29.578 24 31.5 24C33.422 24 35 22.422 35 20.5C35 18.578 33.422 17 31.5 17ZM22.5 19C23.34 19 24 19.66 24 20.5C24 21.34 23.34 22 22.5 22C21.66 22 21 21.34 21 20.5C21 19.66 21.66 19 22.5 19ZM31.5 19C32.34 19 33 19.66 33 20.5C33 21.34 32.34 22 31.5 22C30.66 22 30 21.34 30 20.5C30 19.66 30.66 19 31.5 19ZM18 23C15.8 23 14 24.8 14 27C14 28.113 14.477 29.117 15.219 29.844C14.5383 30.3033 13.9803 30.9221 13.5935 31.6465C13.2068 32.3709 13.003 33.1788 13 34H15C15 32.332 16.332 31 18 31C19.668 31 21 32.332 21 34H23C22.997 33.1788 22.7932 32.3709 22.4065 31.6465C22.0197 30.9221 21.4617 30.3033 20.781 29.844C21.523 29.117 22 28.114 22 27C22 24.8 20.2 23 18 23ZM23 34C22.375 34.836 22 35.887 22 37H24C24 35.332 25.332 34 27 34C28.668 34 30 35.332 30 37H32C31.9983 35.9184 31.6476 34.8663 31 34C30.66 33.547 30.25 33.16 29.781 32.844C30.523 32.117 31 31.114 31 30C31 27.8 29.2 26 27 26C24.8 26 23 27.8 23 30C23 31.113 23.477 32.117 24.219 32.844C23.7509 33.1585 23.3388 33.5492 23 34ZM31 34H33C33 32.332 34.332 31 36 31C37.668 31 39 32.332 39 34H41C40.997 33.1788 40.7932 32.3709 40.4065 31.6465C40.0197 30.9221 39.4617 30.3033 38.781 29.844C39.523 29.117 40 28.114 40 27C40 24.8 38.2 23 36 23C33.8 23 32 24.8 32 27C32 28.113 32.477 29.117 33.219 29.844C32.5383 30.3033 31.9803 30.9221 31.5935 31.6465C31.2068 32.3709 31.003 33.1788 31 34ZM18 25C19.117 25 20 25.883 20 27C20 28.117 19.117 29 18 29C16.883 29 16 28.117 16 27C16 25.883 16.883 25 18 25ZM36 25C37.117 25 38 25.883 38 27C38 28.117 37.117 29 36 29C34.883 29 34 28.117 34 27C34 25.883 34.883 25 36 25ZM27 28C28.117 28 29 28.883 29 30C29 31.117 28.117 32 27 32C25.883 32 25 31.117 25 30C25 28.883 25.883 28 27 28Z" fill="#EDFFF6"/>
</svg>
