<svg width="54" height="54" viewBox="0 0 54 54" fill="none" xmlns="http://www.w3.org/2000/svg">
<rect width="54" height="54" rx="8" fill="#FD3655"/>
<path d="M34.4104 36.543H37.0829C37.3179 36.5467 37.5504 36.4934 37.7604 36.3877C37.9704 36.282 38.1517 36.1271 38.2888 35.9361C38.4259 35.7451 38.5147 35.5237 38.5476 35.2909C38.5805 35.0581 38.5566 34.8208 38.4779 34.5993C37.7963 33.1408 36.7174 31.9039 35.365 31.0306C34.0126 30.1573 32.4414 29.6829 30.8316 29.6618M30.8316 26.213C31.4332 26.2132 32.0289 26.0949 32.5847 25.8648C33.1405 25.6347 33.6455 25.2973 34.071 24.872C34.4964 24.4467 34.8339 23.9418 35.0641 23.386C35.2943 22.8303 35.4129 22.2346 35.4129 21.633C35.4145 21.0304 35.2972 20.4334 35.0677 19.8762C34.8382 19.319 34.501 18.8126 34.0754 18.386C33.6498 17.9593 33.1442 17.6209 32.5876 17.39C32.0309 17.1591 31.4342 17.0404 30.8316 17.0405M23.6754 26.3568C25.0525 26.3535 26.3721 25.804 27.3447 24.8289C28.3172 23.8538 28.8632 22.5327 28.8629 21.1555C28.8629 19.7794 28.3162 18.4596 27.3431 17.4865C26.37 16.5135 25.0502 15.9668 23.6741 15.9668C22.298 15.9668 20.9782 16.5135 20.0051 17.4865C19.032 18.4596 18.4854 19.7794 18.4854 21.1555C18.4853 22.5327 19.0317 23.8537 20.0044 24.8285C20.9772 25.8034 22.2969 26.3526 23.6741 26.3555M29.5316 38.0343C29.9719 38.0337 30.4034 37.9112 30.7784 37.6805C31.1534 37.4497 31.4572 37.1196 31.6561 36.7268C31.855 36.334 31.9413 35.8938 31.9054 35.455C31.8696 35.0162 31.7129 34.5958 31.4529 34.2405C30.542 33.0309 29.3692 32.0431 28.0222 31.3512C26.6753 30.6593 25.1892 30.2813 23.6754 30.2455C22.1614 30.2815 20.6753 30.6597 19.3283 31.3518C17.9814 32.0439 16.8086 33.0319 15.8979 34.2418C15.6387 34.5971 15.4827 35.0171 15.4472 35.4555C15.4117 35.8939 15.4981 36.3335 15.6967 36.7259C15.8954 37.1183 16.1986 37.4481 16.5729 37.679C16.9472 37.9099 17.3781 38.0328 17.8179 38.0343H29.5316Z" stroke="#FFF0F1" stroke-width="2" stroke-linecap="round" stroke-linejoin="round"/>
</svg>
