<svg width="21" height="21" viewBox="0 0 21 21" fill="none" xmlns="http://www.w3.org/2000/svg">
<g id="users-x">
<path id="Icon" d="M14.1844 13.789L18.4062 18.0107M18.4062 13.789L14.1844 18.0107M13.3401 3.058C14.5778 3.55903 15.451 4.77249 15.451 6.18989C15.451 7.60728 14.5778 8.82075 13.3401 9.32177M10.3849 12.9447H7.00749C5.43382 12.9447 4.64699 12.9447 4.02632 13.2017C3.19877 13.5445 2.54128 14.202 2.19849 15.0296C1.94141 15.6502 1.94141 16.4371 1.94141 18.0107M11.6514 6.18989C11.6514 8.05516 10.1393 9.56727 8.27401 9.56727C6.40873 9.56727 4.89662 8.05516 4.89662 6.18989C4.89662 4.32461 6.40873 2.8125 8.27401 2.8125C10.1393 2.8125 11.6514 4.32461 11.6514 6.18989Z" stroke="#2DD9C4" stroke-width="1.68869" stroke-linecap="round" stroke-linejoin="round"/>
</g>
</svg>
