<svg width="22" height="21" viewBox="0 0 22 21" fill="none" xmlns="http://www.w3.org/2000/svg">
<g id="users-check">
<path id="Icon" d="M14.397 15.4777L16.0857 17.1664L19.4631 13.789M11.0196 12.9447H7.64225C6.06859 12.9447 5.28175 12.9447 4.66109 13.2017C3.83353 13.5445 3.17604 14.202 2.83326 15.0296C2.57617 15.6502 2.57617 16.4371 2.57617 18.0107M13.9748 3.058C15.2126 3.55903 16.0857 4.77249 16.0857 6.18989C16.0857 7.60728 15.2126 8.82075 13.9748 9.32177M12.2862 6.18989C12.2862 8.05516 10.774 9.56727 8.90877 9.56727C7.04349 9.56727 5.53138 8.05516 5.53138 6.18989C5.53138 4.32461 7.04349 2.8125 8.90877 2.8125C10.774 2.8125 12.2862 4.32461 12.2862 6.18989Z" stroke="#287DFD" stroke-width="1.68869" stroke-linecap="round" stroke-linejoin="round"/>
</g>
</svg>
