<svg width="54" height="54" viewBox="0 0 54 54" fill="none" xmlns="http://www.w3.org/2000/svg">
<rect width="54" height="54" rx="8" fill="#287DFD"/>
<path d="M32.3327 35L34.9993 37.6667L40.3327 32.3333M26.9993 31H21.666C19.181 31 17.9385 31 16.9584 31.406C15.6516 31.9473 14.6133 32.9855 14.072 34.2924C13.666 35.2725 13.666 36.515 13.666 39M31.666 15.3877C33.6206 16.1789 34.9993 18.0951 34.9993 20.3333C34.9993 22.5716 33.6206 24.4878 31.666 25.279M28.9993 20.3333C28.9993 23.2789 26.6115 25.6667 23.666 25.6667C20.7205 25.6667 18.3327 23.2789 18.3327 20.3333C18.3327 17.3878 20.7205 15 23.666 15C26.6115 15 28.9993 17.3878 28.9993 20.3333Z" stroke="#EEF6FF" stroke-width="1.68869" stroke-linecap="round" stroke-linejoin="round"/>
</svg>
