<svg width="105" height="104" viewBox="0 0 105 104" fill="none" xmlns="http://www.w3.org/2000/svg">
<circle cx="52.4023" cy="52" r="52" fill="#FCD4DC"/>
<g clip-path="url(#clip0_190_6762)">
<path d="M61.0145 75.9918C61.0131 75.9918 61.0117 75.9918 61.0105 75.9918C61.0004 75.9918 60.9905 75.9917 60.9806 75.9917C60.0104 75.9823 59.133 75.5742 58.4408 74.8098C57.9643 74.2834 57.5718 73.5834 57.241 72.67C56.7255 71.2462 56.4033 69.4359 56.062 67.5192C55.1867 62.6012 54.3318 58.8371 52.0046 58.8233C49.6774 58.8371 48.8225 62.6012 47.9472 67.5192C47.6061 69.4359 47.2838 71.2463 46.7683 72.67C46.4375 73.5835 46.0451 74.2834 45.5685 74.8098C44.8684 75.583 43.9784 75.9919 42.9948 75.9919C41.6616 75.9919 40.3496 75.3463 39.0956 74.0733C35.5772 70.5017 32.6889 62.0664 31.2805 57.3562C29.3037 50.7452 27.9551 43.9894 28.0011 40.9275C28.1081 33.8036 33.9749 28.0079 41.0793 28.0079C44.5937 28.0079 47.1951 29.4908 49.2854 30.6823C50.7716 31.5294 52.0603 32.264 53.2788 32.264C53.2818 32.264 53.2848 32.264 53.2878 32.264C55.9262 30.0816 58.9503 28.0078 62.9209 28.0078C66.3726 28.0201 69.628 29.369 72.094 31.806C74.5604 34.2434 75.9472 37.4828 75.9989 40.9273C76.0449 43.9892 74.6964 50.7449 72.7195 57.356C71.3111 62.0662 68.423 70.5014 64.9047 74.0729C63.6593 75.337 62.3571 75.9824 61.0337 75.9914C61.0274 75.9917 61.0209 75.9918 61.0145 75.9918ZM41.0793 31.7566C36.0111 31.7566 31.8258 35.8958 31.7494 40.9837C31.7157 43.2249 32.7987 49.3483 34.8721 56.2822C37.0991 63.7298 39.6118 69.2556 41.766 71.4423C42.2366 71.92 42.611 72.1489 42.8493 72.2188C42.9664 72.0553 43.1961 71.6464 43.4603 70.7103C43.7609 69.6454 44.0015 68.2934 44.2563 66.862C44.687 64.4418 45.1754 61.6986 46.1262 59.5296C47.7231 55.8868 50.1679 55.0912 51.9593 55.0746C51.97 55.0744 51.9807 55.0743 51.9914 55.0743H52.0174C52.0281 55.0743 52.0388 55.0744 52.0494 55.0746C53.8411 55.0912 56.2856 55.8868 57.8825 59.5295C58.8335 61.6985 59.3217 64.4417 59.7525 66.8619C60.0073 68.2933 60.2479 69.6453 60.5485 70.7102C60.8115 71.6421 61.0404 72.0515 61.158 72.2165C61.3966 72.144 61.7681 71.915 62.2339 71.4421C64.388 69.2554 66.9006 63.7298 69.1277 56.282C71.201 49.3481 72.284 43.2247 72.2504 40.9836C72.1743 35.9137 67.9859 31.7745 62.9138 31.7564C59.6233 31.7564 57.0567 33.9562 54.3395 36.2852C51.3835 38.8187 48.327 41.4385 44.0761 41.4385V37.6897C46.165 37.6897 47.9529 36.642 49.8001 35.1899C48.9827 34.8247 48.2001 34.3787 47.4286 33.9388C45.5466 32.8661 43.6003 31.7566 41.0793 31.7566Z" fill="#EE2A52"/>
</g>
<defs>
<clipPath id="clip0_190_6762">
<rect width="48" height="48" fill="white" transform="translate(28 28)"/>
</clipPath>
</defs>
</svg>
