<svg width="31" height="30" viewBox="0 0 31 30" fill="none" xmlns="http://www.w3.org/2000/svg">
<g id="eva:arrow-back-fill">
<path id="Vector" d="M24.25 13.7516H9.425L13.9625 8.30157C14.1747 8.04629 14.2768 7.71719 14.2463 7.38666C14.2158 7.05613 14.0553 6.75124 13.8 6.53907C13.5447 6.32689 13.2156 6.22481 12.8851 6.25529C12.5546 6.28576 12.2497 6.44629 12.0375 6.70157L5.7875 14.2016C5.74545 14.2612 5.70785 14.3239 5.675 14.3891C5.675 14.4516 5.675 14.4891 5.5875 14.5516C5.53084 14.6949 5.50118 14.8475 5.5 15.0016C5.50118 15.1557 5.53084 15.3082 5.5875 15.4516C5.5875 15.5141 5.5875 15.5516 5.675 15.6141C5.70785 15.6792 5.74545 15.7419 5.7875 15.8016L12.0375 23.3016C12.155 23.4427 12.3022 23.5561 12.4686 23.6339C12.6349 23.7117 12.8164 23.7519 13 23.7516C13.2921 23.7521 13.5751 23.6504 13.8 23.4641C13.9266 23.3591 14.0312 23.2303 14.1079 23.0848C14.1846 22.9394 14.2318 22.7803 14.2469 22.6165C14.262 22.4528 14.2447 22.2877 14.1959 22.1307C14.1471 21.9737 14.0678 21.8279 13.9625 21.7016L9.425 16.2516H24.25C24.5815 16.2516 24.8995 16.1199 25.1339 15.8854C25.3683 15.651 25.5 15.3331 25.5 15.0016C25.5 14.67 25.3683 14.3521 25.1339 14.1177C24.8995 13.8833 24.5815 13.7516 24.25 13.7516Z" fill="url(#paint0_linear_358_32358)"/>
</g>
<defs>
<linearGradient id="paint0_linear_358_32358" x1="9.96528" y1="9.33393" x2="24.2729" y2="12.503" gradientUnits="userSpaceOnUse">
<stop stop-color="#018969"/>
<stop offset="1" stop-color="#01BC90"/>
</linearGradient>
</defs>
</svg>
