<svg width="105" height="104" viewBox="0 0 105 104" fill="none" xmlns="http://www.w3.org/2000/svg">
<circle cx="52.4023" cy="52" r="52" fill="#E6F4D7"/>
<g clip-path="url(#clip0_190_5554)">
<mask id="mask0_190_5554" style="mask-type:luminance" maskUnits="userSpaceOnUse" x="26" y="28" width="49" height="49">
<path d="M26.3359 28.333H74.3359V76.333H26.3359V28.333Z" fill="white"/>
</mask>
<g mask="url(#mask0_190_5554)">
<path d="M64.5887 48.1143V34.1428V33.0205C64.5887 30.9494 62.9097 29.2705 60.8387 29.2705H39.834C37.763 29.2705 36.084 30.9494 36.084 33.0205V71.6455C36.084 73.7166 37.763 75.3955 39.834 75.3955H60.8387C62.9097 75.3955 64.5887 73.7166 64.5887 71.6455V56.5518V48.1143Z" fill="#E6F4D7"/>
<path d="M64.5887 56.5518V71.6455C64.5887 73.7166 62.9097 75.3955 60.8387 75.3955H39.834C37.763 75.3955 36.084 73.7166 36.084 71.6455V33.0205C36.084 30.9494 37.763 29.2705 39.834 29.2705H60.8387C62.9097 29.2705 64.5887 30.9494 64.5887 33.0205V34.1428" stroke="#335015" stroke-width="1.875" stroke-miterlimit="10" stroke-linecap="round" stroke-linejoin="round"/>
<path d="M64.5879 34.1428V48.1143" stroke="#335015" stroke-width="1.875" stroke-miterlimit="10" stroke-linecap="round" stroke-linejoin="round"/>
<path d="M47.1523 33.0205H53.5212" stroke="#335015" stroke-width="1.875" stroke-miterlimit="10" stroke-linecap="round" stroke-linejoin="round"/>
<path d="M52.2109 69.7705C52.2109 70.8061 51.3715 71.6455 50.3359 71.6455C49.3004 71.6455 48.4609 70.8061 48.4609 69.7705C48.4609 68.7349 49.3004 67.8955 50.3359 67.8955C51.3715 67.8955 52.2109 68.7349 52.2109 69.7705Z" fill="#E6F4D7"/>
<path d="M52.2109 69.7705C52.2109 70.8061 51.3715 71.6455 50.3359 71.6455C49.3004 71.6455 48.4609 70.8061 48.4609 69.7705C48.4609 68.7349 49.3004 67.8955 50.3359 67.8955C51.3715 67.8955 52.2109 68.7349 52.2109 69.7705Z" stroke="#335015" stroke-width="1.875" stroke-miterlimit="10" stroke-linecap="round" stroke-linejoin="round"/>
<path d="M53.3106 43.1174C53.9185 42.4444 54.2871 41.5639 54.2871 40.5998C54.2871 38.4848 52.515 36.7703 50.3291 36.7703C48.1432 36.7703 46.3711 38.4848 46.3711 40.5998C46.3711 41.5639 46.7397 42.4444 47.3476 43.1174C47.485 43.2695 47.5816 43.4485 47.6355 43.6388C47.7039 43.8807 47.6465 44.1388 47.5016 44.344C47.1031 44.9085 46.8688 45.5973 46.8688 46.3408C46.8688 46.8446 46.9763 47.3232 47.1697 47.7552C47.6915 48.9209 47.984 50.1762 47.984 51.4534V52.3447H48.4553H50.3291H52.2028H52.6743V51.4811C52.6743 50.1963 52.9705 48.9339 53.4981 47.7623C53.6933 47.3285 53.802 46.8473 53.802 46.3408C53.802 45.5906 53.5636 44.8962 53.1585 44.3289C53.0062 44.1154 52.956 43.8446 53.0361 43.5949C53.0918 43.4209 53.1837 43.2578 53.3106 43.1174Z" fill="#E6F4D7"/>
<path d="M43.8969 42.1668C43.8969 41.0881 43.0223 40.2135 41.9436 40.2135C40.8647 40.2135 39.9902 41.0881 39.9902 42.1668C39.9902 43.2456 40.8647 44.1201 41.9436 44.1201C43.0223 44.1201 43.8969 43.2456 43.8969 42.1668Z" fill="#E6F4D7"/>
<path d="M56.7754 42.1668C56.7754 41.0881 57.65 40.2135 58.7287 40.2135C59.8075 40.2135 60.682 41.0881 60.682 42.1668C60.682 43.2456 59.8075 44.1201 58.7287 44.1201C57.65 44.1201 56.7754 43.2456 56.7754 42.1668Z" fill="#E6F4D7"/>
<path d="M53.3106 43.1174C53.9185 42.4444 54.2871 41.5639 54.2871 40.5998C54.2871 38.4848 52.515 36.7703 50.3291 36.7703C48.1432 36.7703 46.3711 38.4848 46.3711 40.5998C46.3711 41.5639 46.7397 42.4444 47.3476 43.1174C47.485 43.2695 47.5816 43.4485 47.6355 43.6388C47.7039 43.8807 47.6465 44.1388 47.5016 44.344C47.1031 44.9085 46.8688 45.5973 46.8688 46.3408C46.8688 46.8446 46.9763 47.3232 47.1697 47.7552C47.6915 48.9209 47.984 50.1762 47.984 51.4534V52.3447H48.4553H50.3291H52.2028H52.6743V51.4811C52.6743 50.1963 52.9705 48.9339 53.4981 47.7623C53.6933 47.3285 53.802 46.8473 53.802 46.3408C53.802 45.5906 53.5636 44.8962 53.1585 44.3289C53.0062 44.1154 52.956 43.8446 53.0361 43.5949C53.0918 43.4209 53.1837 43.2578 53.3106 43.1174Z" stroke="#335015" stroke-width="1.875" stroke-miterlimit="10" stroke-linecap="round" stroke-linejoin="round"/>
<path d="M43.8969 42.1668C43.8969 41.0881 43.0223 40.2135 41.9436 40.2135C40.8647 40.2135 39.9902 41.0881 39.9902 42.1668C39.9902 43.2456 40.8647 44.1201 41.9436 44.1201C43.0223 44.1201 43.8969 43.2456 43.8969 42.1668Z" stroke="#335015" stroke-width="1.875" stroke-miterlimit="10" stroke-linecap="round" stroke-linejoin="round"/>
<path d="M41.0942 40.4082L41.0231 40.2611C40.446 39.068 40.9099 37.6323 42.0759 37.0023C42.9208 36.5458 43.9536 36.6186 44.7261 37.1895L47.5976 39.3113C48.3909 39.8975 49.3511 40.2137 50.3372 40.2137" stroke="#335015" stroke-width="1.875" stroke-miterlimit="10" stroke-linecap="round" stroke-linejoin="round"/>
<path d="M56.7754 42.1668C56.7754 41.0881 57.65 40.2135 58.7287 40.2135C59.8075 40.2135 60.682 41.0881 60.682 42.1668C60.682 43.2456 59.8075 44.1201 58.7287 44.1201C57.65 44.1201 56.7754 43.2456 56.7754 42.1668Z" stroke="#335015" stroke-width="1.875" stroke-miterlimit="10" stroke-linecap="round" stroke-linejoin="round"/>
<path d="M59.5789 40.4082L59.6501 40.2611C60.2271 39.068 59.7632 37.6323 58.5973 37.0023C57.7523 36.5458 56.7196 36.6186 55.9471 37.1895L53.0755 39.3113C52.2823 39.8975 51.3221 40.2137 50.3359 40.2137" stroke="#335015" stroke-width="1.875" stroke-miterlimit="10" stroke-linecap="round" stroke-linejoin="round"/>
<path d="M41.8828 56.083H58.7283" stroke="#335015" stroke-width="1.875" stroke-miterlimit="10" stroke-linecap="round" stroke-linejoin="round"/>
<path d="M41.8828 59.833H58.7283" stroke="#335015" stroke-width="1.875" stroke-miterlimit="10" stroke-linecap="round" stroke-linejoin="round"/>
<path d="M41.8828 63.583H58.7283" stroke="#335015" stroke-width="1.875" stroke-miterlimit="10" stroke-linecap="round" stroke-linejoin="round"/>
</g>
</g>
<defs>
<clipPath id="clip0_190_5554">
<rect width="48" height="48" fill="white" transform="translate(26.3359 28.333)"/>
</clipPath>
</defs>
</svg>
