<svg width="105" height="104" viewBox="0 0 105 104" fill="none" xmlns="http://www.w3.org/2000/svg">
<circle cx="52.5" cy="52" r="52" fill="#CFF9FE"/>
<path d="M60.3481 49.7505C59.8839 49.7518 59.4315 49.8966 59.0528 50.1652C58.6742 50.4337 58.3879 50.8128 58.2331 51.2505H56.5306C56.4226 50.5845 56.1663 49.9514 55.7806 49.398L56.9806 48.1905C57.283 48.3347 57.6131 48.4115 57.9481 48.4155C58.5447 48.4149 59.1166 48.1775 59.5381 47.7555C59.831 47.4643 60.038 47.0982 60.1367 46.6972C60.2353 46.2962 60.2217 45.8758 60.0973 45.4821C59.9729 45.0883 59.7425 44.7364 59.4315 44.4648C59.1204 44.1933 58.7406 44.0125 58.3336 43.9425C57.9267 43.8724 57.5083 43.9156 57.1243 44.0675C56.7403 44.2194 56.4055 44.474 56.1566 44.8035C55.9076 45.133 55.7542 45.5246 55.713 45.9355C55.6718 46.3464 55.7445 46.7606 55.9231 47.133L54.7156 48.333C54.1621 47.9473 53.529 47.6909 52.8631 47.583V45.8655C53.3635 45.6885 53.7853 45.3404 54.0538 44.8826C54.3224 44.4248 54.4205 43.8868 54.3307 43.3637C54.241 42.8405 53.9692 42.366 53.5634 42.0239C53.1576 41.6818 52.6439 41.4941 52.1131 41.4941C51.5824 41.4941 51.0687 41.6818 50.6629 42.0239C50.2571 42.366 49.9853 42.8405 49.8955 43.3637C49.8058 43.8868 49.9038 44.4248 50.1724 44.8826C50.441 45.3404 50.8627 45.6885 51.3631 45.8655V47.568C50.6972 47.6759 50.0641 47.9323 49.5106 48.318L48.3031 47.118C48.5035 46.6989 48.5692 46.2281 48.4913 45.7702C48.4134 45.3123 48.1957 44.8897 47.8681 44.5605C47.6065 44.2986 47.2844 44.1052 46.9302 43.9976C46.576 43.89 46.2008 43.8715 45.8377 43.9436C45.4747 44.0157 45.135 44.1763 44.8489 44.4111C44.5627 44.6459 44.3389 44.9477 44.1973 45.2897C44.0557 45.6317 44.0006 46.0033 44.037 46.3717C44.0734 46.7401 44.2002 47.0938 44.406 47.4014C44.6118 47.7091 44.8903 47.9613 45.2169 48.1355C45.5434 48.3098 45.908 48.4008 46.2781 48.4005C46.6131 48.3965 46.9432 48.3197 47.2456 48.1755L48.4456 49.383C48.0599 49.9364 47.8036 50.5695 47.6956 51.2355H45.9631C45.7862 50.7351 45.4381 50.3133 44.9803 50.0447C44.5224 49.7762 43.9844 49.6781 43.4613 49.7679C42.9382 49.8576 42.4636 50.1294 42.1215 50.5352C41.7794 50.941 41.5918 51.4547 41.5918 51.9855C41.5918 52.5162 41.7794 53.0299 42.1215 53.4357C42.4636 53.8415 42.9382 54.1133 43.4613 54.2031C43.9844 54.2928 44.5224 54.1947 44.9803 53.9262C45.4381 53.6576 45.7862 53.2359 45.9631 52.7355H47.6656C47.7736 53.4014 48.0299 54.0345 48.4156 54.588L47.2156 55.7955C46.7966 55.5951 46.3258 55.5294 45.8679 55.6073C45.41 55.6851 44.9874 55.9028 44.6581 56.2305C44.3653 56.5216 44.1582 56.8877 44.0596 57.2887C43.9609 57.6897 43.9746 58.1101 44.0989 58.5038C44.2233 58.8976 44.4537 59.2495 44.7648 59.5211C45.0759 59.7927 45.4557 59.9734 45.8626 60.0435C46.2696 60.1135 46.688 60.0703 47.072 59.9184C47.456 59.7665 47.7907 59.5119 48.0397 59.1824C48.2886 58.853 48.4421 58.4613 48.4832 58.0505C48.5244 57.6396 48.4517 57.2253 48.2731 56.853L49.4806 55.653C50.0341 56.0387 50.6672 56.295 51.3331 56.403V58.1055C50.8327 58.2824 50.411 58.6305 50.1424 59.0883C49.8738 59.5461 49.7758 60.0841 49.8655 60.6073C49.9553 61.1304 50.2271 61.6049 50.6329 61.947C51.0387 62.2891 51.5524 62.4768 52.0831 62.4768C52.6139 62.4768 53.1276 62.2891 53.5334 61.947C53.9392 61.6049 54.211 61.1304 54.3007 60.6073C54.3905 60.0841 54.2924 59.5461 54.0238 59.0883C53.7553 58.6305 53.3335 58.2824 52.8331 58.1055V56.433C53.499 56.325 54.1321 56.0687 54.6856 55.683L55.8931 56.883C55.6928 57.302 55.627 57.7728 55.7049 58.2307C55.7828 58.6886 56.0005 59.1112 56.3281 59.4405C56.6193 59.7333 56.9854 59.9404 57.3864 60.039C57.7873 60.1376 58.2077 60.124 58.6015 59.9996C58.9953 59.8752 59.3472 59.6449 59.6188 59.3338C59.8903 59.0227 60.071 58.6429 60.1411 58.236C60.2112 57.829 60.1679 57.4106 60.0161 57.0266C59.8642 56.6426 59.6096 56.3078 59.2801 56.0589C58.9506 55.81 58.559 55.6565 58.1481 55.6153C57.7372 55.5742 57.3229 55.6469 56.9506 55.8255L55.7506 54.618C56.1363 54.0645 56.3926 53.4314 56.5006 52.7655H58.2031C58.3427 53.1516 58.5854 53.4921 58.9047 53.7502C59.224 54.0083 59.6079 54.1741 60.0147 54.2296C60.4215 54.2851 60.8357 54.2283 61.2125 54.0652C61.5893 53.9022 61.9144 53.6392 62.1524 53.3046C62.3904 52.9701 62.5323 52.5768 62.5628 52.1673C62.5933 51.7579 62.5111 51.3479 62.3253 50.9818C62.1394 50.6157 61.857 50.3074 61.5084 50.0904C61.1599 49.8733 60.7587 49.7558 60.3481 49.7505Z" fill="#155B75"/>
<path d="M65.5976 52.7499H68.7401C68.9227 53.4569 69.3568 54.0731 69.9611 54.4829C70.5655 54.8927 71.2985 55.068 72.0229 54.976C72.7472 54.884 73.4132 54.531 73.8959 53.9831C74.3786 53.4352 74.6449 52.7301 74.6449 51.9999C74.6449 51.2698 74.3786 50.5646 73.8959 50.0168C73.4132 49.4689 72.7472 49.1159 72.0229 49.0238C71.2985 48.9318 70.5655 49.1072 69.9611 49.517C69.3568 49.9268 68.9227 50.5429 68.7401 51.2499H65.5976C65.4248 48.1863 64.2072 45.2745 62.1476 42.9999L66.2126 38.9349C67.2759 39.729 68.6004 40.0909 69.9197 39.948C71.239 39.805 72.4552 39.1677 73.3237 38.1643C74.1921 37.1609 74.6484 35.8658 74.6007 34.5396C74.5529 33.2135 74.0047 31.9546 73.0664 31.0162C72.128 30.0779 70.8691 29.5297 69.5429 29.4819C68.2168 29.4342 66.9217 29.8904 65.9183 30.7589C64.9149 31.6273 64.2776 32.8436 64.1346 34.1629C63.9916 35.4822 64.3536 36.8067 65.1476 37.8699L61.0976 41.9499C58.8178 39.904 55.9065 38.6999 52.8476 38.5374V35.3949C53.5546 35.2124 54.1708 34.7783 54.5806 34.1739C54.9904 33.5696 55.1657 32.8365 55.0737 32.1122C54.9817 31.3878 54.6287 30.7219 54.0808 30.2392C53.5329 29.7565 52.8278 29.4902 52.0976 29.4902C51.3674 29.4902 50.6623 29.7565 50.1145 30.2392C49.5666 30.7219 49.2135 31.3878 49.1215 32.1122C49.0295 32.8365 49.2049 33.5696 49.6147 34.1739C50.0245 34.7783 50.6406 35.2124 51.3476 35.3949V38.5374C48.2887 38.6999 45.3775 39.904 43.0976 41.9499L39.0476 37.8849C39.8417 36.8217 40.2036 35.4972 40.0606 34.1779C39.9177 32.8586 39.2804 31.6423 38.277 30.7739C37.2736 29.9054 35.9785 29.4492 34.6523 29.4969C33.3262 29.5447 32.0673 30.0929 31.1289 31.0312C30.1905 31.9696 29.6423 33.2285 29.5946 34.5546C29.5469 35.8808 30.0031 37.1759 30.8716 38.1793C31.74 39.1827 32.9562 39.82 34.2756 39.963C35.5949 40.1059 36.9194 39.744 37.9826 38.9499L42.0476 42.9999C40.0017 45.2798 38.7975 48.191 38.6351 51.2499H35.4926C35.3101 50.5429 34.876 49.9268 34.2716 49.517C33.6673 49.1072 32.9342 48.9318 32.2099 49.0238C31.4855 49.1159 30.8196 49.4689 30.3369 50.0168C29.8542 50.5646 29.5879 51.2698 29.5879 51.9999C29.5879 52.7301 29.8542 53.4352 30.3369 53.9831C30.8196 54.531 31.4855 54.884 32.2099 54.976C32.9342 55.068 33.6673 54.8927 34.2716 54.4829C34.876 54.0731 35.3101 53.4569 35.4926 52.7499H38.6351C38.7975 55.8089 40.0017 58.7201 42.0476 60.9999L37.9826 65.0499C36.9194 64.2559 35.5949 63.8939 34.2756 64.0369C32.9562 64.1799 31.74 64.8172 30.8716 65.8206C30.0031 66.824 29.5469 68.1191 29.5946 69.4452C29.6423 70.7714 30.1905 72.0303 31.1289 72.9687C32.0673 73.907 33.3262 74.4552 34.6523 74.503C35.9785 74.5507 37.2736 74.0945 38.277 73.226C39.2804 72.3575 39.9177 71.1413 40.0606 69.822C40.2036 68.5027 39.8417 67.1782 39.0476 66.1149L43.0976 62.0499C45.3722 64.1095 48.284 65.3271 51.3476 65.4999V68.6424C50.6406 68.825 50.0245 69.2591 49.6147 69.8634C49.2049 70.4678 49.0295 71.2008 49.1215 71.9252C49.2135 72.6496 49.5666 73.3155 50.1145 73.7982C50.6623 74.2809 51.3674 74.5472 52.0976 74.5472C52.8278 74.5472 53.5329 74.2809 54.0808 73.7982C54.6287 73.3155 54.9817 72.6496 55.0737 71.9252C55.1657 71.2008 54.9904 70.4678 54.5806 69.8634C54.1708 69.2591 53.5546 68.825 52.8476 68.6424V65.4999C55.9112 65.3271 58.823 64.1095 61.0976 62.0499L65.1626 66.1149C64.3686 67.1782 64.0066 68.5027 64.1496 69.822C64.2926 71.1413 64.9299 72.3575 65.9333 73.226C66.9367 74.0945 68.2318 74.5507 69.5579 74.503C70.8841 74.4552 72.143 73.907 73.0814 72.9687C74.0197 72.0303 74.5679 70.7714 74.6157 69.4452C74.6634 68.1191 74.2071 66.824 73.3387 65.8206C72.4702 64.8172 71.254 64.1799 69.9347 64.0369C68.6154 63.8939 67.2909 64.2559 66.2276 65.0499L62.1476 60.9999C64.2072 58.7253 65.4248 55.8135 65.5976 52.7499ZM52.0976 63.9999C49.7243 63.9999 47.4042 63.2962 45.4308 61.9776C43.4574 60.659 41.9193 58.7849 41.0111 56.5921C40.1028 54.3994 39.8652 51.9866 40.3282 49.6589C40.7912 47.3311 41.9341 45.1929 43.6123 43.5147C45.2906 41.8364 47.4288 40.6935 49.7565 40.2305C52.0843 39.7675 54.4971 40.0051 56.6898 40.9134C58.8825 41.8216 60.7567 43.3597 62.0753 45.3331C63.3938 47.3065 64.0976 49.6266 64.0976 51.9999C64.0976 55.1825 62.8333 58.2348 60.5829 60.4852C58.3325 62.7357 55.2802 63.9999 52.0976 63.9999Z" fill="#155B75"/>
</svg>
