<svg width="85" height="26" viewBox="0 0 85 26" fill="none" xmlns="http://www.w3.org/2000/svg">
<mask id="path-1-outside-1_190_294" maskUnits="userSpaceOnUse" x="-2" y="-2" width="89" height="29" fill="black">
<rect fill="white" x="-2" y="-2" width="89" height="29"/>
<path d="M11.96 14.24C12.2533 12.1067 12.4667 9.96 12.6 7.8C12.7333 5.64 12.8 4.24 12.8 3.6C12.8 2.93333 12.8 2.54667 12.8 2.44L12.76 0.6C15.7733 2.2 18.4267 3 20.72 3C20.32 8.73333 19.28 13.96 17.6 18.68C17.2267 19.72 16.92 20.4667 16.68 20.92L16.32 21.6C15.36 21.6 14.3467 21.7733 13.28 22.12C12.2133 22.44 11.3867 22.7733 10.8 23.12L9.88 23.64C10.44 22.0133 10.9467 20.0267 11.4 17.68C9.90667 18.08 8.58667 18.6133 7.44 19.28L6.84 24.36C6.49333 24.2533 6.04 24.1067 5.48 23.92C4.92 23.7333 4.02667 23.28 2.8 22.56C1.57333 21.8133 0.64 21 2.98023e-08 20.12C0.213333 17.3467 0.586667 14.76 1.12 12.36C1.65333 9.93333 2.13333 8.2 2.56 7.16L3.24 5.6C4.68 4.64 7.04 3.92 10.32 3.44C9.38667 7.28 8.62667 11.1733 8.04 15.12C9.50667 14.9867 10.8133 14.6933 11.96 14.24ZM38.5041 21.52C37.1974 22.4533 35.7174 23.0933 34.0641 23.44C32.4107 23.8133 31.0374 24.0267 29.9441 24.08C28.8507 24.1333 27.8374 24.16 26.9041 24.16C25.9974 24.16 24.8907 24 23.5841 23.68C23.2107 23.4933 22.9041 23.32 22.6641 23.16C22.4241 23.0267 21.9841 22.6667 21.3441 22.08C20.7041 21.4667 20.2241 20.8267 19.9041 20.16C20.7041 18.9867 21.4907 17.6533 22.2641 16.16C23.0641 14.6667 23.6507 13.4533 24.0241 12.52L24.6241 11.16C23.2641 11.32 22.1574 11.64 21.3041 12.12L20.9041 12.36C21.0641 10.76 21.3441 9.29333 21.7441 7.96C22.1441 6.6 22.5041 5.64 22.8241 5.08L23.3041 4.28C27.3574 3.02667 31.6641 2.4 36.2241 2.4C36.3307 2.45333 36.4774 2.52 36.6641 2.6C36.8774 2.68 37.2774 2.92 37.8641 3.32C38.4507 3.69333 38.9974 4.12 39.5041 4.6C40.0374 5.08 40.6107 5.77333 41.2241 6.68C41.8641 7.58667 42.3974 8.57333 42.8241 9.64C42.2907 10.8133 41.5841 11.9067 40.7041 12.92C39.8507 13.9333 39.1174 14.6533 38.5041 15.08L37.6241 15.72L41.1841 18.04C40.7307 19.4 39.8374 20.56 38.5041 21.52ZM37.2641 9.96C36.3041 9.90667 35.2774 9.88 34.1841 9.88C33.1174 9.88 31.9841 9.90667 30.7841 9.96C30.5974 10.6 30.0774 12.12 29.2241 14.52C30.4507 14.52 31.5707 14.3733 32.5841 14.08C33.5974 13.76 34.3841 13.3733 34.9441 12.92C36.0907 12.0133 36.7974 11.1867 37.0641 10.44L37.2641 9.96ZM34.6241 18.84C34.5441 18.7333 34.3974 18.6 34.1841 18.44C33.9974 18.28 33.4641 18.08 32.5841 17.84C31.7307 17.5733 30.7174 17.44 29.5441 17.44C29.0374 18.5867 28.4241 19.6667 27.7041 20.68C29.0641 20.6533 30.3174 20.4933 31.4641 20.2C32.6107 19.88 33.4241 19.5733 33.9041 19.28L34.6241 18.84ZM53.9538 2.2C53.7671 5 53.6738 6.85333 53.6738 7.76C53.6738 10.48 53.7404 12.2533 53.8738 13.08L54.0338 14.16L59.1538 0.839999C61.3938 2.14667 63.9271 3.08 66.7538 3.64C66.6471 6.01333 66.3138 8.68 65.7538 11.64C65.1938 14.6 64.6604 16.96 64.1538 18.72L63.3938 21.36C61.9804 22.2933 59.7004 22.9867 56.5538 23.44C57.1404 21.3867 57.6071 19.4133 57.9538 17.52C58.3271 15.6267 58.5538 14.2533 58.6338 13.4L58.7138 12.08C58.4471 12.64 58.0871 13.36 57.6338 14.24C57.2071 15.12 56.3938 16.4933 55.1938 18.36C54.0204 20.2 52.9671 21.52 52.0338 22.32C51.5271 21.3067 51.0871 19.9467 50.7138 18.24C50.3404 16.5333 50.0871 15.08 49.9538 13.88L49.7538 12.08C49.5938 12.4 49.3804 12.8667 49.1138 13.48C48.8738 14.0933 48.5404 15.5467 48.1138 17.84C47.7138 20.1333 47.5138 22.6267 47.5138 25.32C47.1938 25.16 46.7671 24.9333 46.2338 24.64C45.7271 24.3467 44.9671 23.76 43.9538 22.88C42.9404 22 42.2604 21.1333 41.9138 20.28C42.1538 17.48 42.5538 14.8 43.1138 12.24C43.6738 9.65333 44.1804 7.77333 44.6338 6.6L45.2738 4.8C46.3404 4.21333 47.7004 3.66667 49.3538 3.16C51.0338 2.62667 52.5671 2.30667 53.9538 2.2ZM84.6784 16.04C84.6784 17.9867 83.4384 19.68 80.9584 21.12C78.4784 22.5333 74.5451 23.52 69.1584 24.08C68.9718 23.9467 68.6784 23.6267 68.2784 23.12C67.8784 22.6133 67.5318 22.12 67.2384 21.64C66.4651 20.36 65.8918 18.8667 65.5184 17.16L69.2784 17.72C70.5051 17.8533 71.5851 17.92 72.5184 17.92C75.4784 17.92 76.9584 17.2667 76.9584 15.96C73.3318 15.64 70.7584 15.1467 69.2384 14.48C67.7184 13.7867 66.9584 12.5733 66.9584 10.84C66.9584 8.30667 68.4651 6.28 71.4784 4.76C74.4918 3.24 78.5718 2.48 83.7184 2.48L84.9584 11C82.1851 10.2 78.3984 9.73333 73.5984 9.6C74.1584 10.4 75.0918 11.0267 76.3984 11.48C77.7051 11.9333 78.9451 12.24 80.1184 12.4C81.3184 12.56 82.3718 12.9333 83.2784 13.52C84.2118 14.1067 84.6784 14.9467 84.6784 16.04Z"/>
</mask>
<path d="M11.96 14.24C12.2533 12.1067 12.4667 9.96 12.6 7.8C12.7333 5.64 12.8 4.24 12.8 3.6C12.8 2.93333 12.8 2.54667 12.8 2.44L12.76 0.6C15.7733 2.2 18.4267 3 20.72 3C20.32 8.73333 19.28 13.96 17.6 18.68C17.2267 19.72 16.92 20.4667 16.68 20.92L16.32 21.6C15.36 21.6 14.3467 21.7733 13.28 22.12C12.2133 22.44 11.3867 22.7733 10.8 23.12L9.88 23.64C10.44 22.0133 10.9467 20.0267 11.4 17.68C9.90667 18.08 8.58667 18.6133 7.44 19.28L6.84 24.36C6.49333 24.2533 6.04 24.1067 5.48 23.92C4.92 23.7333 4.02667 23.28 2.8 22.56C1.57333 21.8133 0.64 21 2.98023e-08 20.12C0.213333 17.3467 0.586667 14.76 1.12 12.36C1.65333 9.93333 2.13333 8.2 2.56 7.16L3.24 5.6C4.68 4.64 7.04 3.92 10.32 3.44C9.38667 7.28 8.62667 11.1733 8.04 15.12C9.50667 14.9867 10.8133 14.6933 11.96 14.24ZM38.5041 21.52C37.1974 22.4533 35.7174 23.0933 34.0641 23.44C32.4107 23.8133 31.0374 24.0267 29.9441 24.08C28.8507 24.1333 27.8374 24.16 26.9041 24.16C25.9974 24.16 24.8907 24 23.5841 23.68C23.2107 23.4933 22.9041 23.32 22.6641 23.16C22.4241 23.0267 21.9841 22.6667 21.3441 22.08C20.7041 21.4667 20.2241 20.8267 19.9041 20.16C20.7041 18.9867 21.4907 17.6533 22.2641 16.16C23.0641 14.6667 23.6507 13.4533 24.0241 12.52L24.6241 11.16C23.2641 11.32 22.1574 11.64 21.3041 12.12L20.9041 12.36C21.0641 10.76 21.3441 9.29333 21.7441 7.96C22.1441 6.6 22.5041 5.64 22.8241 5.08L23.3041 4.28C27.3574 3.02667 31.6641 2.4 36.2241 2.4C36.3307 2.45333 36.4774 2.52 36.6641 2.6C36.8774 2.68 37.2774 2.92 37.8641 3.32C38.4507 3.69333 38.9974 4.12 39.5041 4.6C40.0374 5.08 40.6107 5.77333 41.2241 6.68C41.8641 7.58667 42.3974 8.57333 42.8241 9.64C42.2907 10.8133 41.5841 11.9067 40.7041 12.92C39.8507 13.9333 39.1174 14.6533 38.5041 15.08L37.6241 15.72L41.1841 18.04C40.7307 19.4 39.8374 20.56 38.5041 21.52ZM37.2641 9.96C36.3041 9.90667 35.2774 9.88 34.1841 9.88C33.1174 9.88 31.9841 9.90667 30.7841 9.96C30.5974 10.6 30.0774 12.12 29.2241 14.52C30.4507 14.52 31.5707 14.3733 32.5841 14.08C33.5974 13.76 34.3841 13.3733 34.9441 12.92C36.0907 12.0133 36.7974 11.1867 37.0641 10.44L37.2641 9.96ZM34.6241 18.84C34.5441 18.7333 34.3974 18.6 34.1841 18.44C33.9974 18.28 33.4641 18.08 32.5841 17.84C31.7307 17.5733 30.7174 17.44 29.5441 17.44C29.0374 18.5867 28.4241 19.6667 27.7041 20.68C29.0641 20.6533 30.3174 20.4933 31.4641 20.2C32.6107 19.88 33.4241 19.5733 33.9041 19.28L34.6241 18.84ZM53.9538 2.2C53.7671 5 53.6738 6.85333 53.6738 7.76C53.6738 10.48 53.7404 12.2533 53.8738 13.08L54.0338 14.16L59.1538 0.839999C61.3938 2.14667 63.9271 3.08 66.7538 3.64C66.6471 6.01333 66.3138 8.68 65.7538 11.64C65.1938 14.6 64.6604 16.96 64.1538 18.72L63.3938 21.36C61.9804 22.2933 59.7004 22.9867 56.5538 23.44C57.1404 21.3867 57.6071 19.4133 57.9538 17.52C58.3271 15.6267 58.5538 14.2533 58.6338 13.4L58.7138 12.08C58.4471 12.64 58.0871 13.36 57.6338 14.24C57.2071 15.12 56.3938 16.4933 55.1938 18.36C54.0204 20.2 52.9671 21.52 52.0338 22.32C51.5271 21.3067 51.0871 19.9467 50.7138 18.24C50.3404 16.5333 50.0871 15.08 49.9538 13.88L49.7538 12.08C49.5938 12.4 49.3804 12.8667 49.1138 13.48C48.8738 14.0933 48.5404 15.5467 48.1138 17.84C47.7138 20.1333 47.5138 22.6267 47.5138 25.32C47.1938 25.16 46.7671 24.9333 46.2338 24.64C45.7271 24.3467 44.9671 23.76 43.9538 22.88C42.9404 22 42.2604 21.1333 41.9138 20.28C42.1538 17.48 42.5538 14.8 43.1138 12.24C43.6738 9.65333 44.1804 7.77333 44.6338 6.6L45.2738 4.8C46.3404 4.21333 47.7004 3.66667 49.3538 3.16C51.0338 2.62667 52.5671 2.30667 53.9538 2.2ZM84.6784 16.04C84.6784 17.9867 83.4384 19.68 80.9584 21.12C78.4784 22.5333 74.5451 23.52 69.1584 24.08C68.9718 23.9467 68.6784 23.6267 68.2784 23.12C67.8784 22.6133 67.5318 22.12 67.2384 21.64C66.4651 20.36 65.8918 18.8667 65.5184 17.16L69.2784 17.72C70.5051 17.8533 71.5851 17.92 72.5184 17.92C75.4784 17.92 76.9584 17.2667 76.9584 15.96C73.3318 15.64 70.7584 15.1467 69.2384 14.48C67.7184 13.7867 66.9584 12.5733 66.9584 10.84C66.9584 8.30667 68.4651 6.28 71.4784 4.76C74.4918 3.24 78.5718 2.48 83.7184 2.48L84.9584 11C82.1851 10.2 78.3984 9.73333 73.5984 9.6C74.1584 10.4 75.0918 11.0267 76.3984 11.48C77.7051 11.9333 78.9451 12.24 80.1184 12.4C81.3184 12.56 82.3718 12.9333 83.2784 13.52C84.2118 14.1067 84.6784 14.9467 84.6784 16.04Z" fill="url(#paint0_linear_190_294)"/>
<path d="M11.96 14.24L12.3277 15.17L12.8711 14.9551L12.9507 14.3762L11.96 14.24ZM12.8 2.44H13.8V2.42913L13.7998 2.41827L12.8 2.44ZM12.76 0.6L13.229 -0.283217L11.7232 -1.08275L11.7602 0.621734L12.76 0.6ZM20.72 3L21.7176 3.0696L21.7922 2H20.72V3ZM17.6 18.68L18.5412 19.0179L18.5421 19.0153L17.6 18.68ZM16.68 20.92L15.7962 20.4521L15.7962 20.4521L16.68 20.92ZM16.32 21.6V22.6H16.9221L17.2038 22.0679L16.32 21.6ZM13.28 22.12L13.5673 23.0778L13.5783 23.0746L13.5891 23.071L13.28 22.12ZM10.8 23.12L11.2921 23.9906L11.3004 23.9858L11.3087 23.9809L10.8 23.12ZM9.88 23.64L8.93446 23.3145L8.07591 25.8084L10.3721 24.5106L9.88 23.64ZM11.4 17.68L12.3818 17.8697L12.685 16.3006L11.1413 16.7141L11.4 17.68ZM7.44 19.28L6.93738 18.4155L6.5055 18.6666L6.4469 19.1627L7.44 19.28ZM6.84 24.36L6.54591 25.3158L7.6924 25.6685L7.8331 24.4773L6.84 24.36ZM5.48 23.92L5.16377 24.8687L5.48 23.92ZM2.8 22.56L2.28005 23.4142L2.28689 23.4184L2.2938 23.4224L2.8 22.56ZM0 20.12L-0.997054 20.0433L-1.02529 20.4104L-0.808736 20.7082L0 20.12ZM1.12 12.36L2.09619 12.5769L2.09669 12.5747L1.12 12.36ZM2.56 7.16L1.6433 6.76041L1.63896 6.77038L1.63483 6.78044L2.56 7.16ZM3.24 5.6L2.6853 4.76795L2.44075 4.93098L2.3233 5.20041L3.24 5.6ZM10.32 3.44L11.2917 3.67618L11.6418 2.23592L10.1752 2.45054L10.32 3.44ZM8.04 15.12L7.05087 14.973L6.86386 16.231L8.13054 16.1159L8.04 15.12ZM12.9507 14.3762C13.2474 12.218 13.4632 10.0464 13.5981 7.86161L11.6019 7.73839C11.4701 9.87356 11.2592 11.9953 10.9693 14.1038L12.9507 14.3762ZM13.5981 7.86161C13.7309 5.70947 13.8 4.27683 13.8 3.6H11.8C11.8 4.20317 11.7357 5.57053 11.6019 7.73839L13.5981 7.86161ZM13.8 3.6C13.8 3.5987 13.8 3.5974 13.8 3.5961C13.8 3.5948 13.8 3.5935 13.8 3.5922C13.8 3.5909 13.8 3.58961 13.8 3.58831C13.8 3.58701 13.8 3.58572 13.8 3.58443C13.8 3.58313 13.8 3.58184 13.8 3.58055C13.8 3.57926 13.8 3.57797 13.8 3.57668C13.8 3.57539 13.8 3.5741 13.8 3.57281C13.8 3.57153 13.8 3.57024 13.8 3.56895C13.8 3.56767 13.8 3.56639 13.8 3.5651C13.8 3.56382 13.8 3.56254 13.8 3.56126C13.8 3.55998 13.8 3.5587 13.8 3.55742C13.8 3.55614 13.8 3.55486 13.8 3.55359C13.8 3.55231 13.8 3.55103 13.8 3.54976C13.8 3.54849 13.8 3.54721 13.8 3.54594C13.8 3.54467 13.8 3.5434 13.8 3.54213C13.8 3.54086 13.8 3.53959 13.8 3.53832C13.8 3.53705 13.8 3.53578 13.8 3.53452C13.8 3.53325 13.8 3.53199 13.8 3.53073C13.8 3.52946 13.8 3.5282 13.8 3.52694C13.8 3.52568 13.8 3.52442 13.8 3.52316C13.8 3.5219 13.8 3.52064 13.8 3.51938C13.8 3.51812 13.8 3.51687 13.8 3.51561C13.8 3.51436 13.8 3.5131 13.8 3.51185C13.8 3.5106 13.8 3.50935 13.8 3.5081C13.8 3.50684 13.8 3.50559 13.8 3.50435C13.8 3.5031 13.8 3.50185 13.8 3.5006C13.8 3.49936 13.8 3.49811 13.8 3.49687C13.8 3.49562 13.8 3.49438 13.8 3.49314C13.8 3.49189 13.8 3.49065 13.8 3.48941C13.8 3.48817 13.8 3.48693 13.8 3.4857C13.8 3.48446 13.8 3.48322 13.8 3.48198C13.8 3.48075 13.8 3.47951 13.8 3.47828C13.8 3.47705 13.8 3.47581 13.8 3.47458C13.8 3.47335 13.8 3.47212 13.8 3.47089C13.8 3.46966 13.8 3.46843 13.8 3.46721C13.8 3.46598 13.8 3.46475 13.8 3.46353C13.8 3.4623 13.8 3.46108 13.8 3.45985C13.8 3.45863 13.8 3.45741 13.8 3.45619C13.8 3.45497 13.8 3.45375 13.8 3.45253C13.8 3.45131 13.8 3.45009 13.8 3.44888C13.8 3.44766 13.8 3.44644 13.8 3.44523C13.8 3.44402 13.8 3.4428 13.8 3.44159C13.8 3.44038 13.8 3.43917 13.8 3.43796C13.8 3.43675 13.8 3.43554 13.8 3.43433C13.8 3.43312 13.8 3.43191 13.8 3.43071C13.8 3.4295 13.8 3.4283 13.8 3.42709C13.8 3.42589 13.8 3.42469 13.8 3.42348C13.8 3.42228 13.8 3.42108 13.8 3.41988C13.8 3.41868 13.8 3.41748 13.8 3.41629C13.8 3.41509 13.8 3.41389 13.8 3.4127C13.8 3.4115 13.8 3.41031 13.8 3.40911C13.8 3.40792 13.8 3.40673 13.8 3.40554C13.8 3.40435 13.8 3.40316 13.8 3.40197C13.8 3.40078 13.8 3.39959 13.8 3.39841C13.8 3.39722 13.8 3.39603 13.8 3.39485C13.8 3.39366 13.8 3.39248 13.8 3.3913C13.8 3.39012 13.8 3.38893 13.8 3.38775C13.8 3.38657 13.8 3.38539 13.8 3.38422C13.8 3.38304 13.8 3.38186 13.8 3.38068C13.8 3.37951 13.8 3.37833 13.8 3.37716C13.8 3.37599 13.8 3.37481 13.8 3.37364C13.8 3.37247 13.8 3.3713 13.8 3.37013C13.8 3.36896 13.8 3.36779 13.8 3.36662C13.8 3.36546 13.8 3.36429 13.8 3.36312C13.8 3.36196 13.8 3.36079 13.8 3.35963C13.8 3.35847 13.8 3.35731 13.8 3.35614C13.8 3.35498 13.8 3.35382 13.8 3.35266C13.8 3.35151 13.8 3.35035 13.8 3.34919C13.8 3.34803 13.8 3.34688 13.8 3.34572C13.8 3.34457 13.8 3.34342 13.8 3.34226C13.8 3.34111 13.8 3.33996 13.8 3.33881C13.8 3.33766 13.8 3.33651 13.8 3.33536C13.8 3.33421 13.8 3.33306 13.8 3.33192C13.8 3.33077 13.8 3.32963 13.8 3.32848C13.8 3.32734 13.8 3.3262 13.8 3.32505C13.8 3.32391 13.8 3.32277 13.8 3.32163C13.8 3.32049 13.8 3.31935 13.8 3.31822C13.8 3.31708 13.8 3.31594 13.8 3.31481C13.8 3.31367 13.8 3.31254 13.8 3.3114C13.8 3.31027 13.8 3.30914 13.8 3.30801C13.8 3.30688 13.8 3.30575 13.8 3.30462C13.8 3.30349 13.8 3.30236 13.8 3.30123C13.8 3.30011 13.8 3.29898 13.8 3.29786C13.8 3.29673 13.8 3.29561 13.8 3.29448C13.8 3.29336 13.8 3.29224 13.8 3.29112C13.8 3.29 13.8 3.28888 13.8 3.28776C13.8 3.28664 13.8 3.28553 13.8 3.28441C13.8 3.28329 13.8 3.28218 13.8 3.28106C13.8 3.27995 13.8 3.27884 13.8 3.27772C13.8 3.27661 13.8 3.2755 13.8 3.27439C13.8 3.27328 13.8 3.27217 13.8 3.27107C13.8 3.26996 13.8 3.26885 13.8 3.26775C13.8 3.26664 13.8 3.26554 13.8 3.26443C13.8 3.26333 13.8 3.26223 13.8 3.26113C13.8 3.26002 13.8 3.25892 13.8 3.25782C13.8 3.25673 13.8 3.25563 13.8 3.25453C13.8 3.25343 13.8 3.25234 13.8 3.25124C13.8 3.25015 13.8 3.24905 13.8 3.24796C13.8 3.24687 13.8 3.24578 13.8 3.24469C13.8 3.2436 13.8 3.24251 13.8 3.24142C13.8 3.24033 13.8 3.23924 13.8 3.23816C13.8 3.23707 13.8 3.23598 13.8 3.2349C13.8 3.23382 13.8 3.23273 13.8 3.23165C13.8 3.23057 13.8 3.22949 13.8 3.22841C13.8 3.22733 13.8 3.22625 13.8 3.22517C13.8 3.22409 13.8 3.22302 13.8 3.22194C13.8 3.22086 13.8 3.21979 13.8 3.21872C13.8 3.21764 13.8 3.21657 13.8 3.2155C13.8 3.21443 13.8 3.21336 13.8 3.21229C13.8 3.21122 13.8 3.21015 13.8 3.20908C13.8 3.20802 13.8 3.20695 13.8 3.20589C13.8 3.20482 13.8 3.20376 13.8 3.20269C13.8 3.20163 13.8 3.20057 13.8 3.19951C13.8 3.19845 13.8 3.19739 13.8 3.19633C13.8 3.19527 13.8 3.19421 13.8 3.19316C13.8 3.1921 13.8 3.19105 13.8 3.18999C13.8 3.18894 13.8 3.18788 13.8 3.18683C13.8 3.18578 13.8 3.18473 13.8 3.18368C13.8 3.18263 13.8 3.18158 13.8 3.18053C13.8 3.17948 13.8 3.17844 13.8 3.17739C13.8 3.17635 13.8 3.1753 13.8 3.17426C13.8 3.17321 13.8 3.17217 13.8 3.17113C13.8 3.17009 13.8 3.16905 13.8 3.16801C13.8 3.16697 13.8 3.16593 13.8 3.16489C13.8 3.16386 13.8 3.16282 13.8 3.16179C13.8 3.16075 13.8 3.15972 13.8 3.15868C13.8 3.15765 13.8 3.15662 13.8 3.15559C13.8 3.15456 13.8 3.15353 13.8 3.1525C13.8 3.15147 13.8 3.15044 13.8 3.14942C13.8 3.14839 13.8 3.14736 13.8 3.14634C13.8 3.14532 13.8 3.14429 13.8 3.14327C13.8 3.14225 13.8 3.14123 13.8 3.14021C13.8 3.13919 13.8 3.13817 13.8 3.13715C13.8 3.13613 13.8 3.13511 13.8 3.1341C13.8 3.13308 13.8 3.13207 13.8 3.13105C13.8 3.13004 13.8 3.12903 13.8 3.12802C13.8 3.127 13.8 3.12599 13.8 3.12498C13.8 3.12398 13.8 3.12297 13.8 3.12196C13.8 3.12095 13.8 3.11995 13.8 3.11894C13.8 3.11794 13.8 3.11693 13.8 3.11593C13.8 3.11493 13.8 3.11392 13.8 3.11292C13.8 3.11192 13.8 3.11092 13.8 3.10992C13.8 3.10893 13.8 3.10793 13.8 3.10693C13.8 3.10593 13.8 3.10494 13.8 3.10394C13.8 3.10295 13.8 3.10196 13.8 3.10096C13.8 3.09997 13.8 3.09898 13.8 3.09799C13.8 3.097 13.8 3.09601 13.8 3.09502C13.8 3.09403 13.8 3.09305 13.8 3.09206C13.8 3.09108 13.8 3.09009 13.8 3.08911C13.8 3.08812 13.8 3.08714 13.8 3.08616C13.8 3.08518 13.8 3.0842 13.8 3.08322C13.8 3.08224 13.8 3.08126 13.8 3.08028C13.8 3.0793 13.8 3.07833 13.8 3.07735C13.8 3.07638 13.8 3.0754 13.8 3.07443C13.8 3.07346 13.8 3.07249 13.8 3.07151C13.8 3.07054 13.8 3.06957 13.8 3.0686C13.8 3.06764 13.8 3.06667 13.8 3.0657C13.8 3.06473 13.8 3.06377 13.8 3.0628C13.8 3.06184 13.8 3.06088 13.8 3.05991C13.8 3.05895 13.8 3.05799 13.8 3.05703C13.8 3.05607 13.8 3.05511 13.8 3.05415C13.8 3.05319 13.8 3.05224 13.8 3.05128C13.8 3.05033 13.8 3.04937 13.8 3.04842C13.8 3.04746 13.8 3.04651 13.8 3.04556C13.8 3.04461 13.8 3.04366 13.8 3.04271C13.8 3.04176 13.8 3.04081 13.8 3.03986C13.8 3.03891 13.8 3.03797 13.8 3.03702C13.8 3.03608 13.8 3.03513 13.8 3.03419C13.8 3.03325 13.8 3.0323 13.8 3.03136C13.8 3.03042 13.8 3.02948 13.8 3.02854C13.8 3.0276 13.8 3.02667 13.8 3.02573C13.8 3.02479 13.8 3.02386 13.8 3.02292C13.8 3.02199 13.8 3.02105 13.8 3.02012C13.8 3.01919 13.8 3.01826 13.8 3.01733C13.8 3.0164 13.8 3.01547 13.8 3.01454C13.8 3.01361 13.8 3.01268 13.8 3.01176C13.8 3.01083 13.8 3.00991 13.8 3.00898C13.8 3.00806 13.8 3.00713 13.8 3.00621C13.8 3.00529 13.8 3.00437 13.8 3.00345C13.8 3.00253 13.8 3.00161 13.8 3.00069C13.8 2.99978 13.8 2.99886 13.8 2.99795C13.8 2.99703 13.8 2.99612 13.8 2.9952C13.8 2.99429 13.8 2.99338 13.8 2.99247C13.8 2.99155 13.8 2.99064 13.8 2.98974C13.8 2.98883 13.8 2.98792 13.8 2.98701C13.8 2.9861 13.8 2.9852 13.8 2.98429C13.8 2.98339 13.8 2.98249 13.8 2.98158C13.8 2.98068 13.8 2.97978 13.8 2.97888C13.8 2.97798 13.8 2.97708 13.8 2.97618C13.8 2.97528 13.8 2.97438 13.8 2.97349C13.8 2.97259 13.8 2.9717 13.8 2.9708C13.8 2.96991 13.8 2.96902 13.8 2.96812C13.8 2.96723 13.8 2.96634 13.8 2.96545C13.8 2.96456 13.8 2.96367 13.8 2.96279C13.8 2.9619 13.8 2.96101 13.8 2.96013C13.8 2.95924 13.8 2.95836 13.8 2.95747C13.8 2.95659 13.8 2.95571 13.8 2.95483C13.8 2.95394 13.8 2.95306 13.8 2.95218C13.8 2.95131 13.8 2.95043 13.8 2.94955C13.8 2.94867 13.8 2.9478 13.8 2.94692C13.8 2.94605 13.8 2.94517 13.8 2.9443C13.8 2.94343 13.8 2.94256 13.8 2.94169C13.8 2.94082 13.8 2.93995 13.8 2.93908C13.8 2.93821 13.8 2.93734 13.8 2.93648C13.8 2.93561 13.8 2.93474 13.8 2.93388C13.8 2.93302 13.8 2.93215 13.8 2.93129C13.8 2.93043 13.8 2.92957 13.8 2.92871C13.8 2.92785 13.8 2.92699 13.8 2.92613C13.8 2.92527 13.8 2.92442 13.8 2.92356C13.8 2.92271 13.8 2.92185 13.8 2.921C13.8 2.92014 13.8 2.91929 13.8 2.91844C13.8 2.91759 13.8 2.91674 13.8 2.91589C13.8 2.91504 13.8 2.91419 13.8 2.91335C13.8 2.9125 13.8 2.91165 13.8 2.91081C13.8 2.90996 13.8 2.90912 13.8 2.90828C13.8 2.90743 13.8 2.90659 13.8 2.90575C13.8 2.90491 13.8 2.90407 13.8 2.90323C13.8 2.90239 13.8 2.90156 13.8 2.90072C13.8 2.89988 13.8 2.89905 13.8 2.89821C13.8 2.89738 13.8 2.89655 13.8 2.89571C13.8 2.89488 13.8 2.89405 13.8 2.89322C13.8 2.89239 13.8 2.89156 13.8 2.89073C13.8 2.88991 13.8 2.88908 13.8 2.88825C13.8 2.88743 13.8 2.8866 13.8 2.88578C13.8 2.88496 13.8 2.88413 13.8 2.88331C13.8 2.88249 13.8 2.88167 13.8 2.88085C13.8 2.88003 13.8 2.87921 13.8 2.8784C13.8 2.87758 13.8 2.87676 13.8 2.87595C13.8 2.87513 13.8 2.87432 13.8 2.87351C13.8 2.87269 13.8 2.87188 13.8 2.87107C13.8 2.87026 13.8 2.86945 13.8 2.86864C13.8 2.86783 13.8 2.86703 13.8 2.86622C13.8 2.86541 13.8 2.86461 13.8 2.8638C13.8 2.863 13.8 2.8622 13.8 2.86139C13.8 2.86059 13.8 2.85979 13.8 2.85899C13.8 2.85819 13.8 2.85739 13.8 2.85659C13.8 2.8558 13.8 2.855 13.8 2.8542C13.8 2.85341 13.8 2.85261 13.8 2.85182C13.8 2.85102 13.8 2.85023 13.8 2.84944C13.8 2.84865 13.8 2.84786 13.8 2.84707C13.8 2.84628 13.8 2.84549 13.8 2.8447C13.8 2.84392 13.8 2.84313 13.8 2.84235C13.8 2.84156 13.8 2.84078 13.8 2.83999C13.8 2.83921 13.8 2.83843 13.8 2.83765C13.8 2.83687 13.8 2.83609 13.8 2.83531C13.8 2.83453 13.8 2.83375 13.8 2.83298C13.8 2.8322 13.8 2.83142 13.8 2.83065C13.8 2.82987 13.8 2.8291 13.8 2.82833C13.8 2.82756 13.8 2.82679 13.8 2.82602C13.8 2.82525 13.8 2.82448 13.8 2.82371C13.8 2.82294 13.8 2.82217 13.8 2.82141C13.8 2.82064 13.8 2.81988 13.8 2.81911C13.8 2.81835 13.8 2.81759 13.8 2.81682C13.8 2.81606 13.8 2.8153 13.8 2.81454C13.8 2.81378 13.8 2.81303 13.8 2.81227C13.8 2.81151 13.8 2.81075 13.8 2.81C13.8 2.80924 13.8 2.80849 13.8 2.80774C13.8 2.80698 13.8 2.80623 13.8 2.80548C13.8 2.80473 13.8 2.80398 13.8 2.80323C13.8 2.80248 13.8 2.80173 13.8 2.80099C13.8 2.80024 13.8 2.7995 13.8 2.79875C13.8 2.79801 13.8 2.79726 13.8 2.79652C13.8 2.79578 13.8 2.79504 13.8 2.7943C13.8 2.79356 13.8 2.79282 13.8 2.79208C13.8 2.79134 13.8 2.7906 13.8 2.78987C13.8 2.78913 13.8 2.7884 13.8 2.78766C13.8 2.78693 13.8 2.7862 13.8 2.78546C13.8 2.78473 13.8 2.784 13.8 2.78327C13.8 2.78254 13.8 2.78181 13.8 2.78109C13.8 2.78036 13.8 2.77963 13.8 2.77891C13.8 2.77818 13.8 2.77746 13.8 2.77674C13.8 2.77601 13.8 2.77529 13.8 2.77457C13.8 2.77385 13.8 2.77313 13.8 2.77241C13.8 2.77169 13.8 2.77097 13.8 2.77026C13.8 2.76954 13.8 2.76882 13.8 2.76811C13.8 2.76739 13.8 2.76668 13.8 2.76597C13.8 2.76526 13.8 2.76454 13.8 2.76383C13.8 2.76312 13.8 2.76241 13.8 2.76171C13.8 2.761 13.8 2.76029 13.8 2.75958C13.8 2.75888 13.8 2.75817 13.8 2.75747C13.8 2.75677 13.8 2.75606 13.8 2.75536C13.8 2.75466 13.8 2.75396 13.8 2.75326C13.8 2.75256 13.8 2.75186 13.8 2.75116C13.8 2.75047 13.8 2.74977 13.8 2.74907C13.8 2.74838 13.8 2.74768 13.8 2.74699C13.8 2.7463 13.8 2.74561 13.8 2.74491C13.8 2.74422 13.8 2.74353 13.8 2.74284C13.8 2.74215 13.8 2.74147 13.8 2.74078C13.8 2.74009 13.8 2.73941 13.8 2.73872C13.8 2.73804 13.8 2.73735 13.8 2.73667C13.8 2.73599 13.8 2.73531 13.8 2.73463C13.8 2.73395 13.8 2.73327 13.8 2.73259C13.8 2.73191 13.8 2.73123 13.8 2.73056C13.8 2.72988 13.8 2.72921 13.8 2.72853C13.8 2.72786 13.8 2.72719 13.8 2.72651C13.8 2.72584 13.8 2.72517 13.8 2.7245C13.8 2.72383 13.8 2.72316 13.8 2.72249C13.8 2.72183 13.8 2.72116 13.8 2.7205C13.8 2.71983 13.8 2.71917 13.8 2.7185C13.8 2.71784 13.8 2.71718 13.8 2.71652C13.8 2.71585 13.8 2.71519 13.8 2.71453C13.8 2.71388 13.8 2.71322 13.8 2.71256C13.8 2.7119 13.8 2.71125 13.8 2.71059C13.8 2.70994 13.8 2.70928 13.8 2.70863C13.8 2.70798 13.8 2.70733 13.8 2.70668C13.8 2.70603 13.8 2.70538 13.8 2.70473C13.8 2.70408 13.8 2.70343 13.8 2.70279C13.8 2.70214 13.8 2.7015 13.8 2.70085C13.8 2.70021 13.8 2.69956 13.8 2.69892C13.8 2.69828 13.8 2.69764 13.8 2.697C13.8 2.69636 13.8 2.69572 13.8 2.69508C13.8 2.69445 13.8 2.69381 13.8 2.69317C13.8 2.69254 13.8 2.6919 13.8 2.69127C13.8 2.69064 13.8 2.69 13.8 2.68937C13.8 2.68874 13.8 2.68811 13.8 2.68748C13.8 2.68685 13.8 2.68622 13.8 2.6856C13.8 2.68497 13.8 2.68434 13.8 2.68372C13.8 2.68309 13.8 2.68247 13.8 2.68185C13.8 2.68123 13.8 2.6806 13.8 2.67998C13.8 2.67936 13.8 2.67874 13.8 2.67812C13.8 2.67751 13.8 2.67689 13.8 2.67627C13.8 2.67566 13.8 2.67504 13.8 2.67443C13.8 2.67381 13.8 2.6732 13.8 2.67259C13.8 2.67197 13.8 2.67136 13.8 2.67075C13.8 2.67014 13.8 2.66953 13.8 2.66893C13.8 2.66832 13.8 2.66771 13.8 2.66711C13.8 2.6665 13.8 2.6659 13.8 2.66529C13.8 2.66469 13.8 2.66409 13.8 2.66349C13.8 2.66288 13.8 2.66228 13.8 2.66168C13.8 2.66109 13.8 2.66049 13.8 2.65989C13.8 2.65929 13.8 2.6587 13.8 2.6581C13.8 2.65751 13.8 2.65691 13.8 2.65632C13.8 2.65573 13.8 2.65514 13.8 2.65454C13.8 2.65395 13.8 2.65336 13.8 2.65278C13.8 2.65219 13.8 2.6516 13.8 2.65101C13.8 2.65043 13.8 2.64984 13.8 2.64926C13.8 2.64867 13.8 2.64809 13.8 2.64751C13.8 2.64692 13.8 2.64634 13.8 2.64576C13.8 2.64518 13.8 2.6446 13.8 2.64403C13.8 2.64345 13.8 2.64287 13.8 2.6423C13.8 2.64172 13.8 2.64115 13.8 2.64057C13.8 2.64 13.8 2.63943 13.8 2.63885C13.8 2.63828 13.8 2.63771 13.8 2.63714C13.8 2.63657 13.8 2.63601 13.8 2.63544C13.8 2.63487 13.8 2.63431 13.8 2.63374C13.8 2.63318 13.8 2.63261 13.8 2.63205C13.8 2.63149 13.8 2.63092 13.8 2.63036C13.8 2.6298 13.8 2.62924 13.8 2.62868C13.8 2.62812 13.8 2.62757 13.8 2.62701C13.8 2.62645 13.8 2.6259 13.8 2.62534C13.8 2.62479 13.8 2.62424 13.8 2.62368C13.8 2.62313 13.8 2.62258 13.8 2.62203C13.8 2.62148 13.8 2.62093 13.8 2.62038C13.8 2.61984 13.8 2.61929 13.8 2.61874C13.8 2.6182 13.8 2.61765 13.8 2.61711C13.8 2.61656 13.8 2.61602 13.8 2.61548C13.8 2.61494 13.8 2.6144 13.8 2.61386C13.8 2.61332 13.8 2.61278 13.8 2.61224C13.8 2.61171 13.8 2.61117 13.8 2.61063C13.8 2.6101 13.8 2.60957 13.8 2.60903C13.8 2.6085 13.8 2.60797 13.8 2.60744C13.8 2.60691 13.8 2.60638 13.8 2.60585C13.8 2.60532 13.8 2.60479 13.8 2.60426C13.8 2.60374 13.8 2.60321 13.8 2.60269C13.8 2.60216 13.8 2.60164 13.8 2.60112C13.8 2.60059 13.8 2.60007 13.8 2.59955C13.8 2.59903 13.8 2.59851 13.8 2.598C13.8 2.59748 13.8 2.59696 13.8 2.59644C13.8 2.59593 13.8 2.59541 13.8 2.5949C13.8 2.59439 13.8 2.59387 13.8 2.59336C13.8 2.59285 13.8 2.59234 13.8 2.59183C13.8 2.59132 13.8 2.59081 13.8 2.5903C13.8 2.5898 13.8 2.58929 13.8 2.58879C13.8 2.58828 13.8 2.58778 13.8 2.58727C13.8 2.58677 13.8 2.58627 13.8 2.58577C13.8 2.58527 13.8 2.58477 13.8 2.58427C13.8 2.58377 13.8 2.58327 13.8 2.58277C13.8 2.58228 13.8 2.58178 13.8 2.58129C13.8 2.58079 13.8 2.5803 13.8 2.57981C13.8 2.57931 13.8 2.57882 13.8 2.57833C13.8 2.57784 13.8 2.57735 13.8 2.57686C13.8 2.57638 13.8 2.57589 13.8 2.5754C13.8 2.57492 13.8 2.57443 13.8 2.57395C13.8 2.57346 13.8 2.57298 13.8 2.5725C13.8 2.57202 13.8 2.57154 13.8 2.57106C13.8 2.57058 13.8 2.5701 13.8 2.56962C13.8 2.56914 13.8 2.56867 13.8 2.56819C13.8 2.56772 13.8 2.56724 13.8 2.56677C13.8 2.5663 13.8 2.56582 13.8 2.56535C13.8 2.56488 13.8 2.56441 13.8 2.56394C13.8 2.56347 13.8 2.56301 13.8 2.56254C13.8 2.56207 13.8 2.56161 13.8 2.56114C13.8 2.56068 13.8 2.56021 13.8 2.55975C13.8 2.55929 13.8 2.55883 13.8 2.55837C13.8 2.55791 13.8 2.55745 13.8 2.55699C13.8 2.55653 13.8 2.55607 13.8 2.55562C13.8 2.55516 13.8 2.55471 13.8 2.55425C13.8 2.5538 13.8 2.55334 13.8 2.55289C13.8 2.55244 13.8 2.55199 13.8 2.55154C13.8 2.55109 13.8 2.55064 13.8 2.55019C13.8 2.54975 13.8 2.5493 13.8 2.54886C13.8 2.54841 13.8 2.54797 13.8 2.54752C13.8 2.54708 13.8 2.54664 13.8 2.5462C13.8 2.54575 13.8 2.54531 13.8 2.54487C13.8 2.54444 13.8 2.544 13.8 2.54356C13.8 2.54312 13.8 2.54269 13.8 2.54225C13.8 2.54182 13.8 2.54138 13.8 2.54095C13.8 2.54052 13.8 2.54009 13.8 2.53966C13.8 2.53923 13.8 2.5388 13.8 2.53837C13.8 2.53794 13.8 2.53751 13.8 2.53709C13.8 2.53666 13.8 2.53624 13.8 2.53581C13.8 2.53539 13.8 2.53496 13.8 2.53454C13.8 2.53412 13.8 2.5337 13.8 2.53328C13.8 2.53286 13.8 2.53244 13.8 2.53202C13.8 2.53161 13.8 2.53119 13.8 2.53077C13.8 2.53036 13.8 2.52994 13.8 2.52953C13.8 2.52912 13.8 2.5287 13.8 2.52829C13.8 2.52788 13.8 2.52747 13.8 2.52706C13.8 2.52665 13.8 2.52625 13.8 2.52584C13.8 2.52543 13.8 2.52503 13.8 2.52462C13.8 2.52422 13.8 2.52381 13.8 2.52341C13.8 2.52301 13.8 2.52261 13.8 2.5222C13.8 2.5218 13.8 2.5214 13.8 2.52101C13.8 2.52061 13.8 2.52021 13.8 2.51981C13.8 2.51942 13.8 2.51902 13.8 2.51863C13.8 2.51823 13.8 2.51784 13.8 2.51745C13.8 2.51706 13.8 2.51667 13.8 2.51628C13.8 2.51589 13.8 2.5155 13.8 2.51511C13.8 2.51472 13.8 2.51433 13.8 2.51395C13.8 2.51356 13.8 2.51318 13.8 2.5128C13.8 2.51241 13.8 2.51203 13.8 2.51165C13.8 2.51127 13.8 2.51089 13.8 2.51051C13.8 2.51013 13.8 2.50975 13.8 2.50937C13.8 2.509 13.8 2.50862 13.8 2.50824C13.8 2.50787 13.8 2.5075 13.8 2.50712C13.8 2.50675 13.8 2.50638 13.8 2.50601C13.8 2.50564 13.8 2.50527 13.8 2.5049C13.8 2.50453 13.8 2.50416 13.8 2.5038C13.8 2.50343 13.8 2.50306 13.8 2.5027C13.8 2.50234 13.8 2.50197 13.8 2.50161C13.8 2.50125 13.8 2.50089 13.8 2.50053C13.8 2.50017 13.8 2.49981 13.8 2.49945C13.8 2.49909 13.8 2.49874 13.8 2.49838C13.8 2.49802 13.8 2.49767 13.8 2.49732C13.8 2.49696 13.8 2.49661 13.8 2.49626C13.8 2.49591 13.8 2.49556 13.8 2.49521C13.8 2.49486 13.8 2.49451 13.8 2.49416C13.8 2.49382 13.8 2.49347 13.8 2.49312C13.8 2.49278 13.8 2.49244 13.8 2.49209C13.8 2.49175 13.8 2.49141 13.8 2.49107C13.8 2.49073 13.8 2.49039 13.8 2.49005C13.8 2.48971 13.8 2.48937 13.8 2.48904C13.8 2.4887 13.8 2.48836 13.8 2.48803C13.8 2.48769 13.8 2.48736 13.8 2.48703C13.8 2.4867 13.8 2.48637 13.8 2.48604C13.8 2.48571 13.8 2.48538 13.8 2.48505C13.8 2.48472 13.8 2.48439 13.8 2.48407C13.8 2.48374 13.8 2.48342 13.8 2.48309C13.8 2.48277 13.8 2.48245 13.8 2.48213C13.8 2.4818 13.8 2.48148 13.8 2.48116C13.8 2.48084 13.8 2.48053 13.8 2.48021C13.8 2.47989 13.8 2.47958 13.8 2.47926C13.8 2.47895 13.8 2.47863 13.8 2.47832C13.8 2.47801 13.8 2.47769 13.8 2.47738C13.8 2.47707 13.8 2.47676 13.8 2.47645C13.8 2.47614 13.8 2.47584 13.8 2.47553C13.8 2.47522 13.8 2.47492 13.8 2.47461C13.8 2.47431 13.8 2.47401 13.8 2.4737C13.8 2.4734 13.8 2.4731 13.8 2.4728C13.8 2.4725 13.8 2.4722 13.8 2.4719C13.8 2.4716 13.8 2.47131 13.8 2.47101C13.8 2.47072 13.8 2.47042 13.8 2.47013C13.8 2.46983 13.8 2.46954 13.8 2.46925C13.8 2.46896 13.8 2.46867 13.8 2.46838C13.8 2.46809 13.8 2.4678 13.8 2.46751C13.8 2.46722 13.8 2.46694 13.8 2.46665C13.8 2.46637 13.8 2.46608 13.8 2.4658C13.8 2.46552 13.8 2.46523 13.8 2.46495C13.8 2.46467 13.8 2.46439 13.8 2.46411C13.8 2.46384 13.8 2.46356 13.8 2.46328C13.8 2.463 13.8 2.46273 13.8 2.46245C13.8 2.46218 13.8 2.46191 13.8 2.46163C13.8 2.46136 13.8 2.46109 13.8 2.46082C13.8 2.46055 13.8 2.46028 13.8 2.46001C13.8 2.45974 13.8 2.45948 13.8 2.45921C13.8 2.45894 13.8 2.45868 13.8 2.45842C13.8 2.45815 13.8 2.45789 13.8 2.45763C13.8 2.45737 13.8 2.45711 13.8 2.45685C13.8 2.45659 13.8 2.45633 13.8 2.45607C13.8 2.45581 13.8 2.45556 13.8 2.4553C13.8 2.45505 13.8 2.45479 13.8 2.45454C13.8 2.45428 13.8 2.45403 13.8 2.45378C13.8 2.45353 13.8 2.45328 13.8 2.45303C13.8 2.45278 13.8 2.45253 13.8 2.45229C13.8 2.45204 13.8 2.4518 13.8 2.45155C13.8 2.45131 13.8 2.45106 13.8 2.45082C13.8 2.45058 13.8 2.45034 13.8 2.4501C13.8 2.44986 13.8 2.44962 13.8 2.44938C13.8 2.44914 13.8 2.4489 13.8 2.44867C13.8 2.44843 13.8 2.4482 13.8 2.44796C13.8 2.44773 13.8 2.44749 13.8 2.44726C13.8 2.44703 13.8 2.4468 13.8 2.44657C13.8 2.44634 13.8 2.44611 13.8 2.44588C13.8 2.44566 13.8 2.44543 13.8 2.44521C13.8 2.44498 13.8 2.44476 13.8 2.44453C13.8 2.44431 13.8 2.44409 13.8 2.44387C13.8 2.44364 13.8 2.44342 13.8 2.44321C13.8 2.44299 13.8 2.44277 13.8 2.44255C13.8 2.44233 13.8 2.44212 13.8 2.4419C13.8 2.44169 13.8 2.44148 13.8 2.44126C13.8 2.44105 13.8 2.44084 13.8 2.44063C13.8 2.44042 13.8 2.44021 13.8 2.44H11.8C11.8 2.44021 11.8 2.44042 11.8 2.44063C11.8 2.44084 11.8 2.44105 11.8 2.44126C11.8 2.44148 11.8 2.44169 11.8 2.4419C11.8 2.44212 11.8 2.44233 11.8 2.44255C11.8 2.44277 11.8 2.44299 11.8 2.44321C11.8 2.44342 11.8 2.44364 11.8 2.44387C11.8 2.44409 11.8 2.44431 11.8 2.44453C11.8 2.44476 11.8 2.44498 11.8 2.44521C11.8 2.44543 11.8 2.44566 11.8 2.44588C11.8 2.44611 11.8 2.44634 11.8 2.44657C11.8 2.4468 11.8 2.44703 11.8 2.44726C11.8 2.44749 11.8 2.44773 11.8 2.44796C11.8 2.4482 11.8 2.44843 11.8 2.44867C11.8 2.4489 11.8 2.44914 11.8 2.44938C11.8 2.44962 11.8 2.44986 11.8 2.4501C11.8 2.45034 11.8 2.45058 11.8 2.45082C11.8 2.45106 11.8 2.45131 11.8 2.45155C11.8 2.4518 11.8 2.45204 11.8 2.45229C11.8 2.45253 11.8 2.45278 11.8 2.45303C11.8 2.45328 11.8 2.45353 11.8 2.45378C11.8 2.45403 11.8 2.45428 11.8 2.45454C11.8 2.45479 11.8 2.45505 11.8 2.4553C11.8 2.45556 11.8 2.45581 11.8 2.45607C11.8 2.45633 11.8 2.45659 11.8 2.45685C11.8 2.45711 11.8 2.45737 11.8 2.45763C11.8 2.45789 11.8 2.45815 11.8 2.45842C11.8 2.45868 11.8 2.45894 11.8 2.45921C11.8 2.45948 11.8 2.45974 11.8 2.46001C11.8 2.46028 11.8 2.46055 11.8 2.46082C11.8 2.46109 11.8 2.46136 11.8 2.46163C11.8 2.46191 11.8 2.46218 11.8 2.46245C11.8 2.46273 11.8 2.463 11.8 2.46328C11.8 2.46356 11.8 2.46384 11.8 2.46411C11.8 2.46439 11.8 2.46467 11.8 2.46495C11.8 2.46523 11.8 2.46552 11.8 2.4658C11.8 2.46608 11.8 2.46637 11.8 2.46665C11.8 2.46694 11.8 2.46722 11.8 2.46751C11.8 2.4678 11.8 2.46809 11.8 2.46838C11.8 2.46867 11.8 2.46896 11.8 2.46925C11.8 2.46954 11.8 2.46983 11.8 2.47013C11.8 2.47042 11.8 2.47072 11.8 2.47101C11.8 2.47131 11.8 2.4716 11.8 2.4719C11.8 2.4722 11.8 2.4725 11.8 2.4728C11.8 2.4731 11.8 2.4734 11.8 2.4737C11.8 2.47401 11.8 2.47431 11.8 2.47461C11.8 2.47492 11.8 2.47522 11.8 2.47553C11.8 2.47584 11.8 2.47614 11.8 2.47645C11.8 2.47676 11.8 2.47707 11.8 2.47738C11.8 2.47769 11.8 2.47801 11.8 2.47832C11.8 2.47863 11.8 2.47895 11.8 2.47926C11.8 2.47958 11.8 2.47989 11.8 2.48021C11.8 2.48053 11.8 2.48084 11.8 2.48116C11.8 2.48148 11.8 2.4818 11.8 2.48213C11.8 2.48245 11.8 2.48277 11.8 2.48309C11.8 2.48342 11.8 2.48374 11.8 2.48407C11.8 2.48439 11.8 2.48472 11.8 2.48505C11.8 2.48538 11.8 2.48571 11.8 2.48604C11.8 2.48637 11.8 2.4867 11.8 2.48703C11.8 2.48736 11.8 2.48769 11.8 2.48803C11.8 2.48836 11.8 2.4887 11.8 2.48904C11.8 2.48937 11.8 2.48971 11.8 2.49005C11.8 2.49039 11.8 2.49073 11.8 2.49107C11.8 2.49141 11.8 2.49175 11.8 2.49209C11.8 2.49244 11.8 2.49278 11.8 2.49312C11.8 2.49347 11.8 2.49382 11.8 2.49416C11.8 2.49451 11.8 2.49486 11.8 2.49521C11.8 2.49556 11.8 2.49591 11.8 2.49626C11.8 2.49661 11.8 2.49696 11.8 2.49732C11.8 2.49767 11.8 2.49802 11.8 2.49838C11.8 2.49874 11.8 2.49909 11.8 2.49945C11.8 2.49981 11.8 2.50017 11.8 2.50053C11.8 2.50089 11.8 2.50125 11.8 2.50161C11.8 2.50197 11.8 2.50234 11.8 2.5027C11.8 2.50306 11.8 2.50343 11.8 2.5038C11.8 2.50416 11.8 2.50453 11.8 2.5049C11.8 2.50527 11.8 2.50564 11.8 2.50601C11.8 2.50638 11.8 2.50675 11.8 2.50712C11.8 2.5075 11.8 2.50787 11.8 2.50824C11.8 2.50862 11.8 2.509 11.8 2.50937C11.8 2.50975 11.8 2.51013 11.8 2.51051C11.8 2.51089 11.8 2.51127 11.8 2.51165C11.8 2.51203 11.8 2.51241 11.8 2.5128C11.8 2.51318 11.8 2.51356 11.8 2.51395C11.8 2.51433 11.8 2.51472 11.8 2.51511C11.8 2.5155 11.8 2.51589 11.8 2.51628C11.8 2.51667 11.8 2.51706 11.8 2.51745C11.8 2.51784 11.8 2.51823 11.8 2.51863C11.8 2.51902 11.8 2.51942 11.8 2.51981C11.8 2.52021 11.8 2.52061 11.8 2.52101C11.8 2.5214 11.8 2.5218 11.8 2.5222C11.8 2.52261 11.8 2.52301 11.8 2.52341C11.8 2.52381 11.8 2.52422 11.8 2.52462C11.8 2.52503 11.8 2.52543 11.8 2.52584C11.8 2.52625 11.8 2.52665 11.8 2.52706C11.8 2.52747 11.8 2.52788 11.8 2.52829C11.8 2.5287 11.8 2.52912 11.8 2.52953C11.8 2.52994 11.8 2.53036 11.8 2.53077C11.8 2.53119 11.8 2.53161 11.8 2.53202C11.8 2.53244 11.8 2.53286 11.8 2.53328C11.8 2.5337 11.8 2.53412 11.8 2.53454C11.8 2.53496 11.8 2.53539 11.8 2.53581C11.8 2.53624 11.8 2.53666 11.8 2.53709C11.8 2.53751 11.8 2.53794 11.8 2.53837C11.8 2.5388 11.8 2.53923 11.8 2.53966C11.8 2.54009 11.8 2.54052 11.8 2.54095C11.8 2.54138 11.8 2.54182 11.8 2.54225C11.8 2.54269 11.8 2.54312 11.8 2.54356C11.8 2.544 11.8 2.54444 11.8 2.54487C11.8 2.54531 11.8 2.54575 11.8 2.5462C11.8 2.54664 11.8 2.54708 11.8 2.54752C11.8 2.54797 11.8 2.54841 11.8 2.54886C11.8 2.5493 11.8 2.54975 11.8 2.55019C11.8 2.55064 11.8 2.55109 11.8 2.55154C11.8 2.55199 11.8 2.55244 11.8 2.55289C11.8 2.55334 11.8 2.5538 11.8 2.55425C11.8 2.55471 11.8 2.55516 11.8 2.55562C11.8 2.55607 11.8 2.55653 11.8 2.55699C11.8 2.55745 11.8 2.55791 11.8 2.55837C11.8 2.55883 11.8 2.55929 11.8 2.55975C11.8 2.56021 11.8 2.56068 11.8 2.56114C11.8 2.56161 11.8 2.56207 11.8 2.56254C11.8 2.56301 11.8 2.56347 11.8 2.56394C11.8 2.56441 11.8 2.56488 11.8 2.56535C11.8 2.56582 11.8 2.5663 11.8 2.56677C11.8 2.56724 11.8 2.56772 11.8 2.56819C11.8 2.56867 11.8 2.56914 11.8 2.56962C11.8 2.5701 11.8 2.57058 11.8 2.57106C11.8 2.57154 11.8 2.57202 11.8 2.5725C11.8 2.57298 11.8 2.57346 11.8 2.57395C11.8 2.57443 11.8 2.57492 11.8 2.5754C11.8 2.57589 11.8 2.57638 11.8 2.57686C11.8 2.57735 11.8 2.57784 11.8 2.57833C11.8 2.57882 11.8 2.57931 11.8 2.57981C11.8 2.5803 11.8 2.58079 11.8 2.58129C11.8 2.58178 11.8 2.58228 11.8 2.58277C11.8 2.58327 11.8 2.58377 11.8 2.58427C11.8 2.58477 11.8 2.58527 11.8 2.58577C11.8 2.58627 11.8 2.58677 11.8 2.58727C11.8 2.58778 11.8 2.58828 11.8 2.58879C11.8 2.58929 11.8 2.5898 11.8 2.5903C11.8 2.59081 11.8 2.59132 11.8 2.59183C11.8 2.59234 11.8 2.59285 11.8 2.59336C11.8 2.59387 11.8 2.59439 11.8 2.5949C11.8 2.59541 11.8 2.59593 11.8 2.59644C11.8 2.59696 11.8 2.59748 11.8 2.598C11.8 2.59851 11.8 2.59903 11.8 2.59955C11.8 2.60007 11.8 2.60059 11.8 2.60112C11.8 2.60164 11.8 2.60216 11.8 2.60269C11.8 2.60321 11.8 2.60374 11.8 2.60426C11.8 2.60479 11.8 2.60532 11.8 2.60585C11.8 2.60638 11.8 2.60691 11.8 2.60744C11.8 2.60797 11.8 2.6085 11.8 2.60903C11.8 2.60957 11.8 2.6101 11.8 2.61063C11.8 2.61117 11.8 2.61171 11.8 2.61224C11.8 2.61278 11.8 2.61332 11.8 2.61386C11.8 2.6144 11.8 2.61494 11.8 2.61548C11.8 2.61602 11.8 2.61656 11.8 2.61711C11.8 2.61765 11.8 2.6182 11.8 2.61874C11.8 2.61929 11.8 2.61984 11.8 2.62038C11.8 2.62093 11.8 2.62148 11.8 2.62203C11.8 2.62258 11.8 2.62313 11.8 2.62368C11.8 2.62424 11.8 2.62479 11.8 2.62534C11.8 2.6259 11.8 2.62645 11.8 2.62701C11.8 2.62757 11.8 2.62812 11.8 2.62868C11.8 2.62924 11.8 2.6298 11.8 2.63036C11.8 2.63092 11.8 2.63149 11.8 2.63205C11.8 2.63261 11.8 2.63318 11.8 2.63374C11.8 2.63431 11.8 2.63487 11.8 2.63544C11.8 2.63601 11.8 2.63657 11.8 2.63714C11.8 2.63771 11.8 2.63828 11.8 2.63885C11.8 2.63943 11.8 2.64 11.8 2.64057C11.8 2.64115 11.8 2.64172 11.8 2.6423C11.8 2.64287 11.8 2.64345 11.8 2.64403C11.8 2.6446 11.8 2.64518 11.8 2.64576C11.8 2.64634 11.8 2.64692 11.8 2.64751C11.8 2.64809 11.8 2.64867 11.8 2.64926C11.8 2.64984 11.8 2.65043 11.8 2.65101C11.8 2.6516 11.8 2.65219 11.8 2.65278C11.8 2.65336 11.8 2.65395 11.8 2.65454C11.8 2.65514 11.8 2.65573 11.8 2.65632C11.8 2.65691 11.8 2.65751 11.8 2.6581C11.8 2.6587 11.8 2.65929 11.8 2.65989C11.8 2.66049 11.8 2.66109 11.8 2.66168C11.8 2.66228 11.8 2.66288 11.8 2.66349C11.8 2.66409 11.8 2.66469 11.8 2.66529C11.8 2.6659 11.8 2.6665 11.8 2.66711C11.8 2.66771 11.8 2.66832 11.8 2.66893C11.8 2.66953 11.8 2.67014 11.8 2.67075C11.8 2.67136 11.8 2.67197 11.8 2.67259C11.8 2.6732 11.8 2.67381 11.8 2.67443C11.8 2.67504 11.8 2.67566 11.8 2.67627C11.8 2.67689 11.8 2.67751 11.8 2.67812C11.8 2.67874 11.8 2.67936 11.8 2.67998C11.8 2.6806 11.8 2.68123 11.8 2.68185C11.8 2.68247 11.8 2.68309 11.8 2.68372C11.8 2.68434 11.8 2.68497 11.8 2.6856C11.8 2.68622 11.8 2.68685 11.8 2.68748C11.8 2.68811 11.8 2.68874 11.8 2.68937C11.8 2.69 11.8 2.69064 11.8 2.69127C11.8 2.6919 11.8 2.69254 11.8 2.69317C11.8 2.69381 11.8 2.69445 11.8 2.69508C11.8 2.69572 11.8 2.69636 11.8 2.697C11.8 2.69764 11.8 2.69828 11.8 2.69892C11.8 2.69956 11.8 2.70021 11.8 2.70085C11.8 2.7015 11.8 2.70214 11.8 2.70279C11.8 2.70343 11.8 2.70408 11.8 2.70473C11.8 2.70538 11.8 2.70603 11.8 2.70668C11.8 2.70733 11.8 2.70798 11.8 2.70863C11.8 2.70928 11.8 2.70994 11.8 2.71059C11.8 2.71125 11.8 2.7119 11.8 2.71256C11.8 2.71322 11.8 2.71388 11.8 2.71453C11.8 2.71519 11.8 2.71585 11.8 2.71652C11.8 2.71718 11.8 2.71784 11.8 2.7185C11.8 2.71917 11.8 2.71983 11.8 2.7205C11.8 2.72116 11.8 2.72183 11.8 2.72249C11.8 2.72316 11.8 2.72383 11.8 2.7245C11.8 2.72517 11.8 2.72584 11.8 2.72651C11.8 2.72719 11.8 2.72786 11.8 2.72853C11.8 2.72921 11.8 2.72988 11.8 2.73056C11.8 2.73123 11.8 2.73191 11.8 2.73259C11.8 2.73327 11.8 2.73395 11.8 2.73463C11.8 2.73531 11.8 2.73599 11.8 2.73667C11.8 2.73735 11.8 2.73804 11.8 2.73872C11.8 2.73941 11.8 2.74009 11.8 2.74078C11.8 2.74147 11.8 2.74215 11.8 2.74284C11.8 2.74353 11.8 2.74422 11.8 2.74491C11.8 2.74561 11.8 2.7463 11.8 2.74699C11.8 2.74768 11.8 2.74838 11.8 2.74907C11.8 2.74977 11.8 2.75047 11.8 2.75116C11.8 2.75186 11.8 2.75256 11.8 2.75326C11.8 2.75396 11.8 2.75466 11.8 2.75536C11.8 2.75606 11.8 2.75677 11.8 2.75747C11.8 2.75817 11.8 2.75888 11.8 2.75958C11.8 2.76029 11.8 2.761 11.8 2.76171C11.8 2.76241 11.8 2.76312 11.8 2.76383C11.8 2.76454 11.8 2.76526 11.8 2.76597C11.8 2.76668 11.8 2.76739 11.8 2.76811C11.8 2.76882 11.8 2.76954 11.8 2.77026C11.8 2.77097 11.8 2.77169 11.8 2.77241C11.8 2.77313 11.8 2.77385 11.8 2.77457C11.8 2.77529 11.8 2.77601 11.8 2.77674C11.8 2.77746 11.8 2.77818 11.8 2.77891C11.8 2.77963 11.8 2.78036 11.8 2.78109C11.8 2.78181 11.8 2.78254 11.8 2.78327C11.8 2.784 11.8 2.78473 11.8 2.78546C11.8 2.7862 11.8 2.78693 11.8 2.78766C11.8 2.7884 11.8 2.78913 11.8 2.78987C11.8 2.7906 11.8 2.79134 11.8 2.79208C11.8 2.79282 11.8 2.79356 11.8 2.7943C11.8 2.79504 11.8 2.79578 11.8 2.79652C11.8 2.79726 11.8 2.79801 11.8 2.79875C11.8 2.7995 11.8 2.80024 11.8 2.80099C11.8 2.80173 11.8 2.80248 11.8 2.80323C11.8 2.80398 11.8 2.80473 11.8 2.80548C11.8 2.80623 11.8 2.80698 11.8 2.80774C11.8 2.80849 11.8 2.80924 11.8 2.81C11.8 2.81075 11.8 2.81151 11.8 2.81227C11.8 2.81303 11.8 2.81378 11.8 2.81454C11.8 2.8153 11.8 2.81606 11.8 2.81682C11.8 2.81759 11.8 2.81835 11.8 2.81911C11.8 2.81988 11.8 2.82064 11.8 2.82141C11.8 2.82217 11.8 2.82294 11.8 2.82371C11.8 2.82448 11.8 2.82525 11.8 2.82602C11.8 2.82679 11.8 2.82756 11.8 2.82833C11.8 2.8291 11.8 2.82987 11.8 2.83065C11.8 2.83142 11.8 2.8322 11.8 2.83298C11.8 2.83375 11.8 2.83453 11.8 2.83531C11.8 2.83609 11.8 2.83687 11.8 2.83765C11.8 2.83843 11.8 2.83921 11.8 2.83999C11.8 2.84078 11.8 2.84156 11.8 2.84235C11.8 2.84313 11.8 2.84392 11.8 2.8447C11.8 2.84549 11.8 2.84628 11.8 2.84707C11.8 2.84786 11.8 2.84865 11.8 2.84944C11.8 2.85023 11.8 2.85102 11.8 2.85182C11.8 2.85261 11.8 2.85341 11.8 2.8542C11.8 2.855 11.8 2.8558 11.8 2.85659C11.8 2.85739 11.8 2.85819 11.8 2.85899C11.8 2.85979 11.8 2.86059 11.8 2.86139C11.8 2.8622 11.8 2.863 11.8 2.8638C11.8 2.86461 11.8 2.86541 11.8 2.86622C11.8 2.86703 11.8 2.86783 11.8 2.86864C11.8 2.86945 11.8 2.87026 11.8 2.87107C11.8 2.87188 11.8 2.87269 11.8 2.87351C11.8 2.87432 11.8 2.87513 11.8 2.87595C11.8 2.87676 11.8 2.87758 11.8 2.8784C11.8 2.87921 11.8 2.88003 11.8 2.88085C11.8 2.88167 11.8 2.88249 11.8 2.88331C11.8 2.88413 11.8 2.88496 11.8 2.88578C11.8 2.8866 11.8 2.88743 11.8 2.88825C11.8 2.88908 11.8 2.88991 11.8 2.89073C11.8 2.89156 11.8 2.89239 11.8 2.89322C11.8 2.89405 11.8 2.89488 11.8 2.89571C11.8 2.89655 11.8 2.89738 11.8 2.89821C11.8 2.89905 11.8 2.89988 11.8 2.90072C11.8 2.90156 11.8 2.90239 11.8 2.90323C11.8 2.90407 11.8 2.90491 11.8 2.90575C11.8 2.90659 11.8 2.90743 11.8 2.90828C11.8 2.90912 11.8 2.90996 11.8 2.91081C11.8 2.91165 11.8 2.9125 11.8 2.91335C11.8 2.91419 11.8 2.91504 11.8 2.91589C11.8 2.91674 11.8 2.91759 11.8 2.91844C11.8 2.91929 11.8 2.92014 11.8 2.921C11.8 2.92185 11.8 2.92271 11.8 2.92356C11.8 2.92442 11.8 2.92527 11.8 2.92613C11.8 2.92699 11.8 2.92785 11.8 2.92871C11.8 2.92957 11.8 2.93043 11.8 2.93129C11.8 2.93215 11.8 2.93302 11.8 2.93388C11.8 2.93474 11.8 2.93561 11.8 2.93648C11.8 2.93734 11.8 2.93821 11.8 2.93908C11.8 2.93995 11.8 2.94082 11.8 2.94169C11.8 2.94256 11.8 2.94343 11.8 2.9443C11.8 2.94517 11.8 2.94605 11.8 2.94692C11.8 2.9478 11.8 2.94867 11.8 2.94955C11.8 2.95043 11.8 2.95131 11.8 2.95218C11.8 2.95306 11.8 2.95394 11.8 2.95483C11.8 2.95571 11.8 2.95659 11.8 2.95747C11.8 2.95836 11.8 2.95924 11.8 2.96013C11.8 2.96101 11.8 2.9619 11.8 2.96279C11.8 2.96367 11.8 2.96456 11.8 2.96545C11.8 2.96634 11.8 2.96723 11.8 2.96812C11.8 2.96902 11.8 2.96991 11.8 2.9708C11.8 2.9717 11.8 2.97259 11.8 2.97349C11.8 2.97438 11.8 2.97528 11.8 2.97618C11.8 2.97708 11.8 2.97798 11.8 2.97888C11.8 2.97978 11.8 2.98068 11.8 2.98158C11.8 2.98249 11.8 2.98339 11.8 2.98429C11.8 2.9852 11.8 2.9861 11.8 2.98701C11.8 2.98792 11.8 2.98883 11.8 2.98974C11.8 2.99064 11.8 2.99155 11.8 2.99247C11.8 2.99338 11.8 2.99429 11.8 2.9952C11.8 2.99612 11.8 2.99703 11.8 2.99795C11.8 2.99886 11.8 2.99978 11.8 3.00069C11.8 3.00161 11.8 3.00253 11.8 3.00345C11.8 3.00437 11.8 3.00529 11.8 3.00621C11.8 3.00713 11.8 3.00806 11.8 3.00898C11.8 3.00991 11.8 3.01083 11.8 3.01176C11.8 3.01268 11.8 3.01361 11.8 3.01454C11.8 3.01547 11.8 3.0164 11.8 3.01733C11.8 3.01826 11.8 3.01919 11.8 3.02012C11.8 3.02105 11.8 3.02199 11.8 3.02292C11.8 3.02386 11.8 3.02479 11.8 3.02573C11.8 3.02667 11.8 3.0276 11.8 3.02854C11.8 3.02948 11.8 3.03042 11.8 3.03136C11.8 3.0323 11.8 3.03325 11.8 3.03419C11.8 3.03513 11.8 3.03608 11.8 3.03702C11.8 3.03797 11.8 3.03891 11.8 3.03986C11.8 3.04081 11.8 3.04176 11.8 3.04271C11.8 3.04366 11.8 3.04461 11.8 3.04556C11.8 3.04651 11.8 3.04746 11.8 3.04842C11.8 3.04937 11.8 3.05033 11.8 3.05128C11.8 3.05224 11.8 3.05319 11.8 3.05415C11.8 3.05511 11.8 3.05607 11.8 3.05703C11.8 3.05799 11.8 3.05895 11.8 3.05991C11.8 3.06088 11.8 3.06184 11.8 3.0628C11.8 3.06377 11.8 3.06473 11.8 3.0657C11.8 3.06667 11.8 3.06764 11.8 3.0686C11.8 3.06957 11.8 3.07054 11.8 3.07151C11.8 3.07249 11.8 3.07346 11.8 3.07443C11.8 3.0754 11.8 3.07638 11.8 3.07735C11.8 3.07833 11.8 3.0793 11.8 3.08028C11.8 3.08126 11.8 3.08224 11.8 3.08322C11.8 3.0842 11.8 3.08518 11.8 3.08616C11.8 3.08714 11.8 3.08812 11.8 3.08911C11.8 3.09009 11.8 3.09108 11.8 3.09206C11.8 3.09305 11.8 3.09403 11.8 3.09502C11.8 3.09601 11.8 3.097 11.8 3.09799C11.8 3.09898 11.8 3.09997 11.8 3.10096C11.8 3.10196 11.8 3.10295 11.8 3.10394C11.8 3.10494 11.8 3.10593 11.8 3.10693C11.8 3.10793 11.8 3.10893 11.8 3.10992C11.8 3.11092 11.8 3.11192 11.8 3.11292C11.8 3.11392 11.8 3.11493 11.8 3.11593C11.8 3.11693 11.8 3.11794 11.8 3.11894C11.8 3.11995 11.8 3.12095 11.8 3.12196C11.8 3.12297 11.8 3.12398 11.8 3.12498C11.8 3.12599 11.8 3.127 11.8 3.12802C11.8 3.12903 11.8 3.13004 11.8 3.13105C11.8 3.13207 11.8 3.13308 11.8 3.1341C11.8 3.13511 11.8 3.13613 11.8 3.13715C11.8 3.13817 11.8 3.13919 11.8 3.14021C11.8 3.14123 11.8 3.14225 11.8 3.14327C11.8 3.14429 11.8 3.14532 11.8 3.14634C11.8 3.14736 11.8 3.14839 11.8 3.14942C11.8 3.15044 11.8 3.15147 11.8 3.1525C11.8 3.15353 11.8 3.15456 11.8 3.15559C11.8 3.15662 11.8 3.15765 11.8 3.15868C11.8 3.15972 11.8 3.16075 11.8 3.16179C11.8 3.16282 11.8 3.16386 11.8 3.16489C11.8 3.16593 11.8 3.16697 11.8 3.16801C11.8 3.16905 11.8 3.17009 11.8 3.17113C11.8 3.17217 11.8 3.17321 11.8 3.17426C11.8 3.1753 11.8 3.17635 11.8 3.17739C11.8 3.17844 11.8 3.17948 11.8 3.18053C11.8 3.18158 11.8 3.18263 11.8 3.18368C11.8 3.18473 11.8 3.18578 11.8 3.18683C11.8 3.18788 11.8 3.18894 11.8 3.18999C11.8 3.19105 11.8 3.1921 11.8 3.19316C11.8 3.19421 11.8 3.19527 11.8 3.19633C11.8 3.19739 11.8 3.19845 11.8 3.19951C11.8 3.20057 11.8 3.20163 11.8 3.20269C11.8 3.20376 11.8 3.20482 11.8 3.20589C11.8 3.20695 11.8 3.20802 11.8 3.20908C11.8 3.21015 11.8 3.21122 11.8 3.21229C11.8 3.21336 11.8 3.21443 11.8 3.2155C11.8 3.21657 11.8 3.21764 11.8 3.21872C11.8 3.21979 11.8 3.22086 11.8 3.22194C11.8 3.22302 11.8 3.22409 11.8 3.22517C11.8 3.22625 11.8 3.22733 11.8 3.22841C11.8 3.22949 11.8 3.23057 11.8 3.23165C11.8 3.23273 11.8 3.23382 11.8 3.2349C11.8 3.23598 11.8 3.23707 11.8 3.23816C11.8 3.23924 11.8 3.24033 11.8 3.24142C11.8 3.24251 11.8 3.2436 11.8 3.24469C11.8 3.24578 11.8 3.24687 11.8 3.24796C11.8 3.24905 11.8 3.25015 11.8 3.25124C11.8 3.25234 11.8 3.25343 11.8 3.25453C11.8 3.25563 11.8 3.25673 11.8 3.25782C11.8 3.25892 11.8 3.26002 11.8 3.26113C11.8 3.26223 11.8 3.26333 11.8 3.26443C11.8 3.26554 11.8 3.26664 11.8 3.26775C11.8 3.26885 11.8 3.26996 11.8 3.27107C11.8 3.27217 11.8 3.27328 11.8 3.27439C11.8 3.2755 11.8 3.27661 11.8 3.27772C11.8 3.27884 11.8 3.27995 11.8 3.28106C11.8 3.28218 11.8 3.28329 11.8 3.28441C11.8 3.28553 11.8 3.28664 11.8 3.28776C11.8 3.28888 11.8 3.29 11.8 3.29112C11.8 3.29224 11.8 3.29336 11.8 3.29448C11.8 3.29561 11.8 3.29673 11.8 3.29786C11.8 3.29898 11.8 3.30011 11.8 3.30123C11.8 3.30236 11.8 3.30349 11.8 3.30462C11.8 3.30575 11.8 3.30688 11.8 3.30801C11.8 3.30914 11.8 3.31027 11.8 3.3114C11.8 3.31254 11.8 3.31367 11.8 3.31481C11.8 3.31594 11.8 3.31708 11.8 3.31822C11.8 3.31935 11.8 3.32049 11.8 3.32163C11.8 3.32277 11.8 3.32391 11.8 3.32505C11.8 3.3262 11.8 3.32734 11.8 3.32848C11.8 3.32963 11.8 3.33077 11.8 3.33192C11.8 3.33306 11.8 3.33421 11.8 3.33536C11.8 3.33651 11.8 3.33766 11.8 3.33881C11.8 3.33996 11.8 3.34111 11.8 3.34226C11.8 3.34342 11.8 3.34457 11.8 3.34572C11.8 3.34688 11.8 3.34803 11.8 3.34919C11.8 3.35035 11.8 3.35151 11.8 3.35266C11.8 3.35382 11.8 3.35498 11.8 3.35614C11.8 3.35731 11.8 3.35847 11.8 3.35963C11.8 3.36079 11.8 3.36196 11.8 3.36312C11.8 3.36429 11.8 3.36546 11.8 3.36662C11.8 3.36779 11.8 3.36896 11.8 3.37013C11.8 3.3713 11.8 3.37247 11.8 3.37364C11.8 3.37481 11.8 3.37599 11.8 3.37716C11.8 3.37833 11.8 3.37951 11.8 3.38068C11.8 3.38186 11.8 3.38304 11.8 3.38422C11.8 3.38539 11.8 3.38657 11.8 3.38775C11.8 3.38893 11.8 3.39012 11.8 3.3913C11.8 3.39248 11.8 3.39366 11.8 3.39485C11.8 3.39603 11.8 3.39722 11.8 3.39841C11.8 3.39959 11.8 3.40078 11.8 3.40197C11.8 3.40316 11.8 3.40435 11.8 3.40554C11.8 3.40673 11.8 3.40792 11.8 3.40911C11.8 3.41031 11.8 3.4115 11.8 3.4127C11.8 3.41389 11.8 3.41509 11.8 3.41629C11.8 3.41748 11.8 3.41868 11.8 3.41988C11.8 3.42108 11.8 3.42228 11.8 3.42348C11.8 3.42469 11.8 3.42589 11.8 3.42709C11.8 3.4283 11.8 3.4295 11.8 3.43071C11.8 3.43191 11.8 3.43312 11.8 3.43433C11.8 3.43554 11.8 3.43675 11.8 3.43796C11.8 3.43917 11.8 3.44038 11.8 3.44159C11.8 3.4428 11.8 3.44402 11.8 3.44523C11.8 3.44644 11.8 3.44766 11.8 3.44888C11.8 3.45009 11.8 3.45131 11.8 3.45253C11.8 3.45375 11.8 3.45497 11.8 3.45619C11.8 3.45741 11.8 3.45863 11.8 3.45985C11.8 3.46108 11.8 3.4623 11.8 3.46353C11.8 3.46475 11.8 3.46598 11.8 3.46721C11.8 3.46843 11.8 3.46966 11.8 3.47089C11.8 3.47212 11.8 3.47335 11.8 3.47458C11.8 3.47581 11.8 3.47705 11.8 3.47828C11.8 3.47951 11.8 3.48075 11.8 3.48198C11.8 3.48322 11.8 3.48446 11.8 3.4857C11.8 3.48693 11.8 3.48817 11.8 3.48941C11.8 3.49065 11.8 3.49189 11.8 3.49314C11.8 3.49438 11.8 3.49562 11.8 3.49687C11.8 3.49811 11.8 3.49936 11.8 3.5006C11.8 3.50185 11.8 3.5031 11.8 3.50435C11.8 3.50559 11.8 3.50684 11.8 3.5081C11.8 3.50935 11.8 3.5106 11.8 3.51185C11.8 3.5131 11.8 3.51436 11.8 3.51561C11.8 3.51687 11.8 3.51812 11.8 3.51938C11.8 3.52064 11.8 3.5219 11.8 3.52316C11.8 3.52442 11.8 3.52568 11.8 3.52694C11.8 3.5282 11.8 3.52946 11.8 3.53073C11.8 3.53199 11.8 3.53325 11.8 3.53452C11.8 3.53578 11.8 3.53705 11.8 3.53832C11.8 3.53959 11.8 3.54086 11.8 3.54213C11.8 3.5434 11.8 3.54467 11.8 3.54594C11.8 3.54721 11.8 3.54849 11.8 3.54976C11.8 3.55103 11.8 3.55231 11.8 3.55359C11.8 3.55486 11.8 3.55614 11.8 3.55742C11.8 3.5587 11.8 3.55998 11.8 3.56126C11.8 3.56254 11.8 3.56382 11.8 3.5651C11.8 3.56639 11.8 3.56767 11.8 3.56895C11.8 3.57024 11.8 3.57153 11.8 3.57281C11.8 3.5741 11.8 3.57539 11.8 3.57668C11.8 3.57797 11.8 3.57926 11.8 3.58055C11.8 3.58184 11.8 3.58313 11.8 3.58443C11.8 3.58572 11.8 3.58701 11.8 3.58831C11.8 3.58961 11.8 3.5909 11.8 3.5922C11.8 3.5935 11.8 3.5948 11.8 3.5961C11.8 3.5974 11.8 3.5987 11.8 3.6H13.8ZM13.7998 2.41827L13.7598 0.578266L11.7602 0.621734L11.8002 2.46173L13.7998 2.41827ZM12.291 1.48322C15.3838 3.1254 18.2027 4 20.72 4V2C18.6506 2 16.1628 1.2746 13.229 -0.283217L12.291 1.48322ZM19.7224 2.9304C19.3278 8.58608 18.3033 13.7218 16.6579 18.3447L18.5421 19.0153C20.2567 14.1982 21.3122 8.88058 21.7176 3.0696L19.7224 2.9304ZM16.6588 18.3421C16.2876 19.3763 16.0007 20.0659 15.7962 20.4521L17.5638 21.3879C17.8393 20.8675 18.1658 20.0637 18.5412 19.0179L16.6588 18.3421ZM15.7962 20.4521L15.4362 21.1321L17.2038 22.0679L17.5638 21.3879L15.7962 20.4521ZM16.32 20.6C15.2391 20.6 14.121 20.7952 12.9709 21.169L13.5891 23.071C14.5723 22.7515 15.4809 22.6 16.32 22.6V20.6ZM12.9927 21.1622C11.8908 21.4927 10.9773 21.8537 10.2913 22.2591L11.3087 23.9809C11.796 23.693 12.5359 23.3873 13.5673 23.0778L12.9927 21.1622ZM10.3079 22.2494L9.38794 22.7694L10.3721 24.5106L11.2921 23.9906L10.3079 22.2494ZM10.8255 23.9655C11.4054 22.2811 11.9228 20.2461 12.3818 17.8697L10.4182 17.4903C9.97057 19.8072 9.4746 21.7455 8.93446 23.3145L10.8255 23.9655ZM11.1413 16.7141C9.57625 17.1333 8.17189 17.6978 6.93738 18.4155L7.94262 20.1445C9.00144 19.5289 10.2371 19.0267 11.6587 18.6459L11.1413 16.7141ZM6.4469 19.1627L5.8469 24.2427L7.8331 24.4773L8.4331 19.3973L6.4469 19.1627ZM7.13409 23.4042C6.79794 23.3008 6.35281 23.1568 5.79623 22.9713L5.16377 24.8687C5.72719 25.0565 6.18872 25.2059 6.54591 25.3158L7.13409 23.4042ZM5.79623 22.9713C5.3461 22.8213 4.53317 22.4178 3.3062 21.6976L2.2938 23.4224C3.52017 24.1422 4.4939 24.6454 5.16377 24.8687L5.79623 22.9713ZM3.31995 21.7058C2.17193 21.007 1.35046 20.2767 0.808736 19.5318L-0.808736 20.7082C-0.0704552 21.7233 0.974741 22.6197 2.28005 23.4142L3.31995 21.7058ZM0.997055 20.1967C1.20722 17.4645 1.57435 14.9252 2.09619 12.5769L0.143813 12.1431C-0.401016 14.5948 -0.780555 17.2288 -0.997054 20.0433L0.997055 20.1967ZM2.09669 12.5747C2.62879 10.1536 3.09387 8.49335 3.48517 7.53956L1.63483 6.78044C1.1728 7.90665 0.677874 9.71308 0.143311 12.1453L2.09669 12.5747ZM3.4767 7.55958L4.1567 5.99958L2.3233 5.20041L1.6433 6.76041L3.4767 7.55958ZM3.7947 6.43205C5.04383 5.59929 7.22115 4.90414 10.4648 4.42946L10.1752 2.45054C6.85885 2.93586 4.31617 3.6807 2.6853 4.76795L3.7947 6.43205ZM9.34829 3.20382C8.40773 7.07354 7.64195 10.9966 7.05087 14.973L9.02913 15.267C9.61139 11.35 10.3656 7.48646 11.2917 3.67618L9.34829 3.20382ZM8.13054 16.1159C9.67439 15.9755 11.077 15.6644 12.3277 15.17L11.5923 13.31C10.5497 13.7222 9.33894 13.9978 7.94946 14.1241L8.13054 16.1159ZM38.5041 21.52L39.0853 22.3337L39.0884 22.3315L38.5041 21.52ZM34.0641 23.44L33.8588 22.4613L33.8513 22.4629L33.8438 22.4646L34.0641 23.44ZM23.5841 23.68L23.1369 24.5744L23.2372 24.6246L23.3462 24.6513L23.5841 23.68ZM22.6641 23.16L23.2188 22.3279L23.1851 22.3055L23.1497 22.2858L22.6641 23.16ZM21.3441 22.08L20.6522 22.802L20.6602 22.8097L20.6683 22.8172L21.3441 22.08ZM19.9041 20.16L19.0778 19.5967L18.7531 20.073L19.0025 20.5927L19.9041 20.16ZM22.2641 16.16L21.3825 15.6877L21.3761 15.7001L22.2641 16.16ZM24.0241 12.52L23.1091 12.1164L23.1021 12.1324L23.0956 12.1486L24.0241 12.52ZM24.6241 11.16L25.539 11.5636L26.2454 9.96235L24.5072 10.1668L24.6241 11.16ZM21.3041 12.12L20.8138 11.2484L20.8016 11.2553L20.7896 11.2625L21.3041 12.12ZM20.9041 12.36L19.909 12.2605L19.7109 14.2421L21.4186 13.2175L20.9041 12.36ZM21.7441 7.96L22.7019 8.24735L22.7034 8.24217L21.7441 7.96ZM22.8241 5.08L21.9666 4.5655L21.9611 4.57463L21.9558 4.58386L22.8241 5.08ZM23.3041 4.28L23.0087 3.32463L22.6433 3.43759L22.4466 3.7655L23.3041 4.28ZM36.2241 2.4L36.6713 1.50557L36.4601 1.4H36.2241V2.4ZM36.6641 2.6L36.2701 3.51914L36.2913 3.52823L36.3129 3.53633L36.6641 2.6ZM37.8641 3.32L37.3007 4.14623L37.3138 4.15515L37.3272 4.16366L37.8641 3.32ZM39.5041 4.6L38.8163 5.32595L38.8256 5.33474L38.8351 5.34329L39.5041 4.6ZM41.2241 6.68L40.3958 7.24031L40.4014 7.24855L40.4071 7.25668L41.2241 6.68ZM42.8241 9.64L43.7344 10.0538L43.9111 9.66507L43.7525 9.26861L42.8241 9.64ZM40.7041 12.92L39.949 12.2643L39.944 12.2701L39.9392 12.2759L40.7041 12.92ZM38.5041 15.08L37.933 14.2591L37.9244 14.2651L37.9159 14.2713L38.5041 15.08ZM37.6241 15.72L37.0359 14.9113L35.8618 15.7652L37.0781 16.5578L37.6241 15.72ZM41.1841 18.04L42.1327 18.3562L42.3769 17.6238L41.73 17.2022L41.1841 18.04ZM37.2641 9.96L38.1871 10.3446L38.7308 9.03994L37.3195 8.96154L37.2641 9.96ZM30.7841 9.96L30.7397 8.96099L30.0245 8.99277L29.8241 9.68L30.7841 9.96ZM29.2241 14.52L28.2818 14.185L27.8072 15.52H29.2241V14.52ZM32.5841 14.08L32.8621 15.0406L32.8737 15.0372L32.8852 15.0336L32.5841 14.08ZM34.9441 12.92L34.3238 12.1355L34.3149 12.1428L34.9441 12.92ZM37.0641 10.44L36.141 10.0554L36.131 10.0793L36.1223 10.1037L37.0641 10.44ZM34.6241 18.84L35.1455 19.6933L36.0839 19.1198L35.4241 18.24L34.6241 18.84ZM34.1841 18.44L33.5333 19.1993L33.558 19.2205L33.5841 19.24L34.1841 18.44ZM32.5841 17.84L32.2858 18.7945L32.3033 18.7999L32.3209 18.8048L32.5841 17.84ZM29.5441 17.44V16.44H28.8927L28.6294 17.0358L29.5441 17.44ZM27.7041 20.68L26.8889 20.1008L25.7393 21.7187L27.7237 21.6798L27.7041 20.68ZM31.4641 20.2L31.7119 21.1688L31.7224 21.1661L31.7329 21.1632L31.4641 20.2ZM37.9228 20.7063C36.7346 21.555 35.384 22.1415 33.8588 22.4613L34.2693 24.4187C36.0508 24.0452 37.6602 23.3516 39.0853 22.3337L37.9228 20.7063ZM33.8438 22.4646C32.2198 22.8313 30.9086 23.0318 29.8953 23.0812L29.9928 25.0788C31.1662 25.0216 32.6016 24.7954 34.2843 24.4154L33.8438 22.4646ZM29.8953 23.0812C28.8156 23.1339 27.8187 23.16 26.9041 23.16V25.16C27.8561 25.16 28.8859 25.1328 29.9928 25.0788L29.8953 23.0812ZM26.9041 23.16C26.106 23.16 25.0844 23.0179 23.8219 22.7087L23.3462 24.6513C24.6971 24.9821 25.8888 25.16 26.9041 25.16V23.16ZM24.0313 22.7856C23.6802 22.61 23.4128 22.4573 23.2188 22.3279L22.1094 23.9921C22.3954 24.1827 22.7413 24.3766 23.1369 24.5744L24.0313 22.7856ZM23.1497 22.2858C23.0314 22.2201 22.6783 21.9464 22.0198 21.3428L20.6683 22.8172C21.2899 23.3869 21.8168 23.8332 22.1784 24.0342L23.1497 22.2858ZM22.036 21.358C21.4659 20.8117 21.0645 20.2666 20.8056 19.7273L19.0025 20.5927C19.3837 21.3868 19.9423 22.1217 20.6522 22.802L22.036 21.358ZM20.7303 20.7233C21.5566 19.5114 22.3635 18.1426 23.1521 16.6199L21.3761 15.7001C20.618 17.1641 19.8515 18.4619 19.0778 19.5967L20.7303 20.7233ZM23.1455 16.6322C23.953 15.125 24.5593 13.8746 24.9525 12.8914L23.0956 12.1486C22.7422 13.0321 22.1752 14.2083 21.3826 15.6878L23.1455 16.6322ZM24.939 12.9236L25.539 11.5636L23.7091 10.7564L23.1091 12.1164L24.939 12.9236ZM24.5072 10.1668C23.0646 10.3366 21.8185 10.6833 20.8138 11.2484L21.7943 12.9916C22.4963 12.5967 23.4635 12.3034 24.7409 12.1532L24.5072 10.1668ZM20.7896 11.2625L20.3896 11.5025L21.4186 13.2175L21.8186 12.9775L20.7896 11.2625ZM21.8991 12.4595C22.0537 10.9136 22.3228 9.51084 22.7019 8.24735L20.7862 7.67265C20.3653 9.07583 20.0744 10.6064 19.909 12.2605L21.8991 12.4595ZM22.7034 8.24217C23.1012 6.8898 23.4346 6.02709 23.6923 5.57614L21.9558 4.58386C21.5735 5.25291 21.1869 6.3102 20.7847 7.67783L22.7034 8.24217ZM23.6816 5.5945L24.1616 4.79449L22.4466 3.7655L21.9666 4.5655L23.6816 5.5945ZM23.5995 5.23537C27.5502 4.01375 31.7567 3.4 36.2241 3.4V1.4C31.5714 1.4 27.1646 2.03958 23.0087 3.32463L23.5995 5.23537ZM35.7768 3.29442C35.909 3.36048 36.0761 3.43597 36.2701 3.51914L37.058 1.68085C36.8787 1.60403 36.7525 1.54618 36.6713 1.50557L35.7768 3.29442ZM36.3129 3.53633C36.3117 3.53585 36.3182 3.53827 36.3338 3.54546C36.3489 3.55247 36.3697 3.56258 36.3965 3.57658C36.4507 3.60488 36.5212 3.64444 36.6096 3.69749C36.7868 3.80385 37.0161 3.95214 37.3007 4.14623L38.4274 2.49377C37.8608 2.10747 37.3611 1.7934 37.0152 1.66367L36.3129 3.53633ZM37.3272 4.16366C37.8597 4.50254 38.3559 4.88976 38.8163 5.32595L40.1918 3.87405C39.6389 3.35024 39.0417 2.88412 38.4009 2.47634L37.3272 4.16366ZM38.8351 5.34329C39.2854 5.74852 39.8068 6.36965 40.3958 7.24031L42.0523 6.11969C41.4147 5.17702 40.7894 4.41148 40.173 3.8567L38.8351 5.34329ZM40.4071 7.25668C41.0005 8.0973 41.4969 9.01472 41.8956 10.0114L43.7525 9.26861C43.2979 8.13195 42.7277 7.07603 42.041 6.10332L40.4071 7.25668ZM41.9137 9.2262C41.4218 10.3083 40.7685 11.3207 39.949 12.2643L41.4591 13.5757C42.3996 12.4926 43.1596 11.3184 43.7344 10.0538L41.9137 9.2262ZM39.9392 12.2759C39.106 13.2652 38.4392 13.9069 37.933 14.2591L39.0751 15.9009C39.7956 15.3997 40.5955 14.6014 41.469 13.5641L39.9392 12.2759ZM37.9159 14.2713L37.0359 14.9113L38.2122 16.5287L39.0922 15.8887L37.9159 14.2713ZM37.0781 16.5578L40.6381 18.8778L41.73 17.2022L38.17 14.8822L37.0781 16.5578ZM40.2354 17.7238C39.8579 18.8563 39.1085 19.8526 37.9198 20.7085L39.0884 22.3315C40.5663 21.2674 41.6036 19.9437 42.1327 18.3562L40.2354 17.7238ZM37.3195 8.96154C36.3388 8.90705 35.2934 8.88 34.1841 8.88V10.88C35.2613 10.88 36.2694 10.9063 37.2086 10.9585L37.3195 8.96154ZM34.1841 8.88C33.1009 8.88 31.9526 8.90708 30.7397 8.96099L30.8285 10.959C32.0155 10.9063 33.1339 10.88 34.1841 10.88V8.88ZM29.8241 9.68C29.6473 10.2862 29.1385 11.7757 28.2818 14.185L30.1663 14.855C31.0163 12.4643 31.5475 10.9138 31.7441 10.24L29.8241 9.68ZM29.2241 15.52C30.5299 15.52 31.7451 15.3639 32.8621 15.0406L32.306 13.1194C31.3963 13.3828 30.3716 13.52 29.2241 13.52V15.52ZM32.8852 15.0336C33.9664 14.6921 34.8813 14.2574 35.5733 13.6972L34.3149 12.1428C33.8869 12.4892 33.2284 12.8279 32.2829 13.1264L32.8852 15.0336ZM35.5643 13.7044C36.7521 12.7652 37.6424 11.7939 38.0058 10.7763L36.1223 10.1037C35.9524 10.5794 35.4294 11.2614 34.3238 12.1356L35.5643 13.7044ZM37.9871 10.8246L38.1871 10.3446L36.341 9.57538L36.141 10.0554L37.9871 10.8246ZM35.4241 18.24C35.2552 18.0148 35.0134 17.812 34.7841 17.64L33.5841 19.24C33.6735 19.3071 33.7377 19.3602 33.7814 19.3999C33.8282 19.4425 33.8355 19.4552 33.8241 19.44L35.4241 18.24ZM34.8349 17.6807C34.5951 17.4752 34.265 17.3348 33.9952 17.2337C33.6878 17.1184 33.3016 16.9992 32.8472 16.8752L32.3209 18.8048C32.7466 18.9208 33.067 19.0216 33.2929 19.1063C33.4058 19.1486 33.483 19.1825 33.5318 19.2069C33.5888 19.2354 33.5753 19.2353 33.5333 19.1993L34.8349 17.6807ZM32.8823 16.8855C31.9077 16.5809 30.7889 16.44 29.5441 16.44V18.44C30.6459 18.44 31.5538 18.5657 32.2858 18.7945L32.8823 16.8855ZM28.6294 17.0358C28.1497 18.1215 27.5696 19.1428 26.8889 20.1008L28.5192 21.2592C29.2785 20.1906 29.9251 19.0519 30.4588 17.8442L28.6294 17.0358ZM27.7237 21.6798C29.1495 21.6518 30.4805 21.4838 31.7119 21.1688L31.2162 19.2312C30.1543 19.5029 28.9786 19.6548 27.6845 19.6802L27.7237 21.6798ZM31.7329 21.1632C32.8923 20.8396 33.8198 20.5034 34.4255 20.1333L33.3826 18.4267C33.0283 18.6433 32.3291 18.9204 31.1953 19.2368L31.7329 21.1632ZM34.4255 20.1333L35.1455 19.6933L34.1026 17.9867L33.3826 18.4267L34.4255 20.1333ZM53.9538 2.2L54.9515 2.26652L55.0283 1.11438L53.8771 1.20294L53.9538 2.2ZM53.8738 13.08L54.863 12.9334L54.861 12.9208L53.8738 13.08ZM54.0338 14.16L53.0445 14.3065L53.6021 18.0701L54.9672 14.5188L54.0338 14.16ZM59.1538 0.839999L59.6576 -0.0237796L58.6421 -0.616145L58.2203 0.481208L59.1538 0.839999ZM66.7538 3.64L67.7527 3.6849L67.7913 2.82612L66.9481 2.65906L66.7538 3.64ZM65.7538 11.64L66.7363 11.8259L65.7538 11.64ZM64.1538 18.72L63.1928 18.4434L64.1538 18.72ZM63.3938 21.36L63.9448 22.1945L64.2527 21.9912L64.3547 21.6366L63.3938 21.36ZM56.5538 23.44L55.5922 23.1653L55.168 24.65L56.6964 24.4298L56.5538 23.44ZM57.9538 17.52L56.9726 17.3265L56.9701 17.3399L57.9538 17.52ZM58.6338 13.4L59.6294 13.4933L59.6309 13.4769L59.6319 13.4605L58.6338 13.4ZM58.7138 12.08L59.7119 12.1405L57.8109 11.6501L58.7138 12.08ZM57.6338 14.24L56.7448 13.782L56.7392 13.7928L56.7339 13.8037L57.6338 14.24ZM55.1938 18.36L54.3526 17.8192L54.3506 17.8223L55.1938 18.36ZM52.0338 22.32L51.1393 22.7672L51.7121 23.9128L52.6845 23.0793L52.0338 22.32ZM50.7138 18.24L49.7369 18.4537L50.7138 18.24ZM49.9538 13.88L50.9476 13.7696V13.7696L49.9538 13.88ZM49.7538 12.08L50.7476 11.9696L50.3737 8.60406L48.8593 11.6328L49.7538 12.08ZM49.1138 13.48L48.1967 13.0813L48.1893 13.0983L48.1825 13.1156L49.1138 13.48ZM48.1138 17.84L47.1306 17.6571L47.1286 17.6682L48.1138 17.84ZM47.5138 25.32L47.0665 26.2144L48.5138 26.938V25.32H47.5138ZM46.2338 24.64L45.7327 25.5054L45.7422 25.5109L45.7518 25.5162L46.2338 24.64ZM43.9538 22.88L43.2981 23.635L43.9538 22.88ZM41.9137 20.28L40.9174 20.1946L40.8969 20.4339L40.9873 20.6564L41.9137 20.28ZM43.1138 12.24L44.0907 12.4537L44.0911 12.4516L43.1138 12.24ZM44.6338 6.6L45.5666 6.9604L45.5714 6.94777L45.576 6.93501L44.6338 6.6ZM45.2738 4.8L44.7918 3.92378L44.4588 4.10692L44.3315 4.46499L45.2738 4.8ZM49.3538 3.16L49.6468 4.11616L49.6563 4.11312L49.3538 3.16ZM52.956 2.13348C52.7697 4.92715 52.6738 6.81423 52.6738 7.76H54.6738C54.6738 6.89243 54.7645 5.07285 54.9515 2.26652L52.956 2.13348ZM52.6738 7.76C52.6738 10.4617 52.738 12.3188 52.8865 13.2392L54.861 12.9208C54.7428 12.1879 54.6738 10.4983 54.6738 7.76H52.6738ZM52.8845 13.2265L53.0445 14.3065L55.023 14.0135L54.863 12.9335L52.8845 13.2265ZM54.9672 14.5188L60.0872 1.19879L58.2203 0.481208L53.1003 13.8012L54.9672 14.5188ZM58.6499 1.70378C60.9959 3.07228 63.6358 4.04173 66.5594 4.62093L66.9481 2.65906C64.2184 2.11827 61.7916 1.22105 59.6576 -0.0237796L58.6499 1.70378ZM65.7548 3.5951C65.6507 5.91054 65.3246 8.52896 64.7712 11.4541L66.7363 11.8259C67.3029 8.83104 67.6435 6.11612 67.7527 3.6849L65.7548 3.5951ZM64.7712 11.4541C64.2138 14.4003 63.6871 16.7261 63.1928 18.4434L65.1147 18.9966C65.6337 17.1939 66.1737 14.7997 66.7363 11.8259L64.7712 11.4541ZM63.1928 18.4434L62.4328 21.0834L64.3547 21.6366L65.1147 18.9966L63.1928 18.4434ZM62.8427 20.5255C61.6182 21.3341 59.518 22.0026 56.4112 22.4502L56.6964 24.4298C59.8828 23.9707 62.3426 23.2525 63.9448 22.1945L62.8427 20.5255ZM57.5153 23.7147C58.1099 21.6336 58.5843 19.6285 58.9374 17.7001L56.9701 17.3399C56.6299 19.1981 56.1709 21.1398 55.5922 23.1653L57.5153 23.7147ZM58.9349 17.7135C59.3087 15.8175 59.5443 14.4012 59.6294 13.4933L57.6381 13.3067C57.5632 14.1055 57.3455 15.4359 56.9726 17.3265L58.9349 17.7135ZM59.6319 13.4605L59.7119 12.1405L57.7156 12.0195L57.6356 13.3395L59.6319 13.4605ZM57.8109 11.6501C57.5505 12.1968 57.1958 12.9066 56.7448 13.782L58.5227 14.698C58.9784 13.8134 59.3436 13.0832 59.6166 12.5099L57.8109 11.6501ZM56.7339 13.8037C56.3356 14.6252 55.551 15.955 54.3526 17.8192L56.0349 18.9008C57.2365 17.0317 58.0785 15.6148 58.5336 14.6763L56.7339 13.8037ZM54.3506 17.8223C53.1959 19.633 52.2052 20.856 51.383 21.5607L52.6845 23.0793C53.729 22.184 54.8449 20.767 56.0369 18.8977L54.3506 17.8223ZM52.9282 21.8728C52.4729 20.9621 52.0547 19.6906 51.6907 18.0263L49.7369 18.4537C50.1194 20.2027 50.5813 21.6512 51.1393 22.7672L52.9282 21.8728ZM51.6907 18.0263C51.3218 16.3401 51.0758 14.9233 50.9476 13.7696L48.9599 13.9904C49.0983 15.2367 49.359 16.7266 49.7369 18.4537L51.6907 18.0263ZM50.9476 13.7696L50.7476 11.9696L48.7599 12.1904L48.9599 13.9904L50.9476 13.7696ZM48.8593 11.6328C48.6872 11.977 48.4655 12.463 48.1967 13.0813L50.0308 13.8787C50.2953 13.2703 50.5003 12.823 50.6482 12.5272L48.8593 11.6328ZM48.1825 13.1156C47.9009 13.8353 47.5522 15.391 47.1306 17.6571L49.0969 18.0229C49.5286 15.7023 49.8466 14.3514 50.045 13.8444L48.1825 13.1156ZM47.1286 17.6682C46.7173 20.0262 46.5138 22.5778 46.5138 25.32H48.5138C48.5138 22.6755 48.7102 20.2404 49.0989 18.0118L47.1286 17.6682ZM47.961 24.4256C47.6579 24.2741 47.2443 24.0545 46.7157 23.7638L45.7518 25.5162C46.2899 25.8122 46.7296 26.0459 47.0665 26.2144L47.961 24.4256ZM46.7348 23.7746C46.3179 23.5332 45.6201 23.0027 44.6094 22.125L43.2981 23.635C44.314 24.5173 45.1362 25.1601 45.7327 25.5054L46.7348 23.7746ZM44.6094 22.125C43.6646 21.3044 43.1068 20.5599 42.8402 19.9036L40.9873 20.6564C41.414 21.7067 42.2163 22.6956 43.2981 23.635L44.6094 22.125ZM42.9101 20.3654C43.1467 17.6055 43.5405 14.9685 44.0907 12.4537L42.1369 12.0263C41.567 14.6315 41.1608 17.3545 40.9174 20.1946L42.9101 20.3654ZM44.0911 12.4516C44.6494 9.87297 45.1429 8.05695 45.5666 6.9604L43.701 6.2396C43.218 7.48971 42.6981 9.4337 42.1364 12.0284L44.0911 12.4516ZM45.576 6.93501L46.216 5.13501L44.3315 4.46499L43.6915 6.26499L45.576 6.93501ZM45.7557 5.67622C46.7431 5.13315 48.034 4.61034 49.6468 4.11611L49.0607 2.20389C47.3668 2.723 45.9378 3.29352 44.7918 3.92378L45.7557 5.67622ZM49.6563 4.11312C51.2815 3.5972 52.7377 3.29649 54.0304 3.19705L53.8771 1.20294C52.3965 1.31684 50.786 1.65613 49.0512 2.20687L49.6563 4.11312ZM80.9584 21.12L81.4536 21.9888L81.4606 21.9848L80.9584 21.12ZM69.1584 24.08L68.5772 24.8937L68.8853 25.1138L69.2618 25.0746L69.1584 24.08ZM68.2784 23.12L69.0633 22.5004L68.2784 23.12ZM67.2384 21.64L66.3825 22.1571L66.3852 22.1614L67.2384 21.64ZM65.5184 17.16L65.6657 16.1709L64.2317 15.9573L64.5415 17.3737L65.5184 17.16ZM69.2784 17.72L69.1311 18.7091L69.1507 18.712L69.1704 18.7141L69.2784 17.72ZM76.9584 15.96H77.9584V15.0443L77.0463 14.9639L76.9584 15.96ZM69.2384 14.48L68.8234 15.3898L68.8301 15.3929L68.8368 15.3958L69.2384 14.48ZM71.4784 4.76L71.0281 3.86716V3.86716L71.4784 4.76ZM83.7184 2.48L84.708 2.33598L84.5834 1.48H83.7184V2.48ZM84.9584 11L84.6813 11.9608L86.1714 12.3907L85.948 10.856L84.9584 11ZM73.5984 9.6L73.6262 8.60039L71.6394 8.5452L72.7792 10.1735L73.5984 9.6ZM76.3984 11.48L76.0707 12.4248L76.3984 11.48ZM80.1184 12.4L79.9833 13.3908L79.9863 13.3912L80.1184 12.4ZM83.2784 13.52L82.7351 14.3596L82.7463 14.3666L83.2784 13.52ZM83.6784 16.04C83.6784 17.4779 82.7877 18.9015 80.4563 20.2552L81.4606 21.9848C84.0892 20.4585 85.6784 18.4954 85.6784 16.04H83.6784ZM80.4633 20.2512C78.1688 21.5588 74.4055 22.5291 69.055 23.0854L69.2618 25.0746C74.6847 24.5109 78.7881 23.5078 81.4536 21.9888L80.4633 20.2512ZM69.7397 23.2663C69.7423 23.2681 69.725 23.2557 69.6851 23.218C69.6469 23.182 69.5974 23.1317 69.5356 23.0643C69.4114 22.9288 69.2547 22.7427 69.0633 22.5004L67.4936 23.7396C67.8823 24.2321 68.2575 24.6654 68.5772 24.8937L69.7397 23.2663ZM69.0633 22.5004C68.6845 22.0206 68.3615 21.5599 68.0917 21.1185L66.3852 22.1614C66.7021 22.68 67.0723 23.2061 67.4936 23.7396L69.0633 22.5004ZM68.0944 21.1229C67.3863 19.951 66.8491 18.5635 66.4953 16.9463L64.5415 17.3737C64.9344 19.1698 65.5439 20.769 66.3825 22.1571L68.0944 21.1229ZM65.3711 18.1491L69.1311 18.7091L69.4258 16.7309L65.6657 16.1709L65.3711 18.1491ZM69.1704 18.7141C70.4223 18.8502 71.5397 18.92 72.5184 18.92V16.92C71.6305 16.92 70.5879 16.8564 69.3865 16.7259L69.1704 18.7141ZM72.5184 18.92C74.0411 18.92 75.3194 18.7566 76.2523 18.3448C76.7302 18.1338 77.1638 17.8375 77.479 17.4201C77.8037 16.9901 77.9584 16.4893 77.9584 15.96H75.9584C75.9584 16.084 75.9282 16.1549 75.8829 16.2149C75.828 16.2875 75.7066 16.3995 75.4446 16.5152C74.8975 16.7567 73.9558 16.92 72.5184 16.92V18.92ZM77.0463 14.9639C73.4301 14.6448 70.999 14.1602 69.6401 13.5642L68.8368 15.3958C70.5179 16.1331 73.2334 16.6352 76.8705 16.9561L77.0463 14.9639ZM69.6534 13.5702C69.0412 13.2909 68.6355 12.9337 68.3759 12.5192C68.1148 12.1023 67.9584 11.5587 67.9584 10.84H65.9584C65.9584 11.8546 66.1821 12.7844 66.681 13.5808C67.1813 14.3797 67.9157 14.9758 68.8234 15.3898L69.6534 13.5702ZM67.9584 10.84C67.9584 8.81122 69.1217 7.06881 71.9288 5.65284L71.0281 3.86716C67.8085 5.49119 65.9584 7.80211 65.9584 10.84H67.9584ZM71.9288 5.65284C74.7483 4.23062 78.6535 3.48 83.7184 3.48V1.48C78.4901 1.48 74.2353 2.24937 71.0281 3.86716L71.9288 5.65284ZM82.7289 2.62402L83.9689 11.144L85.948 10.856L84.708 2.33598L82.7289 2.62402ZM85.2356 10.0392C82.3453 9.20543 78.4628 8.73473 73.6262 8.60039L73.5707 10.5996C78.3341 10.7319 82.0249 11.1946 84.6813 11.9608L85.2356 10.0392ZM72.7792 10.1735C73.5008 11.2043 74.6453 11.9302 76.0707 12.4248L76.7262 10.5352C75.5383 10.1231 74.8161 9.59572 74.4177 9.02654L72.7792 10.1735ZM76.0707 12.4248C77.4297 12.8963 78.7346 13.2205 79.9833 13.3908L80.2535 11.4092C79.1556 11.2595 77.9805 10.9704 76.7262 10.5352L76.0707 12.4248ZM79.9863 13.3912C81.0576 13.5341 81.9669 13.8625 82.7352 14.3596L83.8217 12.6804C82.7766 12.0042 81.5793 11.5859 80.2506 11.4088L79.9863 13.3912ZM82.7463 14.3666C83.3914 14.7722 83.6784 15.294 83.6784 16.04H85.6784C85.6784 14.5993 85.0321 13.4412 83.8106 12.6734L82.7463 14.3666Z" fill="#EAECF0" mask="url(#path-1-outside-1_190_294)"/>
<defs>
<linearGradient id="paint0_linear_190_294" x1="-2" y1="12" x2="84" y2="12" gradientUnits="userSpaceOnUse">
<stop stop-color="#018969"/>
<stop offset="1" stop-color="#50CAAD"/>
</linearGradient>
</defs>
</svg>
