<svg width="105" height="104" viewBox="0 0 105 104" fill="none" xmlns="http://www.w3.org/2000/svg">
<circle cx="52.4023" cy="52" r="52" fill="#D1FADF"/>
<g clip-path="url(#clip0_190_5459)">
<path d="M76 53.5C76 51.1431 74.9065 49.036 73.2006 47.6597C74.0042 46.8468 74.5 45.7304 74.5 44.5C74.5 39.1739 70.5126 34.7609 65.3669 34.0885C64.7046 30.6258 61.6533 28 58 28C55.5494 28 53.3695 29.1813 52 31.0045C50.6305 29.1813 48.4506 28 46 28C42.3468 28 39.2954 30.6258 38.6331 34.0885C33.4874 34.7609 29.5 39.1739 29.5 44.5C29.5 45.7304 29.9958 46.8468 30.7994 47.6597C29.0935 49.036 28 51.1431 28 53.5C28 56.2743 29.5146 58.7024 31.7601 59.9995C31.2805 60.715 31 61.5756 31 62.5C31 64.4965 32.3065 66.193 34.1091 66.7803C34.6518 69.9224 37.1575 72.4015 40.3127 72.9062C41.1205 74.6815 43.3986 76 46 76C48.2714 76 50.5585 75.2346 52 73.7455C53.4415 75.2346 55.7286 76 58 76C60.6017 76 62.8795 74.6815 63.6872 72.9062C66.8425 72.4015 69.3483 69.9224 69.8909 66.7803C71.6935 66.193 73 64.4965 73 62.5C73 61.5756 72.7195 60.715 72.2399 59.9995C74.4854 58.7024 76 56.2743 76 53.5ZM46 73C44.1644 73 43 71.9451 43 71.5C43 69.8455 44.3455 68.5 46 68.5C46.8284 68.5 47.5 67.8284 47.5 67C47.5 66.1716 46.8284 65.5 46 65.5C43.2831 65.5 41.0084 67.327 40.2726 69.8084C38.3901 69.2702 37 67.5531 37 65.5C37 64.6716 36.3284 64 35.5 64C34.6731 64 34 63.3269 34 62.5C34 61.6731 34.6731 61 35.5 61C39.6351 61 43 57.6351 43 53.5C43 52.6716 42.3284 52 41.5 52C40.6716 52 40 52.6716 40 53.5C40 55.9814 37.9814 58 35.5 58C33.0186 58 31 55.9814 31 53.5C31 51.0186 33.0186 49 35.5 49C36.3284 49 37 48.3284 37 47.5C37 46.6716 36.3284 46 35.5 46H34C33.1731 46 32.5 45.3269 32.5 44.5C32.5 40.3649 35.8649 37 40 37C42.4814 37 44.5 39.0186 44.5 41.5C44.5 42.3284 45.1716 43 46 43C46.8284 43 47.5 42.3284 47.5 41.5C47.5 37.9551 45.0205 34.993 41.7096 34.2149C42.2665 32.362 43.9683 31 46 31C48.4814 31 50.5 33.0186 50.5 35.5V70C50.5 72.373 47.5562 73 46 73ZM68.5 58C66.0186 58 64 55.9814 64 53.5C64 52.6716 63.3284 52 62.5 52C61.6716 52 61 52.6716 61 53.5C61 57.6351 64.3649 61 68.5 61C69.3269 61 70 61.6731 70 62.5C70 63.3269 69.3269 64 68.5 64C67.6716 64 67 64.6716 67 65.5C67 67.5531 65.6099 69.2702 63.7274 69.8084C62.9916 67.327 60.7169 65.5 58 65.5C57.1716 65.5 56.5 66.1716 56.5 67C56.5 67.8284 57.1716 68.5 58 68.5C59.6545 68.5 61 69.8455 61 71.5C61 71.9455 59.8356 73 58 73C56.4438 73 53.5 72.373 53.5 70V35.5C53.5 33.0186 55.5186 31 58 31C60.0317 31 61.7335 32.362 62.2904 34.2149C58.9795 34.993 56.5 37.9551 56.5 41.5C56.5 42.3284 57.1716 43 58 43C58.8284 43 59.5 42.3284 59.5 41.5C59.5 39.0186 61.5186 37 64 37C68.1351 37 71.5 40.3649 71.5 44.5C71.5 45.3269 70.8269 46 70 46H68.5C67.6716 46 67 46.6716 67 47.5C67 48.3284 67.6716 49 68.5 49C70.9814 49 73 51.0186 73 53.5C73 55.9814 70.9814 58 68.5 58Z" fill="#05603A"/>
</g>
<defs>
<clipPath id="clip0_190_5459">
<rect width="48" height="48" fill="white" transform="translate(28 28)"/>
</clipPath>
</defs>
</svg>
