<svg width="103" height="104" viewBox="0 0 103 104" fill="none" xmlns="http://www.w3.org/2000/svg">
<ellipse cx="51.4023" cy="52" rx="50.7148" ry="52" fill="#DBDAF4"/>
<mask id="path-2-inside-1_190_4478" fill="white">
<path d="M61.25 71.936C61.664 71.936 62 71.6 62 71.186V65.4935L67.0565 61.5305C67.6895 61.0265 68.537 60.038 68.8685 59.252L72.4385 50.9525C72.479 50.8595 72.5 50.7575 72.5 50.6555V43.427C72.5 42.494 71.4425 41.8055 70.421 41.681C69.155 41.5175 67.5635 42.206 66.9635 44.6015C66.6545 45.845 66.5855 46.8965 66.524 47.8235C66.4955 48.236 66.8075 48.6245 67.2215 48.6515C67.6355 48.68 67.991 48.3965 68.0165 47.984C68.078 47.057 68.1425 46.0775 68.42 44.963C68.609 44.21 69.014 43.2845 69.8795 43.169C70.4585 43.0865 70.943 43.397 71.0225 43.538L71 50.501L67.4885 58.6655C67.2695 59.189 66.5885 59.9855 66.1265 60.3545L60.7865 64.5395C60.605 64.6805 60.5 64.898 60.5 65.129V71.186C60.5 71.6 60.836 71.936 61.25 71.936Z"/>
</mask>
<path d="M61.25 71.936C61.664 71.936 62 71.6 62 71.186V65.4935L67.0565 61.5305C67.6895 61.0265 68.537 60.038 68.8685 59.252L72.4385 50.9525C72.479 50.8595 72.5 50.7575 72.5 50.6555V43.427C72.5 42.494 71.4425 41.8055 70.421 41.681C69.155 41.5175 67.5635 42.206 66.9635 44.6015C66.6545 45.845 66.5855 46.8965 66.524 47.8235C66.4955 48.236 66.8075 48.6245 67.2215 48.6515C67.6355 48.68 67.991 48.3965 68.0165 47.984C68.078 47.057 68.1425 46.0775 68.42 44.963C68.609 44.21 69.014 43.2845 69.8795 43.169C70.4585 43.0865 70.943 43.397 71.0225 43.538L71 50.501L67.4885 58.6655C67.2695 59.189 66.5885 59.9855 66.1265 60.3545L60.7865 64.5395C60.605 64.6805 60.5 64.898 60.5 65.129V71.186C60.5 71.6 60.836 71.936 61.25 71.936Z" fill="#6425D3"/>
<path d="M62 65.4935L58.9157 61.5582L57 63.0596V65.4935H62ZM67.0565 61.5305L70.1408 65.4659L70.1559 65.4541L70.1709 65.4421L67.0565 61.5305ZM68.8685 59.252L64.2754 57.2763L64.2684 57.2926L64.2615 57.309L68.8685 59.252ZM72.4385 50.9525L67.8543 48.9562L67.8498 48.9665L67.8454 48.9768L72.4385 50.9525ZM70.421 41.681L69.7806 46.6398L69.7983 46.6421L69.8161 46.6443L70.421 41.681ZM66.9635 44.6015L62.1133 43.3867L62.1111 43.3957L66.9635 44.6015ZM66.524 47.8235L71.5121 48.1682L71.513 48.1545L66.524 47.8235ZM67.2215 48.6515L67.5649 43.6633L67.5559 43.6627L67.5469 43.6621L67.2215 48.6515ZM68.0165 47.984L63.0275 47.653L63.0267 47.6643L63.026 47.6755L68.0165 47.984ZM68.42 44.963L63.5704 43.7458L63.5681 43.755L68.42 44.963ZM69.8795 43.169L70.5409 48.1251L70.5629 48.1222L70.5848 48.119L69.8795 43.169ZM71.0225 43.538L76.0225 43.5542L76.0267 42.2331L75.3779 41.0823L71.0225 43.538ZM71 50.501L75.5932 52.4765L75.9967 51.5384L76 50.5172L71 50.501ZM67.4885 58.6655L62.8953 56.69L62.8855 56.7129L62.8759 56.7359L67.4885 58.6655ZM66.1265 60.3545L69.2107 64.29L69.2289 64.2757L69.2469 64.2613L66.1265 60.3545ZM60.7865 64.5395L63.8539 68.488L63.8623 68.4815L63.8707 68.475L60.7865 64.5395ZM61.25 76.936C64.4254 76.936 67 74.3615 67 71.186H57C57 68.8386 58.9026 66.936 61.25 66.936V76.936ZM67 71.186V65.4935H57V71.186H67ZM65.0843 69.4289L70.1408 65.4659L63.9722 57.5952L58.9157 61.5582L65.0843 69.4289ZM70.1709 65.4421C71.26 64.5749 72.733 62.9556 73.4755 61.1951L64.2615 57.309C64.294 57.2319 64.3193 57.1839 64.3288 57.1664C64.339 57.1477 64.3408 57.1461 64.3311 57.1612C64.3097 57.1945 64.2653 57.2577 64.1979 57.3404C64.1318 57.4218 64.0628 57.4979 64.0025 57.559C63.9377 57.6246 63.9139 57.6414 63.9421 57.619L70.1709 65.4421ZM73.4616 61.2277L77.0316 52.9282L67.8454 48.9768L64.2754 57.2763L73.4616 61.2277ZM77.0227 52.9489C77.3414 52.217 77.5 51.4345 77.5 50.6555H67.5C67.5 50.0806 67.6166 49.5021 67.8543 48.9562L77.0227 52.9489ZM77.5 50.6555V43.427H67.5V50.6555H77.5ZM77.5 43.427C77.5 40.9219 76.0697 39.2017 74.9093 38.301C73.7401 37.3935 72.3502 36.8792 71.0259 36.7178L69.8161 46.6443C69.5133 46.6074 69.1629 46.4995 68.7778 46.2007C68.4016 45.9086 67.5 44.9991 67.5 43.427H77.5ZM71.0614 36.7222C69.2887 36.4933 67.2828 36.8646 65.5349 38.114C63.7618 39.3814 62.6443 41.2669 62.1133 43.3867L71.8137 45.8164C71.8827 45.5406 71.8609 45.8842 71.3501 46.2493C70.8645 46.5964 70.2873 46.7053 69.7806 46.6398L71.0614 36.7222ZM62.1111 43.3957C61.684 45.1145 61.5966 46.5639 61.535 47.4925L71.513 48.1545C71.5744 47.2291 71.625 46.5756 71.8159 45.8073L62.1111 43.3957ZM61.5359 47.4789C61.3335 50.4088 63.4801 53.4182 66.8961 53.6409L67.5469 43.6621C70.1349 43.8309 71.6575 46.0633 71.5121 48.1682L61.5359 47.4789ZM66.8781 53.6397C69.779 53.8394 72.7933 51.7485 73.007 48.2925L63.026 47.6755C63.1887 45.0446 65.492 43.5206 67.5649 43.6633L66.8781 53.6397ZM73.0055 48.315C73.0683 47.3696 73.115 46.8012 73.2719 46.1711L63.5681 43.755C63.17 45.3538 63.0877 46.7445 63.0275 47.653L73.0055 48.315ZM73.2696 46.1803C73.2963 46.0737 73.2634 46.2991 73.0199 46.6543C72.732 47.0743 71.9367 47.9388 70.5409 48.1251L69.2181 38.213C66.9568 38.5147 65.5263 39.8998 64.7722 40.9996C64.0626 42.0347 63.7327 43.0994 63.5704 43.7458L73.2696 46.1803ZM70.5848 48.119C69.8151 48.2287 69.1678 48.0741 68.7119 47.8837C68.4795 47.7867 68.2229 47.6504 67.9548 47.4558C67.8205 47.3583 67.6444 47.218 67.452 47.0271C67.2886 46.8649 66.9637 46.5198 66.6671 45.9937L75.3779 41.0823C74.8294 40.1095 74.0926 39.5543 73.8288 39.3628C73.4293 39.0729 73.0005 38.8377 72.5647 38.6557C71.7019 38.2955 70.5229 38.0269 69.1742 38.219L70.5848 48.119ZM66.0225 43.5219L66 50.4849L76 50.5172L76.0225 43.5542L66.0225 43.5219ZM66.4068 48.5255L62.8953 56.69L72.0817 60.641L75.5932 52.4765L66.4068 48.5255ZM62.8759 56.7359C62.9363 56.5914 62.9901 56.4902 63.0191 56.4382C63.0498 56.3831 63.0712 56.3503 63.0775 56.3407C63.0879 56.325 63.0751 56.3455 63.036 56.393C62.9989 56.4382 62.9615 56.4792 62.9348 56.5064C62.9226 56.5189 62.9193 56.5216 62.9261 56.5153C62.9316 56.5103 62.9584 56.4858 63.0061 56.4477L69.2469 64.2613C69.8294 63.7961 70.36 63.2311 70.7612 62.7429C71.1201 62.3063 71.7099 61.5305 72.1011 60.5952L62.8759 56.7359ZM63.0423 56.4191L57.7023 60.6041L63.8707 68.475L69.2107 64.29L63.0423 56.4191ZM57.7191 60.591C56.298 61.695 55.5 63.38 55.5 65.129H65.5C65.5 66.4161 64.912 67.6661 63.8539 68.488L57.7191 60.591ZM55.5 65.129V71.186H65.5V65.129H55.5ZM55.5 71.186C55.5 74.3615 58.0746 76.936 61.25 76.936V66.936C63.5974 66.936 65.5 68.8386 65.5 71.186H55.5Z" fill="#6425D3" mask="url(#path-2-inside-1_190_4478)"/>
<path d="M33.3423 46.2752C33.4099 46.8273 33.4437 47.3373 33.4754 47.8143L33.476 47.8235C33.4774 47.8441 33.478 47.8645 33.4778 47.8849C33.4777 47.8872 33.4777 47.8894 33.4776 47.8917C33.4697 48.2779 33.1696 48.626 32.7785 48.6515C32.3645 48.68 32.009 48.3965 31.9835 47.984L31.9831 47.9775C31.9819 47.9606 31.9808 47.9438 31.9797 47.9269C31.9796 47.9255 31.9795 47.9242 31.9794 47.9228C31.9466 47.429 31.9117 46.9197 31.8431 46.3828C32.0607 46.2587 32.3165 46.1777 32.6068 46.1574C32.6098 46.1572 32.6128 46.157 32.6158 46.1568L32.6158 46.1568L32.6068 46.1574C32.6098 46.1572 32.6128 46.157 32.6158 46.1568C32.8547 46.1418 33.1052 46.1828 33.3423 46.2752Z" fill="#6425D3" stroke="#6425D3" stroke-width="5"/>
<mask id="path-5-inside-2_190_4478" fill="white">
<path d="M47.7507 71.9351C47.3367 71.9351 47.0007 71.5991 47.0007 71.1851V62.9906C47.0007 59.8301 44.8182 57.0746 41.6922 56.2886C41.2902 56.1881 41.0472 55.7801 41.1477 55.3781C41.2482 54.9776 41.6487 54.7286 42.0582 54.8336C45.8502 55.7876 48.5007 59.1416 48.5007 62.9906V71.1851C48.5007 71.5991 48.1647 71.9351 47.7507 71.9351Z"/>
</mask>
<path d="M47.7507 71.9351C47.3367 71.9351 47.0007 71.5991 47.0007 71.1851V62.9906C47.0007 59.8301 44.8182 57.0746 41.6922 56.2886C41.2902 56.1881 41.0472 55.7801 41.1477 55.3781C41.2482 54.9776 41.6487 54.7286 42.0582 54.8336C45.8502 55.7876 48.5007 59.1416 48.5007 62.9906V71.1851C48.5007 71.5991 48.1647 71.9351 47.7507 71.9351Z" fill="#6425D3"/>
<path d="M41.6922 56.2886L42.4237 53.3792L42.4198 53.3782L41.6922 56.2886ZM41.1477 55.3781L38.2379 54.648L38.2372 54.6505L41.1477 55.3781ZM42.0582 54.8336L41.313 57.7397L41.3262 57.743L42.0582 54.8336ZM47.7507 68.9351C48.9935 68.9351 50.0007 69.9423 50.0007 71.1851H44.0007C44.0007 73.256 45.6798 74.9351 47.7507 74.9351V68.9351ZM50.0007 71.1851V62.9906H44.0007V71.1851H50.0007ZM50.0007 62.9906C50.0007 58.4164 46.8455 54.491 42.4237 53.3792L40.9606 59.1981C42.7909 59.6583 44.0007 61.2439 44.0007 62.9906H50.0007ZM42.4198 53.3782C43.6362 53.6823 44.3567 54.9114 44.0581 56.1057L38.2372 54.6505C37.7377 56.6489 38.9442 58.694 40.9646 59.1991L42.4198 53.3782ZM44.0575 56.1083C43.7634 57.2803 42.5543 58.0579 41.313 57.7396L42.8033 51.9276C40.743 51.3994 38.733 52.675 38.2379 54.648L44.0575 56.1083ZM41.3262 57.743C43.8165 58.3695 45.5007 60.549 45.5007 62.9906H51.5007C51.5007 57.7343 47.8838 53.2058 42.7901 51.9243L41.3262 57.743ZM45.5007 62.9906V71.1851H51.5007V62.9906H45.5007ZM45.5007 71.1851C45.5007 69.9423 46.5078 68.9351 47.7507 68.9351V74.9351C49.8215 74.9351 51.5007 73.256 51.5007 71.1851H45.5007Z" fill="#6425D3" mask="url(#path-5-inside-2_190_4478)"/>
<path d="M41.4406 56.014C41.5421 56.1157 41.6354 56.2223 41.7206 56.3331C41.5765 56.3067 41.4387 56.238 41.3274 56.1274L41.4406 56.014ZM41.4406 56.014L41.8565 55.5972L41.8578 55.5958L42.3874 55.065L42.0021 55.4504M41.4406 56.014C41.4404 56.0139 41.4403 56.0137 41.4401 56.0136L41.8561 55.5967L41.8574 55.5954L42.0021 55.4504M42.0021 55.4504L42.3871 55.0645L42.3855 55.063L41.8566 55.5946L41.8553 55.596L41.6182 55.8343M42.0021 55.4504L41.8572 55.5952L41.8559 55.5966L41.6182 55.8343M41.6182 55.8343L41.4395 56.013M41.6182 55.8343L41.44 56.0134C41.4398 56.0133 41.4397 56.0131 41.4395 56.013M41.4395 56.013C41.4393 56.0127 41.439 56.0124 41.4388 56.0122L41.4374 56.0109L40.2736 54.8488M41.4395 56.013L41.3262 56.1262L41.3255 56.1255L41.3243 56.1242L40.2073 55.0098C40.2267 54.9553 40.2488 54.9016 40.2736 54.8488M40.2736 54.8488C40.3566 54.673 40.4704 54.5081 40.6152 54.3622C40.6167 54.3607 40.6182 54.3592 40.6197 54.3577C40.81 54.1678 41.0317 54.0313 41.2672 53.9472L39.0058 51.6907L38.3301 52.3663L38.3301 52.3664L38.059 52.6375L38.0593 52.6378L40.2736 54.8488Z" fill="#6425D3" stroke="#6425D3" stroke-width="5"/>
<mask id="path-8-inside-3_190_4478" fill="white">
<path d="M52.25 71.9351C51.836 71.9351 51.5 71.5991 51.5 71.1851V62.9906C51.5 59.1416 54.1505 55.7876 57.9425 54.8336C58.349 54.7286 58.751 54.9776 58.853 55.3781C58.952 55.7801 58.709 56.1881 58.3085 56.2886C55.1825 57.0746 53 59.8301 53 62.9906V71.1851C53 71.5991 52.664 71.9351 52.25 71.9351Z"/>
</mask>
<path d="M52.25 71.9351C51.836 71.9351 51.5 71.5991 51.5 71.1851V62.9906C51.5 59.1416 54.1505 55.7876 57.9425 54.8336C58.349 54.7286 58.751 54.9776 58.853 55.3781C58.952 55.7801 58.709 56.1881 58.3085 56.2886C55.1825 57.0746 53 59.8301 53 62.9906V71.1851C53 71.5991 52.664 71.9351 52.25 71.9351Z" fill="#6425D3"/>
<path d="M57.9425 54.8336L59.1624 59.6825L59.1777 59.6787L59.193 59.6747L57.9425 54.8336ZM58.853 55.3781L63.7079 54.1825L63.7032 54.1633L63.6983 54.1441L58.853 55.3781ZM58.3085 56.2886L57.0915 51.439L57.0893 51.4396L58.3085 56.2886ZM52.25 66.9351C54.5974 66.9351 56.5 68.8377 56.5 71.1851H46.5C46.5 74.3606 49.0746 76.9351 52.25 76.9351V66.9351ZM56.5 71.1851V62.9906H46.5V71.1851H56.5ZM56.5 62.9906C56.5 61.4872 57.5399 60.0907 59.1624 59.6825L56.7226 49.9847C50.7611 51.4845 46.5 56.7961 46.5 62.9906H56.5ZM59.193 59.6747C56.8333 60.2842 54.5667 58.8072 54.0077 56.6121L63.6983 54.1441C62.9353 51.1481 59.8647 49.173 56.692 49.9925L59.193 59.6747ZM53.9981 56.5738C53.4463 54.3332 54.7917 52.0161 57.0915 51.439L59.5255 61.1383C62.6263 60.3602 64.4577 57.2271 63.7079 54.1825L53.9981 56.5738ZM57.0893 51.4396C51.8037 52.7686 48 57.4739 48 62.9906H58C58 62.1863 58.5613 61.3807 59.5277 61.1377L57.0893 51.4396ZM48 62.9906V71.1851H58V62.9906H48ZM48 71.1851C48 68.8377 49.9026 66.9351 52.25 66.9351V76.9351C55.4254 76.9351 58 74.3606 58 71.1851H48Z" fill="#6425D3" mask="url(#path-8-inside-3_190_4478)"/>
<mask id="path-10-inside-4_190_4478" fill="white">
<path d="M60.8575 59.061C60.6655 59.061 60.4735 58.9875 60.3265 58.842C60.034 58.548 60.034 58.074 60.3265 57.78L66.3295 51.786C65.0305 50.8905 63.5905 51.216 62.053 52.752L58.6705 56.127C58.378 56.418 57.9025 56.4195 57.61 56.1255C57.3175 55.833 57.3175 55.3575 57.61 55.065L60.9925 51.69C63.361 49.3215 65.9035 49.1475 67.966 51.21C68.107 51.351 68.185 51.5415 68.185 51.741C68.185 51.9405 68.1055 52.131 67.966 52.272L61.3855 58.842C61.2415 58.9875 61.0495 59.061 60.8575 59.061Z"/>
</mask>
<path d="M60.8575 59.061C60.6655 59.061 60.4735 58.9875 60.3265 58.842C60.034 58.548 60.034 58.074 60.3265 57.78L66.3295 51.786C65.0305 50.8905 63.5905 51.216 62.053 52.752L58.6705 56.127C58.378 56.418 57.9025 56.4195 57.61 56.1255C57.3175 55.833 57.3175 55.3575 57.61 55.065L60.9925 51.69C63.361 49.3215 65.9035 49.1475 67.966 51.21C68.107 51.351 68.185 51.5415 68.185 51.741C68.185 51.9405 68.1055 52.131 67.966 52.272L61.3855 58.842C61.2415 58.9875 61.0495 59.061 60.8575 59.061Z" fill="#6425D3"/>
<path d="M60.3265 58.842L56.7819 62.3684L56.7955 62.3821L56.8091 62.3956L60.3265 58.842ZM60.3265 57.78L56.7936 54.2418L56.7878 54.2476L56.7819 54.2535L60.3265 57.78ZM66.3295 51.786L69.8624 55.3242L74.1137 51.0792L69.1674 47.6694L66.3295 51.786ZM62.053 52.752L65.5846 56.2914L65.5868 56.2892L62.053 52.752ZM58.6705 56.127L62.1969 59.6716L62.2021 59.6664L58.6705 56.127ZM57.61 56.1255L61.1546 52.599L61.1455 52.5899L57.61 56.1255ZM57.61 55.065L54.0784 51.5255L54.0745 51.5294L57.61 55.065ZM60.9925 51.69L64.5241 55.2294L64.528 55.2255L60.9925 51.69ZM67.966 52.272L71.4987 55.8103L71.5096 55.7995L71.5204 55.7885L67.966 52.272ZM61.3855 58.842L57.8528 55.3036L57.8422 55.3142L57.8317 55.3248L61.3855 58.842ZM60.8575 54.061C61.9413 54.061 63.0257 54.4785 63.8439 55.2884L56.8091 62.3956C57.9213 63.4964 59.3897 64.061 60.8575 64.061V54.061ZM63.8711 55.3155C65.5191 56.972 65.5191 59.6499 63.8711 61.3064L56.7819 54.2535C54.5489 56.498 54.5489 60.1239 56.7819 62.3684L63.8711 55.3155ZM63.8594 61.3182L69.8624 55.3242L62.7966 48.2478L56.7936 54.2418L63.8594 61.3182ZM69.1674 47.6694C67.462 46.4937 65.3623 45.9868 63.1788 46.4801C61.2029 46.9265 59.6563 48.0787 58.5192 49.2147L65.5868 56.2892C65.9872 55.8892 65.9293 56.1107 65.3825 56.2342C65.077 56.3033 64.7014 56.3199 64.3066 56.2374C63.9201 56.1566 63.645 56.0083 63.4916 55.9026L69.1674 47.6694ZM58.5214 49.2125L55.1389 52.5875L62.2021 59.6664L65.5846 56.2914L58.5214 49.2125ZM55.1441 52.5824C56.792 50.9428 59.4825 50.9183 61.1546 52.599L54.0654 59.6519C56.3225 61.9206 59.964 61.8931 62.1969 59.6716L55.1441 52.5824ZM61.1455 52.5899C62.8057 54.2501 62.8057 56.9404 61.1455 58.6005L54.0745 51.5294C51.8293 53.7746 51.8293 57.4159 54.0745 59.661L61.1455 52.5899ZM61.1416 58.6044L64.5241 55.2294L57.4609 48.1505L54.0784 51.5255L61.1416 58.6044ZM64.528 55.2255C64.8321 54.9214 65.037 54.7939 65.1168 54.752C65.188 54.7146 65.1218 54.7639 64.9368 54.7766C64.8476 54.7827 64.7498 54.7787 64.6503 54.762C64.5511 54.7454 64.4691 54.7193 64.4084 54.6939C64.2857 54.6425 64.3017 54.6167 64.4305 54.7455L71.5015 47.6744C69.6538 45.8267 67.1494 44.6009 64.2512 44.8001C61.4846 44.9902 59.188 46.4234 57.457 48.1544L64.528 55.2255ZM64.4305 54.7455C63.6226 53.9376 63.185 52.8517 63.185 51.741H73.185C73.185 50.2313 72.5914 48.7643 71.5015 47.6744L64.4305 54.7455ZM63.185 51.741C63.185 50.6075 63.6364 49.5389 64.4116 48.7554L71.5204 55.7885C72.5746 54.723 73.185 53.2735 73.185 51.741H63.185ZM64.4333 48.7336L57.8528 55.3036L64.9182 62.3803L71.4987 55.8103L64.4333 48.7336ZM57.8317 55.3248C58.6741 54.4736 59.7832 54.061 60.8575 54.061V64.061C62.3158 64.061 63.8089 63.5013 64.9393 62.3591L57.8317 55.3248Z" fill="#6425D3" mask="url(#path-10-inside-4_190_4478)"/>
<mask id="path-12-inside-5_190_4478" fill="white">
<path d="M60.8575 59.061C60.6655 59.061 60.4735 58.9875 60.3265 58.842C60.034 58.548 60.034 58.074 60.3265 57.78L66.3295 51.786C65.0305 50.8905 63.5905 51.216 62.053 52.752L58.6705 56.127C58.378 56.418 57.9025 56.4195 57.61 56.1255C57.3175 55.833 57.3175 55.3575 57.61 55.065L60.9925 51.69C63.361 49.3215 65.9035 49.1475 67.966 51.21C68.107 51.351 68.185 51.5415 68.185 51.741C68.185 51.9405 68.1055 52.131 67.966 52.272L61.3855 58.842C61.2415 58.9875 61.0495 59.061 60.8575 59.061Z"/>
</mask>
<path d="M60.8575 59.061C60.6655 59.061 60.4735 58.9875 60.3265 58.842C60.034 58.548 60.034 58.074 60.3265 57.78L66.3295 51.786C65.0305 50.8905 63.5905 51.216 62.053 52.752L58.6705 56.127C58.378 56.418 57.9025 56.4195 57.61 56.1255C57.3175 55.833 57.3175 55.3575 57.61 55.065L60.9925 51.69C63.361 49.3215 65.9035 49.1475 67.966 51.21C68.107 51.351 68.185 51.5415 68.185 51.741C68.185 51.9405 68.1055 52.131 67.966 52.272L61.3855 58.842C61.2415 58.9875 61.0495 59.061 60.8575 59.061Z" fill="#6425D3"/>
<path d="M60.3265 58.842L56.7819 62.3684L56.7955 62.3821L56.8091 62.3956L60.3265 58.842ZM60.3265 57.78L56.7936 54.2418L56.7878 54.2476L56.7819 54.2535L60.3265 57.78ZM66.3295 51.786L69.8624 55.3242L74.1137 51.0792L69.1674 47.6694L66.3295 51.786ZM62.053 52.752L65.5846 56.2914L65.5868 56.2892L62.053 52.752ZM58.6705 56.127L62.1969 59.6716L62.2021 59.6664L58.6705 56.127ZM57.61 56.1255L61.1546 52.599L61.1455 52.5899L57.61 56.1255ZM57.61 55.065L54.0784 51.5255L54.0745 51.5294L57.61 55.065ZM60.9925 51.69L64.5241 55.2294L64.528 55.2255L60.9925 51.69ZM67.966 52.272L71.4987 55.8103L71.5096 55.7995L71.5204 55.7885L67.966 52.272ZM61.3855 58.842L57.8528 55.3036L57.8422 55.3142L57.8317 55.3248L61.3855 58.842ZM60.8575 54.061C61.9413 54.061 63.0257 54.4785 63.8439 55.2884L56.8091 62.3956C57.9213 63.4964 59.3897 64.061 60.8575 64.061V54.061ZM63.8711 55.3155C65.5191 56.972 65.5191 59.6499 63.8711 61.3064L56.7819 54.2535C54.5489 56.498 54.5489 60.1239 56.7819 62.3684L63.8711 55.3155ZM63.8594 61.3182L69.8624 55.3242L62.7966 48.2478L56.7936 54.2418L63.8594 61.3182ZM69.1674 47.6694C67.462 46.4937 65.3623 45.9868 63.1788 46.4801C61.2029 46.9265 59.6563 48.0787 58.5192 49.2147L65.5868 56.2892C65.9872 55.8892 65.9293 56.1107 65.3825 56.2342C65.077 56.3033 64.7014 56.3199 64.3066 56.2374C63.9201 56.1566 63.645 56.0083 63.4916 55.9026L69.1674 47.6694ZM58.5214 49.2125L55.1389 52.5875L62.2021 59.6664L65.5846 56.2914L58.5214 49.2125ZM55.1441 52.5824C56.792 50.9428 59.4825 50.9183 61.1546 52.599L54.0654 59.6519C56.3225 61.9206 59.964 61.8931 62.1969 59.6716L55.1441 52.5824ZM61.1455 52.5899C62.8057 54.2501 62.8057 56.9404 61.1455 58.6005L54.0745 51.5294C51.8293 53.7746 51.8293 57.4159 54.0745 59.661L61.1455 52.5899ZM61.1416 58.6044L64.5241 55.2294L57.4609 48.1505L54.0784 51.5255L61.1416 58.6044ZM64.528 55.2255C64.8321 54.9214 65.037 54.7939 65.1168 54.752C65.188 54.7146 65.1218 54.7639 64.9368 54.7766C64.8476 54.7827 64.7498 54.7787 64.6503 54.762C64.5511 54.7454 64.4691 54.7193 64.4084 54.6939C64.2857 54.6425 64.3017 54.6167 64.4305 54.7455L71.5015 47.6744C69.6538 45.8267 67.1494 44.6009 64.2512 44.8001C61.4846 44.9902 59.188 46.4234 57.457 48.1544L64.528 55.2255ZM64.4305 54.7455C63.6226 53.9376 63.185 52.8517 63.185 51.741H73.185C73.185 50.2313 72.5914 48.7643 71.5015 47.6744L64.4305 54.7455ZM63.185 51.741C63.185 50.6075 63.6364 49.5389 64.4116 48.7554L71.5204 55.7885C72.5746 54.723 73.185 53.2735 73.185 51.741H63.185ZM64.4333 48.7336L57.8528 55.3036L64.9182 62.3803L71.4987 55.8103L64.4333 48.7336ZM57.8317 55.3248C58.6741 54.4736 59.7832 54.061 60.8575 54.061V64.061C62.3158 64.061 63.8089 63.5013 64.9393 62.3591L57.8317 55.3248Z" fill="#6425D3" mask="url(#path-12-inside-5_190_4478)"/>
<mask id="path-14-inside-6_190_4478" fill="white">
<path d="M53.2992 44.1091C52.8927 44.1091 52.4862 44.0761 52.0797 44.0086C50.1387 43.6861 48.4377 42.6256 47.2902 41.0206C46.1427 39.4156 45.6897 37.4626 46.0107 35.5216C46.2372 34.1656 47.5212 33.2431 48.8802 33.4711C50.2362 33.6961 51.1572 34.9846 50.9307 36.3406C50.8407 36.8806 50.9427 37.4401 51.2127 37.9126C51.4197 38.2726 51.2952 38.7301 50.9352 38.9371C50.5797 39.1396 50.1192 39.0196 49.9107 38.6596C49.4682 37.8886 49.3047 36.9781 49.4487 36.0961C49.5387 35.5546 49.1712 35.0401 48.6312 34.9501C48.0882 34.8646 47.5767 35.2261 47.4867 35.7676C47.2302 37.3126 47.5917 38.8681 48.5067 40.1476C49.4217 41.4271 50.7777 42.2731 52.3227 42.5296C52.7472 42.5986 53.1777 42.6256 53.5977 42.6016C54.0192 42.5926 54.3657 42.8986 54.3852 43.3111C54.4077 43.7251 54.0897 44.0776 53.6757 44.1001C53.5542 44.1061 53.4267 44.1091 53.2992 44.1091Z"/>
</mask>
<path d="M53.2992 44.1091C52.8927 44.1091 52.4862 44.0761 52.0797 44.0086C50.1387 43.6861 48.4377 42.6256 47.2902 41.0206C46.1427 39.4156 45.6897 37.4626 46.0107 35.5216C46.2372 34.1656 47.5212 33.2431 48.8802 33.4711C50.2362 33.6961 51.1572 34.9846 50.9307 36.3406C50.8407 36.8806 50.9427 37.4401 51.2127 37.9126C51.4197 38.2726 51.2952 38.7301 50.9352 38.9371C50.5797 39.1396 50.1192 39.0196 49.9107 38.6596C49.4682 37.8886 49.3047 36.9781 49.4487 36.0961C49.5387 35.5546 49.1712 35.0401 48.6312 34.9501C48.0882 34.8646 47.5767 35.2261 47.4867 35.7676C47.2302 37.3126 47.5917 38.8681 48.5067 40.1476C49.4217 41.4271 50.7777 42.2731 52.3227 42.5296C52.7472 42.5986 53.1777 42.6256 53.5977 42.6016C54.0192 42.5926 54.3657 42.8986 54.3852 43.3111C54.4077 43.7251 54.0897 44.0776 53.6757 44.1001C53.5542 44.1061 53.4267 44.1091 53.2992 44.1091Z" fill="#6425D3"/>
<path d="M52.0797 44.0086L51.2602 48.941L51.2607 48.9411L52.0797 44.0086ZM46.0107 35.5216L41.079 34.6979L41.0777 34.7058L46.0107 35.5216ZM48.8802 33.4711L48.0529 38.4022L48.0618 38.4037L48.8802 33.4711ZM50.9307 36.3406L45.999 35.5169L45.9988 35.5186L50.9307 36.3406ZM51.2127 37.9126L46.8715 40.3933L46.8782 40.405L51.2127 37.9126ZM50.9352 38.9371L53.41 43.2817L53.4188 43.2767L53.4276 43.2717L50.9352 38.9371ZM49.9107 38.6596L45.5742 41.1485L45.5791 41.157L45.584 41.1655L49.9107 38.6596ZM49.4487 36.0961L44.5164 35.2764L44.5152 35.2834L44.5141 35.2905L49.4487 36.0961ZM48.6312 34.9501L49.4532 30.0182L49.4311 30.0145L49.4089 30.011L48.6312 34.9501ZM47.4867 35.7676L42.5544 34.9479L42.5542 34.9488L47.4867 35.7676ZM52.3227 42.5296L51.5038 47.4621L51.5122 47.4635L51.5205 47.4649L52.3227 42.5296ZM53.5977 42.6016L53.491 37.6028L53.4017 37.6047L53.3125 37.6098L53.5977 42.6016ZM54.3852 43.3111L49.3908 43.5472L49.3916 43.5649L49.3926 43.5825L54.3852 43.3111ZM53.6757 44.1001L53.9223 49.0941L53.9347 49.0934L53.9471 49.0928L53.6757 44.1001ZM53.2992 39.1091C53.1647 39.1091 53.0322 39.0983 52.8988 39.0762L51.2607 48.9411C51.9402 49.0539 52.6207 49.1091 53.2992 49.1091V39.1091ZM52.8992 39.0763C52.2688 38.9715 51.7352 38.6408 51.3576 38.1127L43.2228 43.9286C45.1403 46.6105 48.0086 48.4008 51.2602 48.941L52.8992 39.0763ZM51.3576 38.1127C50.9804 37.5851 50.8389 36.9713 50.9437 36.3375L41.0777 34.7058C40.5406 37.954 41.305 41.2462 43.2228 43.9286L51.3576 38.1127ZM50.9424 36.3454C50.7164 37.6986 49.4345 38.634 48.0529 38.4022L49.7075 28.5401C45.6079 27.8523 41.7581 30.6327 41.079 34.6979L50.9424 36.3454ZM48.0618 38.4037C46.6921 38.1764 45.7702 36.8872 45.999 35.5169L55.8624 37.1644C56.5443 33.0821 53.7804 29.2159 49.6987 28.5386L48.0618 38.4037ZM45.9988 35.5186C45.718 37.2034 46.0345 38.9285 46.8715 40.3933L55.5539 35.4319C55.851 35.9518 55.9635 36.5579 55.8627 37.1626L45.9988 35.5186ZM46.8782 40.405C45.7025 38.3603 46.4198 35.7659 48.4429 34.6026L53.4276 43.2717C56.1707 41.6944 57.1369 38.185 55.5473 35.4203L46.8782 40.405ZM48.4605 34.5925C50.472 33.4468 53.0573 34.1161 54.2374 36.1538L45.584 41.1655C47.1811 43.9231 50.6875 44.8325 53.41 43.2817L48.4605 34.5925ZM54.2473 36.1708C54.382 36.4055 54.4229 36.6597 54.3834 36.9018L44.5141 35.2905C44.1865 37.2966 44.5545 39.3718 45.5742 41.1485L54.2473 36.1708ZM54.3811 36.9159C54.9227 33.6573 52.7223 30.563 49.4532 30.0182L47.8092 39.8821C45.6202 39.5173 44.1548 37.452 44.5164 35.2764L54.3811 36.9159ZM49.4089 30.011C46.2127 29.5077 43.104 31.641 42.5544 34.9479L52.4191 36.5874C52.0494 38.8113 49.9637 40.2216 47.8535 39.8893L49.4089 30.011ZM42.5542 34.9488C42.0799 37.8056 42.7556 40.7012 44.4397 43.0561L52.5738 37.2392C52.4278 37.0351 52.3805 36.8197 52.4192 36.5865L42.5542 34.9488ZM44.4397 43.0561C46.1231 45.4101 48.6454 46.9876 51.5038 47.4621L53.1416 37.5972C52.91 37.5587 52.7203 37.4442 52.5738 37.2392L44.4397 43.0561ZM51.5205 47.4649C52.2639 47.5857 53.0607 47.6405 53.883 47.5935L53.3125 37.6098C53.2947 37.6108 53.2306 37.6116 53.1249 37.5944L51.5205 47.4649ZM53.7045 47.6005C51.611 47.6452 49.5083 46.0339 49.3908 43.5472L59.3796 43.075C59.2231 39.7634 56.4274 37.5401 53.491 37.6028L53.7045 47.6005ZM49.3926 43.5825C49.2643 41.2224 51.0778 39.234 53.4044 39.1075L53.9471 49.0928C57.1016 48.9213 59.5511 46.2279 59.3779 43.0398L49.3926 43.5825ZM53.4291 39.1062C53.3954 39.1079 53.3503 39.1091 53.2992 39.1091V49.1091C53.5031 49.1091 53.713 49.1044 53.9223 49.0941L53.4291 39.1062Z" fill="#6425D3" mask="url(#path-14-inside-6_190_4478)"/>
<path d="M37.225 40.284C37.2219 40.2861 37.2188 40.2882 37.2158 40.2902C37.213 40.2921 37.2103 40.2939 37.2075 40.2958C36.6695 40.6601 36.322 41.2257 36.2012 41.9348L36.9383 42.0622L37.6817 42.1867C37.7511 41.783 37.9259 41.6248 38.0515 41.5395C38.0526 41.5388 38.0536 41.5382 38.0546 41.5375L37.225 40.284ZM37.225 40.284C37.4816 40.1142 37.7593 40.0027 38.0338 39.9324L39.5592 40.9847C39.4623 41.185 39.3886 41.3017 39.3458 41.3623C39.2603 41.3493 39.1533 41.3378 39.0353 41.3331C38.7218 41.3206 38.3303 41.3558 38.0564 41.5363L37.225 40.284ZM37.681 42.1905L37.2411 42.1145L37.6813 42.1889C37.6812 42.1895 37.6811 42.19 37.681 42.1905ZM38.9169 43.8309C38.9171 43.8309 38.9172 43.8309 38.9174 43.8309C38.9156 43.831 38.9147 43.831 38.9148 43.831C38.9148 43.831 38.9155 43.8309 38.9169 43.8309ZM39.469 41.385C39.441 41.3787 39.4065 41.372 39.3667 41.3656L39.5942 41.4029C39.5603 41.4008 39.526 41.3965 39.4917 41.3898C39.4915 41.3898 39.4912 41.3897 39.491 41.3897C39.4837 41.3882 39.4764 41.3867 39.469 41.385Z" fill="#6425D3" stroke="#6425D3" stroke-width="5"/>
</svg>
