<svg width="21" height="20" viewBox="0 0 21 20" fill="none" xmlns="http://www.w3.org/2000/svg">
<g id="VideoCamera" clip-path="url(#clip0_409_3416)">
<path id="Vector" d="M20.1695 5.70312C20.0699 5.6497 19.9576 5.62432 19.8446 5.62969C19.7317 5.63505 19.6223 5.67097 19.5281 5.73359L16.75 7.58203V5.625C16.75 5.29348 16.6183 4.97554 16.3839 4.74112C16.1495 4.5067 15.8315 4.375 15.5 4.375H3C2.66848 4.375 2.35054 4.5067 2.11612 4.74112C1.8817 4.97554 1.75 5.29348 1.75 5.625V14.375C1.75 14.7065 1.8817 15.0245 2.11612 15.2589C2.35054 15.4933 2.66848 15.625 3 15.625H15.5C15.8315 15.625 16.1495 15.4933 16.3839 15.2589C16.6183 15.0245 16.75 14.7065 16.75 14.375V12.4219L19.5281 14.2742C19.6313 14.3412 19.752 14.3763 19.875 14.375C20.0408 14.375 20.1997 14.3092 20.3169 14.1919C20.4342 14.0747 20.5 13.9158 20.5 13.75V6.25C20.4992 6.13755 20.4681 6.02739 20.4099 5.93114C20.3518 5.83489 20.2687 5.75612 20.1695 5.70312ZM15.5 14.375H3V5.625H15.5V14.375ZM19.25 12.582L16.75 10.9156V9.08437L19.25 7.42188V12.582Z" fill="#393C3A"/>
</g>
<defs>
<clipPath id="clip0_409_3416">
<rect width="20" height="20" fill="white" transform="translate(0.5)"/>
</clipPath>
</defs>
</svg>
