<svg width="25" height="24" viewBox="0 0 25 24" fill="none" xmlns="http://www.w3.org/2000/svg">
<g id="icon/add">
<path id="Vector" d="M12.8281 2.25C10.8998 2.25 9.0147 2.82183 7.41132 3.89317C5.80794 4.96451 4.55826 6.48726 3.8203 8.26884C3.08235 10.0504 2.88927 12.0108 3.26547 13.9021C3.64168 15.7934 4.57028 17.5307 5.93384 18.8943C7.2974 20.2579 9.03468 21.1865 10.926 21.5627C12.8173 21.9389 14.7777 21.7458 16.5593 21.0078C18.3409 20.2699 19.8636 19.0202 20.935 17.4168C22.0063 15.8134 22.5781 13.9284 22.5781 12C22.5754 9.41498 21.5473 6.93661 19.7194 5.10872C17.8915 3.28084 15.4132 2.25273 12.8281 2.25ZM12.8281 20.25C11.1964 20.25 9.60138 19.7661 8.24467 18.8596C6.88797 17.9531 5.83055 16.6646 5.20612 15.1571C4.5817 13.6496 4.41832 11.9908 4.73665 10.3905C5.05498 8.79016 5.84072 7.32015 6.9945 6.16637C8.14828 5.01259 9.61829 4.22685 11.2186 3.90852C12.819 3.59019 14.4778 3.75357 15.9853 4.37799C17.4928 5.00242 18.7812 6.05984 19.6878 7.41655C20.5943 8.77325 21.0781 10.3683 21.0781 12C21.0756 14.1873 20.2057 16.2843 18.659 17.8309C17.1124 19.3775 15.0154 20.2475 12.8281 20.25ZM17.3281 12C17.3281 12.1989 17.2491 12.3897 17.1085 12.5303C16.9678 12.671 16.777 12.75 16.5781 12.75H13.5781V15.75C13.5781 15.9489 13.4991 16.1397 13.3585 16.2803C13.2178 16.421 13.027 16.5 12.8281 16.5C12.6292 16.5 12.4385 16.421 12.2978 16.2803C12.1571 16.1397 12.0781 15.9489 12.0781 15.75V12.75H9.07813C8.87922 12.75 8.68845 12.671 8.5478 12.5303C8.40715 12.3897 8.32813 12.1989 8.32813 12C8.32813 11.8011 8.40715 11.6103 8.5478 11.4697C8.68845 11.329 8.87922 11.25 9.07813 11.25H12.0781V8.25C12.0781 8.05109 12.1571 7.86032 12.2978 7.71967C12.4385 7.57902 12.6292 7.5 12.8281 7.5C13.027 7.5 13.2178 7.57902 13.3585 7.71967C13.4991 7.86032 13.5781 8.05109 13.5781 8.25V11.25H16.5781C16.777 11.25 16.9678 11.329 17.1085 11.4697C17.2491 11.6103 17.3281 11.8011 17.3281 12Z" fill="white"/>
</g>
</svg>
