<svg width="22" height="22" viewBox="0 0 22 22" fill="none" xmlns="http://www.w3.org/2000/svg">
<g id="icon/analysis">
<path id="Vector" d="M19.25 17.1875H18.5625V3.4375C18.5625 3.25516 18.4901 3.0803 18.3611 2.95136C18.2322 2.82243 18.0573 2.75 17.875 2.75H13.0625C12.8802 2.75 12.7053 2.82243 12.5764 2.95136C12.4474 3.0803 12.375 3.25516 12.375 3.4375V6.875H8.25C8.06766 6.875 7.8928 6.94743 7.76386 7.07636C7.63493 7.2053 7.5625 7.38016 7.5625 7.5625V11H4.125C3.94266 11 3.7678 11.0724 3.63886 11.2014C3.50993 11.3303 3.4375 11.5052 3.4375 11.6875V17.1875H2.75C2.56766 17.1875 2.3928 17.2599 2.26386 17.3889C2.13493 17.5178 2.0625 17.6927 2.0625 17.875C2.0625 18.0573 2.13493 18.2322 2.26386 18.3611C2.3928 18.4901 2.56766 18.5625 2.75 18.5625H19.25C19.4323 18.5625 19.6072 18.4901 19.7361 18.3611C19.8651 18.2322 19.9375 18.0573 19.9375 17.875C19.9375 17.6927 19.8651 17.5178 19.7361 17.3889C19.6072 17.2599 19.4323 17.1875 19.25 17.1875ZM13.75 4.125H17.1875V17.1875H13.75V4.125ZM8.9375 8.25H12.375V17.1875H8.9375V8.25ZM4.8125 12.375H7.5625V17.1875H4.8125V12.375Z" fill="#667085"/>
</g>
</svg>
