<svg width="22" height="22" viewBox="0 0 22 22" fill="none" xmlns="http://www.w3.org/2000/svg">
<g id="icon/configurations">
<path id="Vector" d="M18.334 6.63483L11.0667 13.1432L3.66732 6.61467V17.4167H12.834V19.25H2.75065C2.50754 19.25 2.27438 19.1534 2.10247 18.9815C1.93056 18.8096 1.83398 18.5764 1.83398 18.3333V3.66667C1.83398 3.42355 1.93056 3.19039 2.10247 3.01849C2.27438 2.84658 2.50754 2.75 2.75065 2.75H19.2507C19.4938 2.75 19.7269 2.84658 19.8988 3.01849C20.0707 3.19039 20.1673 3.42355 20.1673 3.66667V11.9167H18.334V6.63483ZM17.8766 4.58333H4.13573L11.0566 10.6902L17.8766 4.58333ZM15.6298 17.9199C15.5684 17.5872 15.5684 17.2461 15.6298 16.9134L14.7003 16.3772L15.617 14.7895L16.5465 15.3267C16.8013 15.1085 17.0956 14.9371 17.4173 14.8225V13.75H19.2507V14.8225C19.5724 14.9371 19.8667 15.1085 20.1215 15.3267L21.051 14.7895L21.9677 16.3772L21.0382 16.9134C21.0996 17.2461 21.0996 17.5872 21.0382 17.9199L21.9677 18.4562L21.051 20.0438L20.1215 19.5067C19.8647 19.7269 19.5695 19.8978 19.2507 20.0108V21.0833H17.4173V20.0108C17.0985 19.8978 16.8032 19.7269 16.5465 19.5067L15.617 20.0438L14.7003 18.4562L15.6298 17.9199ZM18.334 18.3333C18.5771 18.3333 18.8103 18.2368 18.9822 18.0648C19.1541 17.8929 19.2507 17.6598 19.2507 17.4167C19.2507 17.1736 19.1541 16.9404 18.9822 16.7685C18.8103 16.5966 18.5771 16.5 18.334 16.5C18.0909 16.5 17.8577 16.5966 17.6858 16.7685C17.5139 16.9404 17.4173 17.1736 17.4173 17.4167C17.4173 17.6598 17.5139 17.8929 17.6858 18.0648C17.8577 18.2368 18.0909 18.3333 18.334 18.3333Z" fill="#667085"/>
</g>
</svg>
