<svg width="22" height="22" viewBox="0 0 22 22" fill="none" xmlns="http://www.w3.org/2000/svg">
<g id="icon/dashboard">
<path id="Vector" d="M17.7069 12.3757H14.1548C13.6841 12.3756 13.2325 12.5621 12.8989 12.8941C12.5653 13.2262 12.3768 13.6769 12.3746 14.1476V17.6997C12.3746 18.1718 12.5622 18.6246 12.896 18.9584C13.2299 19.2923 13.6827 19.4798 14.1548 19.4798H17.7069C18.1774 19.4774 18.6278 19.2888 18.9597 18.9552C19.2916 18.6216 19.4779 18.1702 19.4779 17.6997V14.1476C19.4779 13.6779 19.2913 13.2274 18.9591 12.8953C18.627 12.5632 18.1766 12.3766 17.7069 12.3766M7.84261 12.3757H4.29053C3.81991 12.3783 3.36947 12.5671 3.03763 12.9009C2.70579 13.2346 2.51952 13.6861 2.51953 14.1567V17.7088C2.51953 18.1785 2.70612 18.629 3.03825 18.9611C3.37037 19.2932 3.82083 19.4798 4.29053 19.4798H7.84261C8.31316 19.4798 8.76457 19.2935 9.09815 18.9617C9.43174 18.6298 9.62036 18.1794 9.62278 17.7088V14.1567C9.62278 13.6846 9.43523 13.2318 9.10138 12.898C8.76754 12.5641 8.31474 12.3766 7.84261 12.3766M7.84261 2.52148H4.29053C4.05796 2.52148 3.82767 2.56729 3.6128 2.65629C3.39793 2.74529 3.2027 2.87575 3.03825 3.0402C2.87379 3.20465 2.74334 3.39988 2.65434 3.61475C2.56534 3.82962 2.51953 4.05991 2.51953 4.29248V7.84457C2.51953 8.31511 2.70582 8.76652 3.03768 9.10011C3.36955 9.43369 3.81999 9.62231 4.29053 9.62473H7.84261C8.31474 9.62473 8.76754 9.43718 9.10138 9.10334C9.43523 8.76949 9.62278 8.3167 9.62278 7.84457V4.29248C9.62036 3.82195 9.43174 3.3715 9.09815 3.03964C8.76457 2.70777 8.31316 2.52148 7.84261 2.52148ZM17.7069 2.52148H14.1548C13.6842 2.52148 13.2328 2.70777 12.8992 3.03964C12.5657 3.3715 12.377 3.82195 12.3746 4.29248V7.84457C12.3749 8.31662 12.5625 8.76927 12.8963 9.10307C13.2301 9.43686 13.6827 9.62449 14.1548 9.62473H17.7069C18.1774 9.62231 18.6278 9.43369 18.9597 9.10011C19.2916 8.76652 19.4779 8.31511 19.4779 7.84457V4.29248C19.4779 3.82279 19.2913 3.37233 18.9591 3.0402C18.627 2.70807 18.1766 2.52148 17.7069 2.52148Z" stroke="#667085" stroke-width="1.5" stroke-linecap="round" stroke-linejoin="round"/>
</g>
</svg>
