<svg width="22" height="22" viewBox="0 0 22 22" fill="none" xmlns="http://www.w3.org/2000/svg">
<g id="icon/doctor">
<path id="Vector" d="M12.3737 20.1673C10.7237 20.1673 9.31814 19.5868 8.15703 18.4257C6.99592 17.2645 6.41536 15.859 6.41536 14.209V13.6819C5.10148 13.468 4.00911 12.8529 3.13828 11.8366C2.26745 10.8204 1.83203 9.62504 1.83203 8.25065V2.75065H4.58203V1.83398H6.41536V5.50065H4.58203V4.58398H3.66536V8.25065C3.66536 9.25898 4.02439 10.1222 4.74245 10.8402C5.4605 11.5583 6.3237 11.9173 7.33203 11.9173C8.34036 11.9173 9.20356 11.5583 9.92161 10.8402C10.6397 10.1222 10.9987 9.25898 10.9987 8.25065V4.58398H10.082V5.50065H8.2487V1.83398H10.082V2.75065H12.832V8.25065C12.832 9.62565 12.3966 10.8213 11.5258 11.8376C10.6549 12.8538 9.56259 13.4686 8.2487 13.6819V14.209C8.2487 15.3548 8.64989 16.3289 9.45228 17.1313C10.2547 17.9337 11.2285 18.3346 12.3737 18.334C13.5189 18.3334 14.493 17.9325 15.296 17.1313C16.099 16.3302 16.4999 15.356 16.4987 14.209V12.6736C15.964 12.4902 15.5249 12.1618 15.1814 11.6882C14.838 11.2145 14.666 10.6798 14.6654 10.084C14.6654 9.3201 14.9327 8.67079 15.4674 8.13607C16.0022 7.60135 16.6515 7.33398 17.4154 7.33398C18.1793 7.33398 18.8286 7.60135 19.3633 8.13607C19.898 8.67079 20.1654 9.3201 20.1654 10.084C20.1654 10.6798 19.9936 11.2145 19.6502 11.6882C19.3068 12.1618 18.8674 12.4902 18.332 12.6736V14.209C18.332 15.859 17.7515 17.2645 16.5904 18.4257C15.4293 19.5868 14.0237 20.1673 12.3737 20.1673Z" fill="#667085"/>
</g>
</svg>
