<svg width="22" height="22" viewBox="0 0 22 22" fill="none" xmlns="http://www.w3.org/2000/svg">
<g id="icon/doctors">
<path id="Vector" d="M18.9062 13.75C18.9062 13.954 18.8458 14.1533 18.7325 14.3229C18.6191 14.4925 18.4581 14.6247 18.2696 14.7028C18.0812 14.7808 17.8739 14.8012 17.6738 14.7614C17.4738 14.7216 17.29 14.6234 17.1458 14.4792C17.0016 14.335 16.9034 14.1512 16.8636 13.9512C16.8238 13.7511 16.8442 13.5438 16.9222 13.3554C17.0003 13.1669 17.1325 13.0059 17.3021 12.8925C17.4717 12.7792 17.671 12.7188 17.875 12.7188C18.1485 12.7188 18.4108 12.8274 18.6042 13.0208C18.7976 13.2142 18.9062 13.4765 18.9062 13.75ZM18.5152 17.1265C18.3642 18.1 17.8703 18.9875 17.1226 19.629C16.375 20.2705 15.4227 20.6237 14.4375 20.625H12.375C11.2813 20.6239 10.2328 20.1889 9.45944 19.4156C8.6861 18.6422 8.25114 17.5937 8.25 16.5V13.0187C6.921 12.8512 5.69879 12.2045 4.81273 11.2C3.92667 10.1954 3.43767 8.902 3.4375 7.5625V3.4375C3.4375 3.25516 3.50993 3.0803 3.63886 2.95136C3.7678 2.82243 3.94266 2.75 4.125 2.75H6.1875C6.36984 2.75 6.5447 2.82243 6.67364 2.95136C6.80257 3.0803 6.875 3.25516 6.875 3.4375C6.875 3.61984 6.80257 3.7947 6.67364 3.92364C6.5447 4.05257 6.36984 4.125 6.1875 4.125H4.8125V7.5625C4.81245 8.10886 4.92094 8.64979 5.13167 9.15388C5.34241 9.65796 5.65118 10.1152 6.04006 10.4989C6.42895 10.8827 6.8902 11.1854 7.39704 11.3894C7.90387 11.5935 8.44619 11.6948 8.9925 11.6875C11.2363 11.6583 13.0625 9.77539 13.0625 7.49117V4.125H11.6875C11.5052 4.125 11.3303 4.05257 11.2014 3.92364C11.0724 3.7947 11 3.61984 11 3.4375C11 3.25516 11.0724 3.0803 11.2014 2.95136C11.3303 2.82243 11.5052 2.75 11.6875 2.75H13.75C13.9323 2.75 14.1072 2.82243 14.2361 2.95136C14.3651 3.0803 14.4375 3.25516 14.4375 3.4375V7.49117C14.4375 10.3134 12.3295 12.6723 9.625 13.0178V16.5C9.625 17.2293 9.91473 17.9288 10.4305 18.4445C10.9462 18.9603 11.6457 19.25 12.375 19.25H14.4375C15.062 19.249 15.6676 19.0358 16.1551 18.6455C16.6426 18.2551 16.9829 17.7107 17.1205 17.1016C16.2902 16.9151 15.5586 16.4272 15.0672 15.7324C14.5759 15.0376 14.3597 14.1852 14.4606 13.3402C14.5614 12.4952 14.9721 11.7177 15.6132 11.1581C16.2543 10.5984 17.0801 10.2965 17.931 10.3106C18.7819 10.3248 19.5973 10.654 20.2194 11.2347C20.8415 11.8153 21.2261 12.6061 21.2988 13.454C21.3715 14.3019 21.1271 15.1466 20.6129 15.8247C20.0987 16.5027 19.3513 16.966 18.5152 17.1248V17.1265ZM19.9375 13.75C19.9375 13.3421 19.8165 12.9433 19.5899 12.6041C19.3633 12.265 19.0412 12.0006 18.6643 11.8445C18.2874 11.6884 17.8727 11.6475 17.4726 11.7271C17.0725 11.8067 16.705 12.0031 16.4166 12.2916C16.1281 12.58 15.9317 12.9475 15.8521 13.3476C15.7725 13.7477 15.8134 14.1624 15.9695 14.5393C16.1256 14.9162 16.39 15.2383 16.7291 15.4649C17.0683 15.6915 17.4671 15.8125 17.875 15.8125C18.422 15.8125 18.9466 15.5952 19.3334 15.2084C19.7202 14.8216 19.9375 14.297 19.9375 13.75Z" fill="#667085"/>
</g>
</svg>
