<svg width="21" height="20" viewBox="0 0 21 20" fill="none" xmlns="http://www.w3.org/2000/svg">
<g id="dots-vertical">
<g id="Icon">
<path d="M10.5013 10.834C10.9615 10.834 11.3346 10.4609 11.3346 10.0007C11.3346 9.54041 10.9615 9.16732 10.5013 9.16732C10.0411 9.16732 9.66797 9.54041 9.66797 10.0007C9.66797 10.4609 10.0411 10.834 10.5013 10.834Z" stroke="#667085" stroke-width="1.66667" stroke-linecap="round" stroke-linejoin="round"/>
<path d="M10.5013 5.00065C10.9615 5.00065 11.3346 4.62755 11.3346 4.16732C11.3346 3.70708 10.9615 3.33398 10.5013 3.33398C10.0411 3.33398 9.66797 3.70708 9.66797 4.16732C9.66797 4.62755 10.0411 5.00065 10.5013 5.00065Z" stroke="#667085" stroke-width="1.66667" stroke-linecap="round" stroke-linejoin="round"/>
<path d="M10.5013 16.6673C10.9615 16.6673 11.3346 16.2942 11.3346 15.834C11.3346 15.3737 10.9615 15.0007 10.5013 15.0007C10.0411 15.0007 9.66797 15.3737 9.66797 15.834C9.66797 16.2942 10.0411 16.6673 10.5013 16.6673Z" stroke="#667085" stroke-width="1.66667" stroke-linecap="round" stroke-linejoin="round"/>
</g>
</g>
</svg>
