<svg width="22" height="22" viewBox="0 0 22 22" fill="none" xmlns="http://www.w3.org/2000/svg">
<g id="icon/medical forms">
<path id="Vector" d="M3.4375 3.4375V18.5625H18.5625V3.4375H3.4375ZM4.8125 4.8125H5.18031L8.6625 7.76875L11 5.70625L13.3375 7.76875L16.8197 4.8125H17.1875V17.1875H4.8125V4.8125ZM7.35969 4.8125H9.98594L8.6625 5.98125L7.35969 4.8125ZM12.0141 4.8125H14.6403L13.3375 5.98125L12.0141 4.8125ZM6.1875 8.9375V10.3125H8.25V8.9375H6.1875ZM9.625 8.9375V10.3125H15.8125V8.9375H9.625ZM6.1875 11.6875V13.0625H8.25V11.6875H6.1875ZM9.625 11.6875V13.0625H15.8125V11.6875H9.625ZM12.375 14.4375V15.8125H15.8125V14.4375H12.375Z" fill="#667085"/>
</g>
</svg>
