<svg width="22" height="22" viewBox="0 0 22 22" fill="none" xmlns="http://www.w3.org/2000/svg">
<g id="mingcute:notification-line" clip-path="url(#clip0_916_33701)">
<g id="Group">
<path id="Vector" fill-rule="evenodd" clip-rule="evenodd" d="M13.7798 17.1111C13.78 17.5596 13.6106 17.9916 13.3056 18.3205C13.0006 18.6494 12.5826 18.8508 12.1354 18.8844L12.002 18.8889H10.2243C9.77575 18.889 9.34375 18.7196 9.01488 18.4147C8.68601 18.1097 8.48456 17.6917 8.45092 17.2444L8.44648 17.1111H13.7798ZM11.1131 2C12.7265 1.99997 14.2767 2.62657 15.4369 3.74762C16.5971 4.86867 17.2765 6.39652 17.3318 8.00889L17.3354 8.22222V11.568L18.9549 14.8071C19.0256 14.9484 19.061 15.1048 19.058 15.2628C19.055 15.4208 19.0138 15.5757 18.9379 15.7143C18.862 15.8529 18.7536 15.971 18.622 16.0585C18.4905 16.1461 18.3396 16.2004 18.1825 16.2169L18.0803 16.2222H4.14604C3.98796 16.2223 3.83223 16.184 3.69219 16.1107C3.55215 16.0373 3.43197 15.9311 3.34196 15.8012C3.25195 15.6713 3.19479 15.5214 3.17537 15.3645C3.15596 15.2077 3.17487 15.0484 3.23048 14.9004L3.27137 14.8071L4.89092 11.568V8.22222C4.89092 6.57199 5.54648 4.98934 6.71337 3.82245C7.88026 2.65555 9.46291 2 11.1131 2ZM11.1131 3.77778C9.96785 3.77784 8.86678 4.22004 8.03957 5.01214C7.21235 5.80425 6.72285 6.88511 6.67315 8.02933L6.6687 8.22222V11.568C6.66871 11.7885 6.62772 12.007 6.54781 12.2124L6.48115 12.3636L5.44115 14.4444H16.786L15.746 12.3627C15.6474 12.1656 15.5862 11.9519 15.5656 11.7324L15.5576 11.568V8.22222C15.5576 7.04348 15.0893 5.91302 14.2558 5.07953C13.4223 4.24603 12.2919 3.77778 11.1131 3.77778Z" fill="black"/>
</g>
</g>
<defs>
<clipPath id="clip0_916_33701">
<rect width="21.3333" height="21.3333" fill="white" transform="translate(0.445312 0.222656)"/>
</clipPath>
</defs>
</svg>
