<svg width="40" height="41" viewBox="0 0 40 41" fill="none" xmlns="http://www.w3.org/2000/svg">
<rect y="0.833984" width="40" height="40" rx="20" fill="#FF66F9" fill-opacity="0.2"/>
<path d="M29 18.834H11M24 10.834V14.834M16 10.834V14.834M15.8 30.834H24.2C25.8802 30.834 26.7202 30.834 27.362 30.507C27.9265 30.2194 28.3854 29.7604 28.673 29.196C29 28.5542 29 27.7141 29 26.034V17.634C29 15.9538 29 15.1137 28.673 14.472C28.3854 13.9075 27.9265 13.4486 27.362 13.161C26.7202 12.834 25.8802 12.834 24.2 12.834H15.8C14.1198 12.834 13.2798 12.834 12.638 13.161C12.0735 13.4486 11.6146 13.9075 11.327 14.472C11 15.1137 11 15.9538 11 17.634V26.034C11 27.7141 11 28.5542 11.327 29.196C11.6146 29.7604 12.0735 30.2194 12.638 30.507C13.2798 30.834 14.1198 30.834 15.8 30.834Z" stroke="#FF66F9" stroke-width="2" stroke-linecap="round" stroke-linejoin="round"/>
</svg>
