<svg width="22" height="22" viewBox="0 0 22 22" fill="none" xmlns="http://www.w3.org/2000/svg">
<g id="icon/patients">
<path id="Vector" d="M16.4354 17.9994H18.3953C18.5677 18.0021 18.7381 17.963 18.8921 17.8855C19.0461 17.808 19.1791 17.6944 19.2796 17.5543C19.3801 17.4142 19.4453 17.2519 19.4694 17.0812C19.4936 16.9105 19.476 16.7364 19.4183 16.574C18.9185 15.5044 18.1273 14.5974 17.1355 13.957C16.1437 13.3165 14.9915 12.9686 13.811 12.9532M13.811 10.4241C14.2522 10.4242 14.689 10.3374 15.0966 10.1687C15.5042 9.99994 15.8746 9.75256 16.1865 9.44067C16.4985 9.12877 16.746 8.75848 16.9148 8.35092C17.0837 7.94337 17.1706 7.50655 17.1706 7.06541C17.1718 6.62349 17.0858 6.18568 16.9175 5.77707C16.7492 5.36846 16.5019 4.99708 16.1898 4.68422C15.8777 4.37135 15.5069 4.12315 15.0987 3.95385C14.6905 3.78454 14.2529 3.69745 13.811 3.69757M8.5631 10.5295C9.57303 10.5271 10.5407 10.1241 11.2539 9.40903C11.9671 8.69396 12.3675 7.72517 12.3673 6.71524C12.3673 5.70607 11.9664 4.73823 11.2528 4.02464C10.5392 3.31105 9.57135 2.91016 8.56218 2.91016C7.55301 2.91016 6.58517 3.31105 5.87158 4.02464C5.15799 4.73823 4.7571 5.70607 4.7571 6.71524C4.7571 7.72517 5.15772 8.69386 5.87108 9.40876C6.58443 10.1237 7.55225 10.5264 8.56218 10.5286M12.8577 19.093C13.1806 19.0926 13.497 19.0027 13.772 18.8335C14.047 18.6643 14.2698 18.4222 14.4156 18.1342C14.5615 17.8461 14.6248 17.5233 14.5985 17.2015C14.5722 16.8797 14.4573 16.5714 14.2666 16.3109C13.5986 15.4238 12.7386 14.6994 11.7508 14.1921C10.763 13.6847 9.67324 13.4075 8.5631 13.3812C7.45288 13.4076 6.36304 13.6849 5.37527 14.1925C4.38751 14.7 3.52745 15.4246 2.8596 16.3118C2.66953 16.5724 2.55517 16.8804 2.52915 17.2019C2.50312 17.5233 2.56644 17.8457 2.71211 18.1335C2.85779 18.4212 3.08015 18.6631 3.35464 18.8324C3.62913 19.0018 3.94508 19.0919 4.2676 19.093H12.8577Z" stroke="#667085" stroke-width="2" stroke-linecap="round" stroke-linejoin="round"/>
</g>
</svg>
