<svg width="40" height="41" viewBox="0 0 40 41" fill="none" xmlns="http://www.w3.org/2000/svg">
<rect y="0.833984" width="40" height="40" rx="20" fill="#66FFED" fill-opacity="0.2"/>
<path d="M24.5 24.834L29.5 29.834M29.5 24.834L24.5 29.834M23.5 12.1247C24.9659 12.7181 26 14.1553 26 15.834C26 17.5127 24.9659 18.9498 23.5 19.5432M20 23.834H16C14.1362 23.834 13.2044 23.834 12.4693 24.1385C11.4892 24.5444 10.7105 25.3231 10.3045 26.3033C10 27.0383 10 27.9702 10 29.834M21.5 15.834C21.5 18.0431 19.7091 19.834 17.5 19.834C15.2909 19.834 13.5 18.0431 13.5 15.834C13.5 13.6248 15.2909 11.834 17.5 11.834C19.7091 11.834 21.5 13.6248 21.5 15.834Z" stroke="#2DD9C4" stroke-width="2" stroke-linecap="round" stroke-linejoin="round"/>
</svg>
